SplineFontDB: 3.0
FontName: LinLibertineO
FullName: Linux Libertine O
FamilyName: Linux Libertine O
Weight: Book
Copyright: Linux Libertine by Philipp H. Poll, Open Font under Terms of following Free Software Licenses:\nGPL (General Public License) with font-exception and OFL (Open Font License).\nCreated with FontForge (http://fontforge.sf.net) Sept 2003, 2004, 2005, 2006, 2007, 2008
UComments: "2003-08-29: Created.+AAoA-2004-07-25: v(1.0) release candidate+AAoA-2005-12-28: v(1.1.0) stable+AAoA-2006-01-01: v(2.0.0) stable+AAoA-2006-09-05: v(2.2.0) stable+AAoA-2006-12-04: v(2.3.0) stable+AAoA-2007-03-11: v(2.4.0) stable+AAoA-2007-12-00: v(2.7.0) stable+AAoA-2008-06-00: v(2.8.14) stable+AAoA" 
Version: 4.1.8
ItalicAngle: 0
UnderlinePosition: -98
UnderlineWidth: 40
Ascent: 726
Descent: 274
LayerCount: 2
Layer: 0 0 "Back"  1
Layer: 1 0 "Fore"  0
XUID: [1021 993 1524925707 2876416]
FSType: 0
OS2Version: 0
OS2_WeightWidthSlopeOnly: 0
OS2_UseTypoMetrics: 0
CreationTime: 1156455862
ModificationTime: 1225700734
PfmFamily: 17
TTFWeight: 400
TTFWidth: 5
LineGap: 0
VLineGap: 0
OS2TypoAscent: 894
OS2TypoAOffset: 0
OS2TypoDescent: -246
OS2TypoDOffset: 0
OS2TypoLinegap: 0
OS2WinAscent: 894
OS2WinAOffset: 0
OS2WinDescent: 246
OS2WinDOffset: 0
HheadAscent: 894
HheadAOffset: 0
HheadDescent: -246
HheadDOffset: 0
OS2FamilyClass: 261
OS2Vendor: 'PfEd'
Lookup: 3 0 0 "'aalt' Alle Alternativen zeigen"  {"'aalt' Alle Alternativen zeigen 1"  } ['aalt' ('DFLT' <'dflt' > 'cyrl' <'dflt' > 'grek' <'dflt' > 'latn' <'AZE ' 'CRT ' 'DEU ' 'MOL ' 'ROM ' 'TRK ' 'dflt' > ) ]
Lookup: 1 0 0 "'locl' Localized Forms Romaenisch"  {"'locl' Localized Forms Romaenisch 1"  } ['locl' ('latn' <'MOL ' 'ROM ' > ) ]
Lookup: 1 0 0 "'smcp' Gemeine nach Kapitaelchen i > i.sc"  {"'smcp' Gemeine nach Kapitaelchen i > i.sc 1"  } ['smcp' ('DFLT' <'dflt' > 'cyrl' <'dflt' > 'grek' <'dflt' > 'latn' <'DEU ' 'MOL ' 'ROM ' 'dflt' > ) ]

StartChar: exclam
Encoding: 33 33 0
Width: 228
VWidth: 999
Flags: HW
HStem: -10 106<70.6089 155.391> 638 20G<102 126.5>
VStem: 59 110<425.857 643.461> 60 106<0.608917 85.3911>
LayerCount: 2
Fore
SplineSet
113 658 m 0
 140 658 169 635 169 585 c 0
 169 520 153 478 143 392 c 0
 130 284 129 224 127 210 c 0
 126 199 123 190 113 190 c 0
 102 190 100 197 99 203 c 0
 97 224 92 314 84 392 c 0
 75 480 59 515 59 585 c 0
 59 639 91 658 113 658 c 0
60 43 m 0
 60 72 84 96 113 96 c 0
 142 96 166 72 166 43 c 0
 166 14 142 -10 113 -10 c 0
 84 -10 60 14 60 43 c 0
EndSplineSet
EndChar

StartChar: quotedbl
Encoding: 34 34 1
Width: 336
VWidth: 999
Flags: HW
HStem: 426 218 427 218
VStem: 62 86<588 634> 189 86<589 635>
LayerCount: 2
Fore
SplineSet
215 427 m 1
 215 427 189 586 189 595 c 0
 189 617 210 645 240 645 c 0
 266 645 275 628 275 612 c 0
 275 596 242 431 242 431 c 1
 215 427 l 1
89 426 m 1
 89 426 63 585 63 594 c 0
 63 616 84 644 114 644 c 0
 140 644 149 627 149 611 c 0
 149 595 116 430 116 430 c 1
 89 426 l 1
EndSplineSet
EndChar

StartChar: numbersign
Encoding: 35 35 2
Width: 440
VWidth: 487
Flags: HW
HStem: 183 48<32 115 156 258 299 382> 341 49<58 140 181 284 324 407>
DStem2: 88 13 121 13 0.158835 0.987305<5.24156 172.13 226.033 332.095 386.986 553.875> 232 13 265 13 0.155313 0.987865<5.12534 171.975 225.761 332.096 386.714 553.719>
LayerCount: 2
Fore
SplineSet
267 231 m 1
 284 341 l 1
 174 341 l 1
 156 231 l 1
 267 231 l 1
317 341 m 1
 299 231 l 1
 389 231 l 1
 382 183 l 1
 293 183 l 1
 265 13 l 1
 232 13 l 1
 258 183 l 1
 149 183 l 1
 121 13 l 1
 88 13 l 1
 115 183 l 1
 25 183 l 1
 32 231 l 1
 123 231 l 1
 140 341 l 1
 50 341 l 1
 58 390 l 1
 148 390 l 1
 175 560 l 1
 209 560 l 1
 181 390 l 1
 292 390 l 1
 318 560 l 1
 351 560 l 1
 324 390 l 1
 415 390 l 1
 407 341 l 1
 317 341 l 1
EndSplineSet
EndChar

StartChar: dollar
Encoding: 36 36 3
Width: 440
VWidth: 999
Flags: HW
HStem: -10 33<147.6 274.43> 542 30<159.039 275.129>
VStem: 41 26<115.775 146.808> 45 64<387.132 501.756> 197 34<-81 627> 327 72<70.3563 197.557> 341 26<419.923 435>
LayerCount: 2
Fore
SplineSet
92 12 m 0
 76 12 79 1 58 1 c 1
 58 38 50 90 42 146 c 1
 68 149 l 1
 84 88 129 31 198 24 c 1
 198 264 l 1
 139 291 46 336 46 434 c 0
 46 520 131 565 198 571 c 1
 198 627 l 1
 232 627 l 1
 232 572 l 1
 279 570 311 564 348 564 c 1
 351 519 360 470 368 421 c 1
 342 417 l 1
 337 435 l 2
 317 501 287 535 232 541 c 1
 232 327 l 1
 289 306 400 258 400 156 c 0
 400 123 392 -1 232 -10 c 1
 232 -81 l 1
 198 -81 l 1
 198 -10 l 1
 143 -6 111 12 92 12 c 0
232 251 m 1
 232 24 l 1
 271 30 328 54 328 127 c 0
 328 207 273 235 232 251 c 1
198 341 m 1
 198 541 l 1
 151 534 110 497 110 438 c 0
 110 391 159 359 198 341 c 1
EndSplineSet
EndChar

StartChar: percent
Encoding: 37 37 4
Width: 637
VWidth: 999
Flags: HW
HStem: -12 10G<114 143> -12 29<447 513> 225 31<488 554> 303 29<125 190> 484 37<280 459> 540 32<164 233> 565 10G<498 533>
VStem: 59 51<341 480> 246 31<407 505> 380 51<25 164> 568 30<93 210>
DStem2: 102 3 136 -12 0.583482 0.812126<7.19375 615.581 651.431 704.951>
LayerCount: 2
Fore
SplineSet
432 83 m 0
 432 31 458 17 477 17 c 0
 532 17 568 108 568 164 c 0
 568 216 537 225 523 225 c 0
 474 225 432 141 432 83 c 0
380 98 m 0
 380 173 438 256 512 256 c 0
 552 256 598 238 598 165 c 0
 598 98 554 -12 471 -12 c 0
 410 -12 380 45 380 98 c 0
364 521 m 0
 406 521 483 533 514 575 c 1
 546 559 l 1
 136 -12 l 1
 102 3 l 1
 461 503 l 1
 423 488 384 484 354 484 c 0
 331 484 293 494 274 505 c 1
 276 498 277 489 277 480 c 0
 277 416 233 303 149 303 c 0
 87 303 59 361 59 412 c 0
 59 489 118 571 190 571 c 0
 218 571 247 558 257 546 c 1
 311 521 346 521 364 521 c 0
110 398 m 0
 110 346 137 332 155 332 c 0
 210 332 246 421 246 479 c 0
 246 529 219 540 201 540 c 0
 152 540 110 456 110 398 c 0
EndSplineSet
EndChar

StartChar: parenleft
Encoding: 40 40 5
Width: 295
VWidth: 999
Flags: HW
VStem: 44 78<145 405>
LayerCount: 2
Fore
SplineSet
44 252 m 0
 44 438 137 605 256 707 c 1
 274 689 l 1
 242 653 122 515 122 252 c 0
 122 -11 241 -149 274 -187 c 1
 256 -204 l 1
 48 -24 44 207 44 252 c 0
EndSplineSet
Substitution2: "'c2sc' Versale nach Kapitaelchen 1" parenleft.sc
AlternateSubs2: "'aalt' Alle Alternativen zeigen 1" parenleft.sc
Substitution2: "'sinf' Wissenschaftliche Indices 1" parenleft.inferior
Substitution2: "'sups' Hochgestellte 1" parenleft.superior
Substitution2: "'case' Versalformen 1" parenleft.sc
EndChar

StartChar: parenright
Encoding: 41 41 6
Width: 295
VWidth: 999
Flags: HW
VStem: 174 78<99 359>
LayerCount: 2
Fore
SplineSet
252 252 m 0
 252 66 159 -101 40 -203 c 1
 22 -185 l 1
 54 -149 174 -11 174 252 c 0
 174 515 55 653 22 691 c 1
 40 708 l 1
 248 528 252 297 252 252 c 0
EndSplineSet
Substitution2: "'c2sc' Versale nach Kapitaelchen 1" parenright.sc
AlternateSubs2: "'aalt' Alle Alternativen zeigen 1" parenright.sc
Substitution2: "'sinf' Wissenschaftliche Indices 1" parenright.inferior
Substitution2: "'sups' Hochgestellte 1" parenright.superior
Substitution2: "'case' Versalformen 1" parenright.sc
EndChar

StartChar: asterisk
Encoding: 42 42 7
Width: 433
VWidth: 999
Flags: HMW
LayerCount: 2
Fore
SplineSet
198 567 m 1
 185 570 171 571 156 571 c 0
 107 571 75 578 75 608 c 0
 75 622 84 638 108 638 c 0
 142 638 160 605 204 587 c 1
 200 626 181 653 181 679 c 0
 181 700 193 718 211 718 c 0
 229 718 244 707 244 683 c 0
 244 656 227 616 225 586 c 1
 271 606 287 638 320 638 c 0
 347 638 354 618 354 608 c 0
 354 578 319 571 285 571 c 0
 266 571 248 570 230 567 c 1
 264 530 313 520 313 480 c 0
 313 462 298 451 284 451 c 0
 245 451 238 516 213 555 c 1
 188 510 181 451 143 451 c 0
 126 451 114 464 114 479 c 0
 114 522 165 530 198 567 c 1
EndSplineSet
EndChar

StartChar: plus
Encoding: 43 43 8
Width: 527
VWidth: 999
Flags: HMW
HStem: 208 49<66 238 289 461>
VStem: 238 51<34 208 257 431>
LayerCount: 2
Fore
SplineSet
289 257 m 1
 461 257 l 1
 461 208 l 1
 289 208 l 1
 289 34 l 1
 238 34 l 1
 238 208 l 1
 66 208 l 1
 66 257 l 1
 238 257 l 1
 238 431 l 1
 289 431 l 1
 289 257 l 1
EndSplineSet
AlternateSubs2: "'aalt' Alle Alternativen zeigen 1" plus.superior plus.inferior uni2098
Substitution2: "'sinf' Wissenschaftliche Indices 1" plus.inferior
Substitution2: "'sups' Hochgestellte 1" plus.superior
EndChar

StartChar: slash
Encoding: 47 47 9
Width: 323
VWidth: 999
Flags: HW
HStem: 637 10G<249 293>
VStem: 15 278
DStem2: 15 -59 56 -59 0.318983 0.94776<13.2391 743.945>
LayerCount: 2
Fore
SplineSet
293 646 m 1
 56 -59 l 1
 15 -59 l 1
 252 646 l 1
 293 646 l 1
EndSplineSet
Ligature2: "'frac' Brueche 1" uni2215
AlternateSubs2: "'aalt' Alle Alternativen zeigen 1" uni2215
EndChar

StartChar: one
Encoding: 49 49 10
Width: 440
VWidth: 999
Flags: HW
HStem: 0 31<107 207.12 286.539 379> 558 20G<251.5 279.75>
VStem: 211 72<33.1182 476.982>
LayerCount: 2
Fore
SplineSet
191 476 m 0
 172 476 150 470 104 451 c 1
 89 478 l 1
 177 519 225 544 280 578 c 1
 284 578 286 578 286 573 c 0
 284 560 283 499 283 439 c 2
 283 87 l 2
 283 51 288 32 321 31 c 2
 373 29 l 2
 376 29 381 27 381 21 c 2
 381 0 l 1
 379 -2 l 1
 379 -2 275 0 244 0 c 0
 221 0 107 -2 107 -2 c 1
 105 0 l 1
 105 21 l 2
 105 24 108 29 113 29 c 2
 173 31 l 2
 210 32 211 58 211 87 c 2
 211 418 l 2
 211 452 208 476 191 476 c 0
EndSplineSet
AlternateSubs2: "'aalt' Alle Alternativen zeigen 1" one.oldstyle one.superior one.fitted
Substitution2: "'sups' Hochgestellte 1" one.superior
Substitution2: "'sinf' Wissenschaftliche Indices 1" one.inferior
Substitution2: "'pnum' Proportionalziffern 1" one.fitted
Substitution2: "'onum' Minuskelziffern 1" one.taboldstyle
EndChar

StartChar: two
Encoding: 50 50 11
Width: 440
VWidth: 487
Flags: HMW
HStem: 0 58<125 340> 547 31<152 260>
VStem: 58 66<426 508> 308 77<350 506>
DStem2: 159 194 197 176 0.716277 0.697816<-95.6577 205.725>
LayerCount: 2
Fore
SplineSet
59 443 m 0
 59 500 114 578 219 578 c 0
 296 578 388 536 388 434 c 0
 388 362 347 320 293 268 c 2
 198 176 l 2
 193 171 126 103 126 58 c 1
 296 58 l 2
 330 58 348 75 362 130 c 1
 387 126 l 1
 367 0 l 1
 58 0 l 1
 58 56 67 99 160 194 c 2
 230 263 l 2
 286 320 309 369 309 430 c 0
 309 521 247 547 213 547 c 0
 144 547 125 511 125 487 c 0
 125 479 127 471 129 464 c 0
 131 457 133 450 133 442 c 0
 133 416 113 406 97 406 c 0
 75 406 59 423 59 443 c 0
EndSplineSet
AlternateSubs2: "'aalt' Alle Alternativen zeigen 1" two.oldstyle two.superior two.fitted
Substitution2: "'sups' Hochgestellte 1" two.superior
Substitution2: "'sinf' Wissenschaftliche Indices 1" two.inferior
Substitution2: "'pnum' Proportionalziffern 1" two.fitted
Substitution2: "'onum' Minuskelziffern 1" two.taboldstyle
EndChar

StartChar: three
Encoding: 51 51 12
Width: 440
VWidth: 487
Flags: HMW
HStem: -10 31<140.448 243.376> 298 30<159.067 190.577> 547 31<157.939 262.399>
VStem: 294 68<413.721 522.753> 317 77<95.6058 258.538>
LayerCount: 2
Fore
SplineSet
217 547 m 0
 192 547 119 533 119 472 c 0
 119 454 112 423 85 423 c 0
 59 423 57 452 57 455 c 0
 57 486 98 578 237 578 c 0
 334 578 363 517 363 477 c 0
 363 452 355 402 265 345 c 1
 321 336 395 295 395 191 c 0
 395 59 295 -10 182 -10 c 0
 125 -10 45 15 45 53 c 0
 45 68 60 85 80 85 c 0
 99 85 108 75 117 62 c 0
 128 45 146 21 194 21 c 0
 227 21 318 52 318 178 c 0
 318 285 246 302 192 302 c 0
 183 302 172 300 161 298 c 1
 157 328 l 1
 234 341 295 416 295 462 c 0
 295 519 258 547 217 547 c 0
EndSplineSet
AlternateSubs2: "'aalt' Alle Alternativen zeigen 1" three.oldstyle three.superior three.fitted
Substitution2: "'sups' Hochgestellte 1" three.superior
Substitution2: "'sinf' Wissenschaftliche Indices 1" three.inferior
Substitution2: "'pnum' Proportionalziffern 1" three.fitted
Substitution2: "'onum' Minuskelziffern 1" three.taboldstyle
EndChar

StartChar: four
Encoding: 52 52 13
Width: 440
VWidth: 487
Flags: HW
HStem: -2 29<183 215 360 392> 153 45<101 259 327 419.054> 558 20G<266 269.5>
VStem: 259 68<33.8382 153 198 381.915>
LayerCount: 2
Fore
SplineSet
407 198 m 2
 417 198 421 192 421 183 c 0
 421 172 407 153 394 153 c 2
 327 153 l 1
 327 72 l 2
 327 44 332 31 360 29 c 2
 387 27 l 2
 393 27 394 22 394 20 c 2
 394 0 l 1
 392 -2 l 1
 392 -2 329 0 288 0 c 0
 247 0 183 -2 183 -2 c 1
 181 0 l 1
 181 20 l 2
 181 22 182 27 188 27 c 2
 215 29 l 2
 245 31 259 43 259 72 c 2
 259 153 l 1
 73 153 l 2
 44 153 36 179 33 193 c 0
 33 194 34 195 35 196 c 0
 100 268 221 490 261 573 c 0
 263 577 264 578 268 578 c 0
 271 578 291 569 303 567 c 1
 252 445 174 314 101 198 c 1
 259 198 l 1
 259 355 l 2
 259 362 260 370 269 375 c 1
 280 383 298 392 313 392 c 0
 326 392 327 381 327 361 c 2
 327 198 l 1
 407 198 l 2
EndSplineSet
AlternateSubs2: "'aalt' Alle Alternativen zeigen 1" four.oldstyle four.superior four.fitted
Substitution2: "'sups' Hochgestellte 1" four.superior
Substitution2: "'sinf' Wissenschaftliche Indices 1" four.inferior
Substitution2: "'pnum' Proportionalziffern 1" four.fitted
Substitution2: "'onum' Minuskelziffern 1" four.taboldstyle
EndChar

StartChar: five
Encoding: 53 53 14
Width: 440
VWidth: 487
Flags: HW
HStem: -10 34<149.749 246.796> 323 47<122.071 254.941> 505 63<139.224 352.798> 510 68<139.51 204.36 208.345 251.899 255.315 353>
VStem: 306 77<90.8258 265.745>
DStem2: 72 300 121 355 0.116419 0.9932<60.3305 219.549>
LayerCount: 2
Fore
SplineSet
306 169 m 0
 306 272 254 323 192 323 c 0
 146 323 111 316 72 300 c 1
 104 573 l 1
 137 570 171 568 206 568 c 0
 256 568 308 572 362 578 c 1
 368 575 l 1
 353 510 l 1
 314 506 282 505 254 505 c 0
 209 505 175 509 140 513 c 1
 121 355 l 1
 142 363 178 370 217 370 c 0
 323 370 383 278 383 186 c 0
 383 74 304 -10 191 -10 c 0
 134 -10 51 22 51 61 c 0
 51 80 67 93 85 93 c 0
 105 93 118 78 130 62 c 0
 144 43 161 24 193 24 c 0
 257 24 306 82 306 169 c 0
EndSplineSet
AlternateSubs2: "'aalt' Alle Alternativen zeigen 1" five.oldstyle five.superior five.fitted
Substitution2: "'sups' Hochgestellte 1" five.superior
Substitution2: "'sinf' Wissenschaftliche Indices 1" five.inferior
Substitution2: "'pnum' Proportionalziffern 1" five.fitted
Substitution2: "'onum' Minuskelziffern 1" five.taboldstyle
EndChar

StartChar: six
Encoding: 54 54 15
Width: 440
VWidth: 487
Flags: HW
HStem: -10 29<190.531 283.625> 307 32<170.244 274.338> 552 26<309.619 376.808>
VStem: 44 75<103.494 306.795> 330 75<79.16 252.271>
LayerCount: 2
Fore
SplineSet
120 262 m 1
 119 252 119 237 119 227 c 0
 119 59 191 19 241 19 c 0
 287 19 330 60 330 164 c 0
 330 211 312 307 216 307 c 0
 195 307 160 305 120 262 c 1
379 552 m 1
 314 546 258 529 210 482 c 0
 164 437 134 370 123 290 c 1
 146 318 198 339 236 339 c 0
 384 339 405 217 405 171 c 0
 405 103 369 -10 231 -10 c 0
 158 -10 44 31 44 230 c 0
 44 322 78 412 147 481 c 0
 211 546 278 573 376 578 c 1
 379 552 l 1
EndSplineSet
AlternateSubs2: "'aalt' Alle Alternativen zeigen 1" six.oldstyle six.superior six.fitted
Substitution2: "'sups' Hochgestellte 1" six.superior
Substitution2: "'sinf' Wissenschaftliche Indices 1" six.inferior
Substitution2: "'pnum' Proportionalziffern 1" six.fitted
Substitution2: "'onum' Minuskelziffern 1" six.taboldstyle
EndChar

StartChar: seven
Encoding: 55 55 16
Width: 440
VWidth: 487
Flags: HMW
HStem: -12 21G<117 185> 439 21G<52 87.5> 509 59<101.327 330.284>
VStem: 52 26<441.192 470.989>
LayerCount: 2
Fore
SplineSet
162 509 m 2
 132 509 97 508 78 439 c 1
 52 442 l 1
 60 491 66 533 67 578 c 0
 67 580 69 581 71 581 c 0
 88 578 86 568 118 568 c 2
 313 568 l 2
 349 568 370 573 386 578 c 1
 401 567 l 1
 295 309 239 152 185 -9 c 1
 120 -12 l 1
 117 -6 l 1
 181 138 257 325 331 509 c 1
 162 509 l 2
EndSplineSet
AlternateSubs2: "'aalt' Alle Alternativen zeigen 1" seven.oldstyle seven.superior seven.fitted
Substitution2: "'sups' Hochgestellte 1" seven.superior
Substitution2: "'sinf' Wissenschaftliche Indices 1" seven.inferior
Substitution2: "'pnum' Proportionalziffern 1" seven.fitted
Substitution2: "'onum' Minuskelziffern 1" seven.taboldstyle
EndChar

StartChar: nine
Encoding: 57 57 17
Width: 440
VWidth: 487
Flags: HW
HStem: -10 26<59.1923 126.381> 229 32<161.662 265.756> 549 29<152.375 245.469>
VStem: 31 75<315.729 488.84> 317 75<261.205 464.506>
LayerCount: 2
Fore
SplineSet
316 306 m 1
 317 316 317 331 317 341 c 0
 317 509 245 549 195 549 c 0
 149 549 106 508 106 404 c 0
 106 357 124 261 220 261 c 0
 241 261 276 263 316 306 c 1
57 16 m 1
 122 22 178 39 226 86 c 0
 272 131 302 198 313 278 c 1
 290 250 238 229 200 229 c 0
 52 229 31 351 31 397 c 0
 31 465 67 578 205 578 c 0
 278 578 392 537 392 338 c 0
 392 246 358 156 289 87 c 0
 225 22 158 -5 60 -10 c 1
 57 16 l 1
EndSplineSet
AlternateSubs2: "'aalt' Alle Alternativen zeigen 1" nine.oldstyle nine.superior nine.fitted
Substitution2: "'sups' Hochgestellte 1" nine.superior
Substitution2: "'sinf' Wissenschaftliche Indices 1" nine.inferior
Substitution2: "'pnum' Proportionalziffern 1" nine.fitted
Substitution2: "'onum' Minuskelziffern 1" nine.taboldstyle
EndChar

StartChar: colon
Encoding: 58 58 18
Width: 220
VWidth: 999
Flags: HW
HStem: 39 106<74.6089 159.391> 302 106<74.6089 159.391>
VStem: 64 106<49.6089 134.391 312.609 397.391>
LayerCount: 2
Fore
SplineSet
64 355 m 0
 64 384 88 408 117 408 c 0
 146 408 170 384 170 355 c 0
 170 326 146 302 117 302 c 0
 88 302 64 326 64 355 c 0
64 92 m 0
 64 121 88 145 117 145 c 0
 146 145 170 121 170 92 c 0
 170 63 146 39 117 39 c 0
 88 39 64 63 64 92 c 0
EndSplineSet
EndChar

StartChar: less
Encoding: 60 60 19
Width: 487
VWidth: 999
Flags: HW
HStem: 73 331
DStem2: 49 263 122 239 0.940425 0.34<60.4911 397.706> 122 239 49 215 0.939653 -0.34213<0 337.557>
LayerCount: 2
Fore
SplineSet
122 239 m 1
 439 123 l 1
 439 73 l 1
 49 215 l 1
 49 263 l 1
 439 404 l 1
 439 354 l 1
 122 239 l 1
EndSplineSet
EndChar

StartChar: equal
Encoding: 61 61 20
Width: 527
VWidth: 999
Flags: HW
HStem: 144 49<66 461> 269 49<66 461>
LayerCount: 2
Fore
SplineSet
461 318 m 1
 461 269 l 1
 66 269 l 1
 66 318 l 1
 461 318 l 1
461 193 m 1
 461 144 l 1
 66 144 l 1
 66 193 l 1
 461 193 l 1
EndSplineSet
AlternateSubs2: "'aalt' Alle Alternativen zeigen 1" equal.superior
Substitution2: "'sinf' Wissenschaftliche Indices 1" equal.inferior
Substitution2: "'sups' Hochgestellte 1" equal.superior
EndChar

StartChar: greater
Encoding: 62 62 21
Width: 487
VWidth: 999
Flags: HW
HStem: 71 331
DStem2: 366 236 439 260 0.939653 -0.34213<-337.557 0> 439 212 366 236 0.940425 0.34<-397.706 -60.4911>
LayerCount: 2
Fore
SplineSet
366 236 m 1
 49 352 l 1
 49 402 l 1
 439 260 l 1
 439 212 l 1
 49 71 l 1
 49 121 l 1
 366 236 l 1
EndSplineSet
EndChar

StartChar: question
Encoding: 63 63 22
Width: 405
VWidth: 487
Flags: HMW
HStem: -12 106<138 223> 629 29<130 240>
VStem: 29 67<507 591> 127 106<-2 84> 294 74<435 580>
LayerCount: 2
Fore
SplineSet
97 572 m 0
 97 557 99 551 103 546 c 0
 107 541 109 535 109 522 c 0
 109 499 89 487 70 487 c 0
 54 487 29 495 29 530 c 0
 29 568 50 596 80 620 c 0
 109 645 151 659 204 659 c 0
 306 659 369 599 369 508 c 0
 369 429 310 385 263 351 c 0
 240 334 220 318 211 301 c 0
 198 276 193 252 193 228 c 2
 193 184 l 2
 193 177 188 174 180 174 c 0
 172 174 167 177 167 184 c 2
 167 230 l 2
 167 273 170 331 234 391 c 0
 274 428 294 457 294 504 c 0
 294 569 251 629 194 629 c 0
 137 629 97 602 97 572 c 0
127 43 m 0
 127 72 151 96 180 96 c 0
 209 96 233 72 233 43 c 0
 233 14 209 -10 180 -10 c 0
 151 -10 127 14 127 43 c 0
EndSplineSet
EndChar

StartChar: at
Encoding: 64 64 23
Width: 895
VWidth: 999
Flags: HMW
HStem: -158 33<366.698 569.227> 27 43<368.151 451.044> 27 35<536.5 668.322> 379 31<449.098 547.769> 581 30<366.475 546.302>
VStem: 59 80<106.897 345.058> 273 73<90.7683 252.641> 760 79<177.345 388.516>
LayerCount: 2
Fore
SplineSet
569 316 m 0
 569 354 540 379 504 379 c 0
 487 379 444 370 414 339 c 0
 363 288 346 224 346 162 c 0
 346 114 361 70 424 70 c 0
 459 70 508 127 539 200 c 0
 552 231 569 282 569 316 c 0
583 74 m 0
 583 64 592 62 594 62 c 0
 696 62 760 109 760 275 c 0
 760 481 584 581 459 581 c 0
 307 581 139 478 139 241 c 0
 139 91 215 -125 473 -125 c 0
 558 -125 620 -102 674 -59 c 1
 687 -77 l 1
 627 -123 567 -158 454 -158 c 0
 215 -158 59 10 59 223 c 0
 59 438 244 611 469 611 c 0
 684 611 839 469 839 282 c 0
 839 168 769 27 551 27 c 0
 522 27 515 52 515 68 c 0
 515 83 522 106 530 131 c 1
 528 132 l 1
 484 58 430 29 395 29 c 0
 295 29 273 113 273 153 c 0
 273 296 400 410 506 410 c 0
 539 410 573 393 583 367 c 1
 588 391 l 1
 641 404 l 1
 656 399 l 1
 596 141 l 2
 590 114 583 80 583 74 c 0
EndSplineSet
EndChar

StartChar: A
Encoding: 65 65 24
Width: 695
VWidth: 999
Flags: HW
HStem: -2 29<4 62.9309 192 227 438 472 669 687> 241 42<240.956 437> 638 20G<357.833 369.5>
DStem2: 106.983 102 152 79 0.392949 0.91956<-34.1684 182.05 227.745 482.534> 329.333 622.333 338 550 0.392949 0.91956<-557.738 -393.648 -342.945 -63.1089> 390 628 339 550 0.35377 -0.935333<54.9137 339.317 384.261 592.374>
AnchorPoint: "unten_punkt" 308 -108 basechar 0
AnchorPoint: "unten_anhang" 116 5 basechar 0
AnchorPoint: "top_akzent" 360 798 basechar 0
AnchorPoint: "top_punkt" 360 700 basechar 0
LayerCount: 2
Fore
SplineSet
263 283 m 2
 437 283 l 1
 339 550 l 1
 338 550 l 1
 238 296 l 2
 234 286 247 283 263 283 c 2
152 79 m 2
 142 54 155 32 192 29 c 2
 221 27 l 2
 225 27 229 24 229 19 c 2
 229 0 l 1
 227 -2 l 1
 227 -2 118 0 94 0 c 0
 68 0 4 -2 4 -2 c 1
 2 0 l 1
 2 19 l 2
 2 24 5 27 10 27 c 0
 54 30 79 38 107 102 c 2
 329 622 l 2
 338 643 352 658 364 658 c 0
 375 658 382 648 390 628 c 2
 595 86 l 2
 609 47 629 32 669 28 c 2
 680 27 l 2
 685 27 690 24 690 19 c 2
 690 0 l 1
 687 -2 l 1
 687 -2 610 0 571 0 c 0
 536 0 438 -2 438 -2 c 1
 437 0 l 1
 437 19 l 2
 437 24 439 27 444 27 c 2
 472 29 l 2
 510 32 524 44 514 72 c 2
 453 241 l 1
 245 241 l 2
 221 241 215 237 210 224 c 2
 152 79 l 2
EndSplineSet
Position2: "'cpsp' Versalabstaende 1" dx=2 dy=0 dh=5 dv=0
Substitution2: "'c2sc' Versale nach Kapitaelchen 1" a.sc
EndChar

StartChar: B
Encoding: 66 66 25
Width: 582
VWidth: 999
Flags: HW
HStem: -2 34<19 54 194.805 379.143> 332 34<187 348.649> 612 34<19 54 190.534 342.72>
VStem: 106 81<39.6512 332 366 607.096> 405 77<424.289 558.778> 452 89<97.5427 251.316>
AnchorPoint: "unten_punkt" 268 -108 basechar 0
AnchorPoint: "unten_anhang" 250 0 basechar 0
AnchorPoint: "top_punkt" 282 700 basechar 0
AnchorPoint: "top_akzent" 281 798 basechar 0
LayerCount: 2
Fore
SplineSet
187 569 m 2
 187 366 l 1
 261 366 l 2
 344 366 405 396 405 481 c 0
 405 583 330 612 274 612 c 0
 187 612 187 602 187 569 c 2
187 332 m 1
 187 78 l 2
 187 45 200 32 270 32 c 0
 422 32 452 92 452 165 c 0
 452 255 393 332 276 332 c 2
 187 332 l 1
17 19 m 2
 17 24 19 27 24 27 c 2
 54 29 l 2
 96 32 106 36 106 71 c 2
 106 574 l 2
 106 608 97 613 54 616 c 2
 24 618 l 2
 19 618 17 621 17 625 c 2
 17 645 l 1
 19 646 l 1
 19 646 96 645 146 645 c 0
 193 645 232 646 267 646 c 0
 453 646 482 560 482 493 c 0
 482 438 440 385 389 360 c 1
 476 335 541 280 541 184 c 0
 541 98 488 -2 289 -2 c 0
 200 -2 202 0 146 0 c 0
 96 0 19 -2 19 -2 c 1
 17 0 l 1
 17 19 l 2
EndSplineSet
Position2: "'cpsp' Versalabstaende 1" dx=2 dy=0 dh=5 dv=0
Substitution2: "'c2sc' Versale nach Kapitaelchen 1" b.sc
EndChar

StartChar: C
Encoding: 67 67 26
Width: 644
VWidth: 999
Flags: HMW
HStem: -12 42<270 460> 621 37<278 443>
VStem: 37 87<204 436>
AnchorPoint: "unten_punkt" 363 -110 basechar 0
AnchorPoint: "unten_anhang" 356 -7 basechar 0
AnchorPoint: "top_punkt" 360 700 basechar 0
AnchorPoint: "top_akzent" 360 798 basechar 0
LayerCount: 2
Fore
SplineSet
355 -10 m 0
 140 -10 37 154 37 315 c 0
 37 512 190 658 356 658 c 0
 479 658 518 616 575 613 c 1
 579 559 587 510 597 458 c 1
 567 454 l 1
 541 540 483 621 345 621 c 0
 266 621 124 537 124 334 c 0
 124 188 199 31 354 31 c 0
 447 31 515 62 586 140 c 1
 609 125 l 1
 541 36 452 -10 355 -10 c 0
EndSplineSet
Position2: "'cpsp' Versalabstaende 1" dx=2 dy=0 dh=5 dv=0
Substitution2: "'c2sc' Versale nach Kapitaelchen 1" c.sc
EndChar

StartChar: D
Encoding: 68 68 27
Width: 697
VWidth: 999
Flags: HW
HStem: -2 34<19 54 192.542 414.496> 612 34<19 54 194.015 370.214>
VStem: 106 81<38.9214 605.112> 562 92<179.249 418.757>
AnchorPoint: "unten_punkt" 279 -107 basechar 0
AnchorPoint: "unten_anhang" 279 4 basechar 0
AnchorPoint: "top_punkt" 306 700 basechar 0
AnchorPoint: "top_akzent" 306 798 basechar 0
LayerCount: 2
Fore
SplineSet
17 18 m 2
 17 23 20 27 24 27 c 2
 54 29 l 2
 89 31 106 42 106 74 c 2
 106 572 l 2
 106 608 95 613 54 616 c 2
 26 618 l 2
 21 618 17 621 17 626 c 2
 17 644 l 1
 19 646 l 1
 68 646 96 645 145 645 c 0
 209 645 245 646 309 646 c 0
 501 646 654 494 654 308 c 0
 654 62 468 -2 327 -2 c 0
 224 -2 216 0 145 0 c 0
 96 0 63 0 19 -2 c 1
 17 0 l 1
 17 18 l 2
187 72 m 2
 187 40 198 32 296 32 c 0
 437 32 562 82 562 284 c 0
 562 438 487 612 271 612 c 0
 222 612 187 609 187 574 c 2
 187 72 l 2
EndSplineSet
Position2: "'cpsp' Versalabstaende 1" dx=2 dy=0 dh=5 dv=0
Substitution2: "'c2sc' Versale nach Kapitaelchen 1" d.sc
EndChar

StartChar: E
Encoding: 69 69 28
Width: 549
VWidth: 999
Flags: HW
HStem: -2 29<14 50> 0 39<183.683 419.99> 323 38<182 352.245> 416 20G<367 392.5> 605 40<183.485 390.274> 618 28<14 50>
VStem: 101 81<40.3443 323 361 603.225> 361 34<252 316.054 403 436> 438 29<499.793 534.346> 489 31<128.12 166.129>
AnchorPoint: "unten_anhang" 279 4 basechar 0
AnchorPoint: "unten_punkt" 279 -107 basechar 0
AnchorPoint: "top_punkt" 280 700 basechar 0
AnchorPoint: "top_akzent" 283 805 basechar 0
LayerCount: 2
Fore
SplineSet
445 646 m 0
 447 638 462 542 467 501 c 1
 438 496 l 1
 416 565 398 605 323 605 c 2
 218 605 l 2
 194 605 182 597 182 573 c 2
 182 361 l 1
 309 361 l 2
 344 361 356 375 359 403 c 2
 362 428 l 2
 362 432 365 436 369 436 c 2
 391 436 l 2
 394 436 395 434 395 432 c 2
 395 432 391 379 391 346 c 0
 391 312 395 255 395 255 c 1
 392 252 l 1
 369 252 l 2
 364 252 361 256 361 259 c 2
 359 285 l 2
 357 314 343 323 309 323 c 2
 182 323 l 1
 182 72 l 2
 182 45 196 39 218 39 c 2
 354 39 l 2
 430 39 469 98 489 170 c 1
 520 165 l 1
 508 113 494 50 483 -2 c 1
 483 -2 403 0 355 0 c 2
 142 0 l 1
 14 -2 l 1
 12 0 l 1
 12 20 l 2
 12 23 14 27 20 27 c 2
 50 29 l 2
 89 32 101 44 101 72 c 2
 101 573 l 2
 101 604 88 613 50 616 c 2
 20 618 l 2
 13 618 12 622 12 625 c 2
 12 645 l 1
 14 646 l 1
 14 646 115 645 142 645 c 2
 394 645 l 2
 418 645 424 646 441 649 c 0
 444 649 445 648 445 646 c 0
EndSplineSet
Position2: "'cpsp' Versalabstaende 1" dx=2 dy=0 dh=5 dv=0
Substitution2: "'c2sc' Versale nach Kapitaelchen 1" e.sc
EndChar

StartChar: F
Encoding: 70 70 29
Width: 477
VWidth: 999
Flags: HW
HStem: -2 29<15 91.5969 191.451 270> 323 38<182 352.245> 416 20G<367 392.5> 605 40<183.485 390.274> 618 28<14 50>
VStem: 101 81<32.7827 323 361 603.225> 361 34<252 316.054 403 436> 438 29<499.793 534.346>
AnchorPoint: "unten_anhang" 145 -1 basechar 0
AnchorPoint: "unten_punkt" 201 -111 basechar 0
AnchorPoint: "top_punkt" 287 700 basechar 0
AnchorPoint: "top_akzent" 286 798 basechar 0
LayerCount: 2
Fore
SplineSet
101 573 m 2
 101 604 88 613 50 616 c 2
 20 618 l 2
 13 618 12 622 12 625 c 2
 12 645 l 1
 14 646 l 1
 14 646 115 645 142 645 c 2
 394 645 l 2
 418 645 424 646 441 649 c 0
 444 649 445 648 445 646 c 0
 447 638 462 542 467 501 c 1
 438 496 l 1
 416 565 398 605 323 605 c 2
 218 605 l 2
 194 605 182 597 182 573 c 2
 182 361 l 1
 309 361 l 2
 344 361 356 375 359 403 c 2
 362 428 l 2
 362 432 365 436 369 436 c 2
 391 436 l 2
 394 436 395 434 395 432 c 2
 395 432 391 377 391 344 c 0
 391 310 395 255 395 255 c 1
 392 252 l 1
 369 252 l 2
 364 252 361 256 361 259 c 2
 359 285 l 2
 357 314 343 323 309 323 c 2
 182 323 l 1
 182 72 l 2
 182 41 197 27 237 27 c 2
 263 27 l 2
 268 27 271 24 271 19 c 2
 271 0 l 1
 270 -2 l 1
 270 -2 193 0 144 0 c 0
 94 0 15 -2 15 -2 c 1
 13 0 l 1
 13 19 l 2
 13 24 16 27 21 27 c 2
 47 27 l 2
 88 27 101 44 101 72 c 2
 101 573 l 2
EndSplineSet
Position2: "'cpsp' Versalabstaende 1" dx=2 dy=0 dh=5 dv=0
Substitution2: "'c2sc' Versale nach Kapitaelchen 1" f.sc
EndChar

StartChar: G
Encoding: 71 71 30
Width: 693
VWidth: 999
Flags: HW
HStem: -10 36<299.692 489.453> 271 36<453 485 626.062 672> 621 37<278.364 463.377>
VStem: 32 87<215.673 431.42> 540 81<83.4212 262.951> 585 30<457.6 492.683>
AnchorPoint: "unten_anhang" 365 2 basechar 0
AnchorPoint: "unten_punkt" 365 -111 basechar 0
AnchorPoint: "top_punkt" 363 700 basechar 0
AnchorPoint: "top_akzent" 363 798 basechar 0
LayerCount: 2
Fore
SplineSet
375 658 m 0
 497 658 533 613 593 613 c 1
 600 541 606 501 615 459 c 1
 585 453 l 1
 559 539 506 621 361 621 c 0
 226 621 119 502 119 327 c 0
 119 195 215 26 393 26 c 0
 447 26 506 42 540 74 c 1
 540 227 l 2
 540 258 525 266 485 269 c 2
 459 271 l 2
 455 271 451 274 451 279 c 2
 451 305 l 1
 453 307 l 1
 453 307 540 305 579 305 c 0
 614 305 672 307 672 307 c 1
 674 305 l 1
 674 279 l 2
 674 274 671 272 666 271 c 0
 637 268 621 262 621 227 c 2
 621 111 l 2
 621 100 626 92 637 83 c 1
 569 25 488 -10 370 -10 c 0
 169 -10 32 134 32 307 c 0
 32 527 203 658 375 658 c 0
EndSplineSet
Position2: "'cpsp' Versalabstaende 1" dx=2 dy=0 dh=5 dv=0
Substitution2: "'c2sc' Versale nach Kapitaelchen 1" g.sc
EndChar

StartChar: grave
Encoding: 96 96 31
Width: 392
VWidth: 999
Flags: HW
LayerCount: 2
Fore
SplineSet
178 699 m 1
 248 573 l 2
 253 563 254 556 254 549 c 0
 254 544 247 538 239 538 c 0
 233 538 226 543 210 558 c 2
 96 667 l 1
 98 678 l 1
 106 684 129 701 163 701 c 0
 168 701 174 700 178 699 c 1
EndSplineSet
Substitution2: "'case' Versalformen 1" grave.cap
EndChar

StartChar: ograve
Encoding: 242 242 32
Width: 484
VWidth: 999
Flags: HW
HStem: -10 33<205.005 309.227> 406 33<180.317 289.2>
VStem: 36 85<119.996 319.458> 363 85<113.472 321.738>
LayerCount: 2
Fore
SplineSet
224 671 m 1
 294 545 l 2
 299 535 300 528 300 521 c 0
 300 516 293 510 285 510 c 0
 279 510 272 515 256 530 c 2
 142 639 l 1
 144 650 l 1
 152 656 175 673 209 673 c 0
 214 673 220 672 224 671 c 1
36 205 m 0
 36 342 110 439 243 439 c 0
 391 439 448 318 448 214 c 0
 448 114 383 -10 241 -10 c 0
 107 -10 36 103 36 205 c 0
232 406 m 0
 152 406 121 315 121 228 c 0
 121 151 159 23 258 23 c 0
 303 23 363 50 363 182 c 0
 363 329 314 406 232 406 c 0
EndSplineSet
Substitution2: "'smcp' Gemeine nach Kapitaelchen 1" ograve.sc
AlternateSubs2: "'aalt' Alle Alternativen zeigen 1" ograve.sc
EndChar

StartChar: oacute
Encoding: 243 243 33
Width: 484
VWidth: 999
Flags: HW
HStem: -10 33<205.005 309.227> 406 33<180.317 289.2> 656 17
VStem: 36 85<119.996 319.458> 363 85<113.472 321.738>
LayerCount: 2
Fore
SplineSet
270 671 m 1
 273 672 279 673 284 673 c 0
 312 673 325 662 333 654 c 0
 336 652 338 651 339 650 c 1
 342 639 l 1
 227 530 l 2
 212 515 205 510 198 510 c 0
 191 510 184 516 184 523 c 0
 184 528 184 535 190 545 c 2
 270 671 l 1
36 205 m 0
 36 342 110 439 243 439 c 0
 391 439 448 318 448 214 c 0
 448 114 383 -10 241 -10 c 0
 107 -10 36 103 36 205 c 0
232 406 m 0
 152 406 121 315 121 228 c 0
 121 151 159 23 258 23 c 0
 303 23 363 50 363 182 c 0
 363 329 314 406 232 406 c 0
EndSplineSet
Substitution2: "'smcp' Gemeine nach Kapitaelchen 1" oacute.sc
AlternateSubs2: "'aalt' Alle Alternativen zeigen 1" oacute.sc
EndChar

StartChar: ocircumflex
Encoding: 244 244 34
Width: 484
VWidth: 999
Flags: HW
HStem: -10 33<205.005 309.227> 406 33<180.317 289.2>
VStem: 36 85<119.996 319.458> 115 253<517 517> 363 85<113.472 321.738>
LayerCount: 2
Fore
SplineSet
267 646 m 1
 296 599 332 557 368 517 c 1
 347 503 l 1
 308 532 275 557 241 593 c 1
 204 555 172 530 134 503 c 1
 114 517 l 1
 150 557 188 600 217 646 c 1
 267 646 l 1
36 205 m 0
 36 342 110 439 243 439 c 0
 391 439 448 318 448 214 c 0
 448 114 383 -10 241 -10 c 0
 107 -10 36 103 36 205 c 0
232 406 m 0
 152 406 121 315 121 228 c 0
 121 151 159 23 258 23 c 0
 303 23 363 50 363 182 c 0
 363 329 314 406 232 406 c 0
EndSplineSet
Substitution2: "'smcp' Gemeine nach Kapitaelchen 1" ocircumflex.sc
AlternateSubs2: "'aalt' Alle Alternativen zeigen 1" ocircumflex.sc
EndChar

StartChar: otilde
Encoding: 245 245 35
Width: 484
VWidth: 999
Flags: HW
HStem: -10 33<205.005 309.227> 406 33<180.317 289.2> 526 44<253 340> 574 46<135 226> 613 10
VStem: 36 85<119.996 319.458> 363 85<113.472 321.738>
LayerCount: 2
Fore
SplineSet
304 570 m 0
 326 570 340 580 354 622 c 1
 378 616 l 1
 366 556 337 526 291 526 c 0
 269 526 248 538 227 552 c 0
 209 563 190 574 173 574 c 0
 147 574 134 559 124 526 c 1
 100 531 l 1
 114 590 137 620 180 620 c 0
 210 620 232 606 252 592 c 0
 268 580 285 570 304 570 c 0
36 205 m 0
 36 342 110 439 243 439 c 0
 391 439 448 318 448 214 c 0
 448 114 383 -10 241 -10 c 0
 107 -10 36 103 36 205 c 0
232 406 m 0
 152 406 121 315 121 228 c 0
 121 151 159 23 258 23 c 0
 303 23 363 50 363 182 c 0
 363 329 314 406 232 406 c 0
EndSplineSet
Substitution2: "'smcp' Gemeine nach Kapitaelchen 1" otilde.sc
AlternateSubs2: "'aalt' Alle Alternativen zeigen 1" otilde.sc
EndChar

StartChar: odieresis
Encoding: 246 246 36
Width: 484
VWidth: 999
Flags: HW
HStem: -10 33<205.005 309.227> 406 33<180.317 289.2> 527 91<124.053 200.653 284.347 360.947>
VStem: 36 85<119.996 319.458> 117 91<534.347 610.947> 277 91<534.347 610.947> 363 85<113.472 321.738>
LayerCount: 2
Fore
SplineSet
277 573 m 0
 277 598 298 618 323 618 c 0
 348 618 368 598 368 573 c 0
 368 548 348 527 323 527 c 0
 298 527 277 548 277 573 c 0
117 573 m 0
 117 598 137 618 162 618 c 0
 187 618 208 598 208 573 c 0
 208 548 187 527 162 527 c 0
 137 527 117 548 117 573 c 0
36 205 m 0
 36 342 110 439 243 439 c 0
 391 439 448 318 448 214 c 0
 448 114 383 -10 241 -10 c 0
 107 -10 36 103 36 205 c 0
232 406 m 0
 152 406 121 315 121 228 c 0
 121 151 159 23 258 23 c 0
 303 23 363 50 363 182 c 0
 363 329 314 406 232 406 c 0
EndSplineSet
Substitution2: "'smcp' Gemeine nach Kapitaelchen 1" odieresis.sc
AlternateSubs2: "'aalt' Alle Alternativen zeigen 1" odieresis.sc
EndChar

StartChar: divide
Encoding: 247 247 37
Width: 527
VWidth: 999
Flags: HW
HStem: 51 89<230 301> 208 49<66 461> 320 89<230 301>
VStem: 66 396 221 89<60 132> 221 89<329 400>
LayerCount: 2
Fore
SplineSet
221 366 m 0
 221 390 241 410 265 410 c 0
 290 410 310 390 310 366 c 0
 310 342 290 322 265 322 c 0
 241 322 221 342 221 366 c 0
221 98 m 0
 221 122 241 142 265 142 c 0
 290 142 310 122 310 98 c 0
 310 74 290 54 265 54 c 0
 241 54 221 74 221 98 c 0
461 257 m 1
 461 208 l 1
 66 208 l 1
 66 257 l 1
 461 257 l 1
EndSplineSet
EndChar

StartChar: ugrave
Encoding: 249 249 38
Width: 517
VWidth: 999
Flags: HW
HStem: -10 45<187.687 290.565> 402 29<28 44 293 309>
VStem: 88 75<61.0204 394.9> 353 75<82.098 394.9>
LayerCount: 2
Fore
SplineSet
219 671 m 1
 289 545 l 2
 294 535 295 528 295 521 c 0
 295 516 288 510 280 510 c 0
 274 510 267 515 251 530 c 2
 137 639 l 1
 139 650 l 1
 147 656 170 673 204 673 c 0
 209 673 215 672 219 671 c 1
353 352 m 2
 353 385 344 396 309 400 c 2
 293 402 l 1
 290 404 l 1
 290 429 l 1
 293 431 l 1
 293 431 360 429 392 429 c 0
 407 429 425 431 425 431 c 2
 427 431 429 431 429 429 c 2
 428 352 l 1
 428 116 l 2
 428 66 432 60 453 58 c 2
 501 53 l 1
 504 30 l 1
 442 19 398 6 376 -12 c 1
 353 -12 l 1
 355 64 l 1
 353 64 l 1
 297 4 254 -10 213 -10 c 0
 114 -10 88 57 88 126 c 2
 88 352 l 2
 88 385 79 396 44 400 c 2
 28 402 l 1
 25 404 l 1
 25 429 l 1
 28 431 l 1
 28 431 95 429 127 429 c 0
 142 429 160 431 160 431 c 2
 162 431 164 431 164 429 c 2
 163 352 l 1
 163 140 l 2
 163 51 209 35 239 35 c 0
 262 35 283 44 303 59 c 0
 327 77 342 91 353 104 c 1
 353 352 l 2
EndSplineSet
Substitution2: "'smcp' Gemeine nach Kapitaelchen 1" ugrave.sc
AlternateSubs2: "'aalt' Alle Alternativen zeigen 1" ugrave.sc
EndChar

StartChar: uacute
Encoding: 250 250 39
Width: 517
VWidth: 999
Flags: HW
HStem: -10 45<187.687 290.565> 402 29<28 44 293 309> 656 17
VStem: 88 75<61.0204 394.9> 353 75<82.098 394.9>
LayerCount: 2
Fore
SplineSet
297 671 m 1
 300 672 306 673 311 673 c 0
 339 673 352 662 360 654 c 0
 363 652 365 651 366 650 c 1
 369 639 l 1
 254 530 l 2
 239 515 232 510 225 510 c 0
 218 510 211 516 211 523 c 0
 211 528 211 535 217 545 c 2
 297 671 l 1
353 352 m 2
 353 385 344 396 309 400 c 2
 293 402 l 1
 290 404 l 1
 290 429 l 1
 293 431 l 1
 293 431 360 429 392 429 c 0
 407 429 425 431 425 431 c 2
 427 431 429 431 429 429 c 2
 428 352 l 1
 428 116 l 2
 428 66 432 60 453 58 c 2
 501 53 l 1
 504 30 l 1
 442 19 398 6 376 -12 c 1
 353 -12 l 1
 355 64 l 1
 353 64 l 1
 297 4 254 -10 213 -10 c 0
 114 -10 88 57 88 126 c 2
 88 352 l 2
 88 385 79 396 44 400 c 2
 28 402 l 1
 25 404 l 1
 25 429 l 1
 28 431 l 1
 28 431 95 429 127 429 c 0
 142 429 160 431 160 431 c 2
 162 431 164 431 164 429 c 2
 163 352 l 1
 163 140 l 2
 163 51 209 35 239 35 c 0
 262 35 283 44 303 59 c 0
 327 77 342 91 353 104 c 1
 353 352 l 2
EndSplineSet
Substitution2: "'smcp' Gemeine nach Kapitaelchen 1" uacute.sc
AlternateSubs2: "'aalt' Alle Alternativen zeigen 1" uacute.sc
EndChar

StartChar: ucircumflex
Encoding: 251 251 40
Width: 517
VWidth: 999
Flags: HW
HStem: -10 45<187.687 290.565> 402 29<28 44 293 309>
VStem: 88 75<61.0204 394.9> 120 253<517 517> 353 75<82.098 394.9>
LayerCount: 2
Fore
SplineSet
272 646 m 1
 301 599 337 557 373 517 c 1
 352 503 l 1
 313 532 280 557 246 593 c 1
 209 555 177 530 139 503 c 1
 119 517 l 1
 155 557 193 600 222 646 c 1
 272 646 l 1
353 352 m 2
 353 385 344 396 309 400 c 2
 293 402 l 1
 290 404 l 1
 290 429 l 1
 293 431 l 1
 293 431 360 429 392 429 c 0
 407 429 425 431 425 431 c 2
 427 431 429 431 429 429 c 2
 428 352 l 1
 428 116 l 2
 428 66 432 60 453 58 c 2
 501 53 l 1
 504 30 l 1
 442 19 398 6 376 -12 c 1
 353 -12 l 1
 355 64 l 1
 353 64 l 1
 297 4 254 -10 213 -10 c 0
 114 -10 88 57 88 126 c 2
 88 352 l 2
 88 385 79 396 44 400 c 2
 28 402 l 1
 25 404 l 1
 25 429 l 1
 28 431 l 1
 28 431 95 429 127 429 c 0
 142 429 160 431 160 431 c 2
 162 431 164 431 164 429 c 2
 163 352 l 1
 163 140 l 2
 163 51 209 35 239 35 c 0
 262 35 283 44 303 59 c 0
 327 77 342 91 353 104 c 1
 353 352 l 2
EndSplineSet
Substitution2: "'smcp' Gemeine nach Kapitaelchen 1" ucircumflex.sc
AlternateSubs2: "'aalt' Alle Alternativen zeigen 1" ucircumflex.sc
EndChar

StartChar: ebreve
Encoding: 277 277 41
Width: 427
VWidth: 999
Flags: HW
HStem: -10 49<195.372 321.672> 248 39<117 314.997> 405 34<173.337 282.104> 501 57<158.968 295.898>
VStem: 34 80<137.009 248> 93 26<607.805 639.769> 315 80<259.5 367.016> 336 27<609.333 639.63>
LayerCount: 2
Fore
SplineSet
119 650 m 1
 121 598 168 558 228 558 c 0
 274 558 334 588 336 650 c 1
 363 636 l 1
 353 535 278 501 228 501 c 0
 151 501 100 558 93 636 c 1
 119 650 l 1
117 287 m 1
 301 287 l 2
 311 287 315 292 315 301 c 0
 315 385 268 405 232 405 c 0
 209 405 135 400 117 287 c 1
381 95 m 1
 401 79 l 1
 363 27 304 -10 232 -10 c 0
 95 -10 34 84 34 199 c 0
 34 351 137 439 232 439 c 0
 364 439 395 349 395 265 c 0
 395 254 388 248 377 248 c 2
 114 248 l 1
 114 99 200 39 256 39 c 0
 311 39 346 57 381 95 c 1
EndSplineSet
EndChar

StartChar: Edotaccent
Encoding: 278 278 42
Width: 549
VWidth: 999
Flags: HW
HStem: -2 29<14 50> 0 39<183.683 419.99> 323 38<182 352.245> 416 20<367 392.5> 605 40<183.485 390.274> 618 28<14 50> 693 95<239.44 320.312>
VStem: 101 81<40.3443 323 361 603.225> 232 96<701.016 779.932> 361 34<252 316.054 403 436> 438 29<499.793 534.346> 489 31<128.12 166.129>
LayerCount: 2
Fore
SplineSet
232 740 m 0
 232 767 253 788 280 788 c 0
 306 788 328 767 328 740 c 0
 328 714 306 693 280 693 c 0
 253 693 232 714 232 740 c 0
445 646 m 0
 447 638 462 542 467 501 c 1
 438 496 l 1
 416 565 398 605 323 605 c 2
 218 605 l 2
 194 605 182 597 182 573 c 2
 182 361 l 1
 309 361 l 2
 344 361 356 375 359 403 c 2
 362 428 l 2
 362 432 365 436 369 436 c 2
 391 436 l 2
 394 436 395 434 395 432 c 2
 395 432 391 379 391 346 c 0
 391 312 395 255 395 255 c 1
 392 252 l 1
 369 252 l 2
 364 252 361 256 361 259 c 2
 359 285 l 2
 357 314 343 323 309 323 c 2
 182 323 l 1
 182 72 l 2
 182 45 196 39 218 39 c 2
 354 39 l 2
 430 39 469 98 489 170 c 1
 520 165 l 1
 508 113 494 50 483 -2 c 1
 483 -2 403 0 355 0 c 2
 142 0 l 1
 14 -2 l 1
 12 0 l 1
 12 20 l 2
 12 23 14 27 20 27 c 2
 50 29 l 2
 89 32 101 44 101 72 c 2
 101 573 l 2
 101 604 88 613 50 616 c 2
 20 618 l 2
 13 618 12 622 12 625 c 2
 12 645 l 1
 14 646 l 1
 14 646 115 645 142 645 c 2
 394 645 l 2
 418 645 424 646 441 649 c 0
 444 649 445 648 445 646 c 0
EndSplineSet
Position2: "'cpsp' Versalabstaende 1" dx=2 dy=0 dh=5 dv=0
EndChar

StartChar: edotaccent
Encoding: 279 279 43
Width: 427
VWidth: 999
Flags: HW
HStem: -10 49<195.372 321.672> 248 39<117 314.997> 405 34<173.337 282.104> 524 95<189.44 270.312>
VStem: 34 80<137.009 248> 182 96<532.016 610.932> 315 80<259.5 367.016>
LayerCount: 2
Fore
SplineSet
182 571 m 0
 182 598 203 619 230 619 c 0
 256 619 278 598 278 571 c 0
 278 545 256 524 230 524 c 0
 203 524 182 545 182 571 c 0
117 287 m 1
 301 287 l 2
 311 287 315 292 315 301 c 0
 315 385 268 405 232 405 c 0
 209 405 135 400 117 287 c 1
381 95 m 1
 401 79 l 1
 363 27 304 -10 232 -10 c 0
 95 -10 34 84 34 199 c 0
 34 351 137 439 232 439 c 0
 364 439 395 349 395 265 c 0
 395 254 388 248 377 248 c 2
 114 248 l 1
 114 99 200 39 256 39 c 0
 311 39 346 57 381 95 c 1
EndSplineSet
EndChar

StartChar: Eogonek
Encoding: 280 280 44
Width: 549
VWidth: 999
Flags: HW
HStem: -224 40<383 473> -2 29<14 97> 0 25<436 485> 0 39<183 449> 327 34<182 361> 605 39<183 418> 618 29<14 98>
VStem: 102 81<40 327 361 604> 311 60<-173 -74> 375 34<248 283 405 442>
LayerCount: 2
Fore
SplineSet
404 -224 m 0
 351 -224 311 -193 311 -139 c 0
 311 -92 351 -34 410 -1 c 1
 391 -0 371 0 355 0 c 2
 142 0 l 1
 14 -2 l 1
 12 0 l 1
 12 20 l 2
 12 23 14 27 20 27 c 2
 50 29 l 2
 89 32 101 44 101 72 c 2
 101 573 l 2
 101 604 88 613 50 616 c 2
 20 618 l 2
 13 618 12 622 12 625 c 2
 12 645 l 1
 14 646 l 1
 14 646 115 645 142 645 c 2
 394 645 l 2
 418 645 424 646 441 649 c 0
 444 649 445 648 445 646 c 0
 447 638 462 542 467 501 c 1
 438 496 l 1
 416 565 398 605 323 605 c 2
 218 605 l 2
 194 605 182 597 182 573 c 2
 182 361 l 1
 309 361 l 2
 344 361 356 375 359 403 c 2
 362 428 l 2
 362 432 365 436 369 436 c 2
 391 436 l 2
 394 436 395 434 395 432 c 2
 395 432 391 379 391 346 c 0
 391 312 395 255 395 255 c 1
 392 252 l 1
 369 252 l 2
 364 252 361 256 361 259 c 2
 359 285 l 2
 357 314 343 323 309 323 c 2
 182 323 l 1
 182 72 l 2
 182 45 196 39 218 39 c 2
 354 39 l 2
 430 39 469 98 489 170 c 1
 520 165 l 1
 510 121 498 68 488 22 c 1
 506 0 l 1
 426 0 371 -75 371 -126 c 0
 371 -158 393 -185 429 -185 c 0
 459 -185 479 -170 499 -149 c 1
 514 -157 l 1
 490 -204 440 -224 404 -224 c 0
EndSplineSet
Position2: "'cpsp' Versalabstaende 1" dx=2 dy=0 dh=5 dv=0
Substitution2: "'c2sc' Versale nach Kapitaelchen 1" eogonek.sc
EndChar

StartChar: eogonek
Encoding: 281 281 45
Width: 427
VWidth: 999
Flags: HW
HStem: -214 38<267.124 350.226> -10 49<195.372 321.672> 248 39<117 314.997> 405 34<173.337 282.104>
VStem: 34 80<137.009 248> 193 60<-164.209 -65.2215> 315 80<259.5 367.016>
LayerCount: 2
Fore
SplineSet
117 287 m 1
 301 287 l 2
 311 287 315 292 315 301 c 0
 315 385 268 405 232 405 c 0
 209 405 135 400 117 287 c 1
381 95 m 1
 401 79 l 1
 388 61 372 45 354 31 c 1
 354 31 l 1
 309 -10 257 -58 257 -124 c 0
 257 -150 280 -176 317 -176 c 0
 346 -176 362 -162 384 -140 c 1
 400 -147 l 1
 371 -192 334 -214 293 -214 c 0
 239 -214 197 -185 197 -130 c 0
 197 -86 229 -43 268 -7 c 1
 256 -9 244 -10 232 -10 c 0
 95 -10 34 84 34 199 c 0
 34 351 137 439 232 439 c 0
 364 439 395 349 395 265 c 0
 395 254 388 248 377 248 c 2
 114 248 l 1
 114 99 200 39 256 39 c 0
 311 39 346 57 381 95 c 1
EndSplineSet
AlternateSubs2: "'aalt' Alle Alternativen zeigen 1" eogonek.sc
Substitution2: "'smcp' Gemeine nach Kapitaelchen 1" eogonek.sc
EndChar

StartChar: Ecaron
Encoding: 282 282 46
Width: 549
VWidth: 999
Flags: HW
HStem: -2 29<14 50> 0 39<183.683 419.99> 323 38<182 352.245> 416 20<367 392.5> 605 40<183.485 390.274> 618 28<14 50>
VStem: 101 81<40.3443 323 361 603.225> 361 34<252 316.054 403 436> 438 29<499.793 534.346> 489 31<128.12 166.129>
LayerCount: 2
Fore
SplineSet
268 697 m 1
 238 734 203 764 167 792 c 1
 183 812 l 1
 222 795 256 776 289 751 c 1
 326 777 358 796 396 812 c 1
 411 792 l 1
 373 763 341 731 311 697 c 1
 268 697 l 1
445 646 m 0
 447 638 462 542 467 501 c 1
 438 496 l 1
 416 565 398 605 323 605 c 2
 218 605 l 2
 194 605 182 597 182 573 c 2
 182 361 l 1
 309 361 l 2
 344 361 356 375 359 403 c 2
 362 428 l 2
 362 432 365 436 369 436 c 2
 391 436 l 2
 394 436 395 434 395 432 c 2
 395 432 391 379 391 346 c 0
 391 312 395 255 395 255 c 1
 392 252 l 1
 369 252 l 2
 364 252 361 256 361 259 c 2
 359 285 l 2
 357 314 343 323 309 323 c 2
 182 323 l 1
 182 72 l 2
 182 45 196 39 218 39 c 2
 354 39 l 2
 430 39 469 98 489 170 c 1
 520 165 l 1
 508 113 494 50 483 -2 c 1
 483 -2 403 0 355 0 c 2
 142 0 l 1
 14 -2 l 1
 12 0 l 1
 12 20 l 2
 12 23 14 27 20 27 c 2
 50 29 l 2
 89 32 101 44 101 72 c 2
 101 573 l 2
 101 604 88 613 50 616 c 2
 20 618 l 2
 13 618 12 622 12 625 c 2
 12 645 l 1
 14 646 l 1
 14 646 115 645 142 645 c 2
 394 645 l 2
 418 645 424 646 441 649 c 0
 444 649 445 648 445 646 c 0
EndSplineSet
Position2: "'cpsp' Versalabstaende 1" dx=2 dy=0 dh=5 dv=0
Substitution2: "'c2sc' Versale nach Kapitaelchen 1" ecaron.sc
EndChar

StartChar: ecaron
Encoding: 283 283 47
Width: 427
VWidth: 999
Flags: HW
HStem: -10 49<195.372 321.672> 248 39<117 314.997> 405 34<173.337 282.104>
VStem: 34 80<137.009 248> 315 80<259.5 367.016>
LayerCount: 2
Fore
SplineSet
199 501 m 1
 170 548 133 593 98 631 c 1
 118 644 l 1
 157 615 190 590 224 554 c 1
 261 592 295 617 332 644 c 1
 351 631 l 1
 316 592 278 547 249 501 c 1
 199 501 l 1
117 287 m 1
 301 287 l 2
 311 287 315 292 315 301 c 0
 315 385 268 405 232 405 c 0
 209 405 135 400 117 287 c 1
381 95 m 1
 401 79 l 1
 363 27 304 -10 232 -10 c 0
 95 -10 34 84 34 199 c 0
 34 351 137 439 232 439 c 0
 364 439 395 349 395 265 c 0
 395 254 388 248 377 248 c 2
 114 248 l 1
 114 99 200 39 256 39 c 0
 311 39 346 57 381 95 c 1
EndSplineSet
AlternateSubs2: "'aalt' Alle Alternativen zeigen 1" ecaron.sc
Substitution2: "'smcp' Gemeine nach Kapitaelchen 1" ecaron.sc
EndChar

StartChar: Gcircumflex
Encoding: 284 284 48
Width: 693
VWidth: 999
Flags: HW
HStem: -10 36<299.692 489.453> 271 36<453 485 626.062 672> 621 37<278.364 463.377>
VStem: 32 87<215.673 431.42> 540 81<83.4212 262.951> 585 30<457.6 492.683>
LayerCount: 2
Fore
SplineSet
385 805 m 1
 415 769 450 738 486 711 c 1
 470 690 l 1
 431 708 397 727 364 752 c 1
 327 725 295 707 257 690 c 1
 243 711 l 1
 280 739 311 771 342 805 c 1
 385 805 l 1
375 658 m 0
 497 658 533 613 593 613 c 1
 600 541 606 501 615 459 c 1
 585 453 l 1
 559 539 506 621 361 621 c 0
 226 621 119 502 119 327 c 0
 119 195 215 26 393 26 c 0
 447 26 506 42 540 74 c 1
 540 227 l 2
 540 258 525 266 485 269 c 2
 459 271 l 2
 455 271 451 274 451 279 c 2
 451 305 l 1
 453 307 l 1
 453 307 540 305 579 305 c 0
 614 305 672 307 672 307 c 1
 674 305 l 1
 674 279 l 2
 674 274 671 272 666 271 c 0
 637 268 621 262 621 227 c 2
 621 111 l 2
 621 100 626 92 637 83 c 1
 569 25 488 -10 370 -10 c 0
 169 -10 32 134 32 307 c 0
 32 527 203 658 375 658 c 0
EndSplineSet
Position2: "'cpsp' Versalabstaende 1" dx=2 dy=0 dh=5 dv=0
EndChar

StartChar: gcircumflex
Encoding: 285 285 49
Width: 479
VWidth: 999
Flags: HW
HStem: -238 37<152.298 302.696> -12 61<172.809 359.728> 136 31<175.133 272.366> 408 31<167.815 264.598>
VStem: 32 66<-157.965 -57.3985> 59 78<210.052 363.612> 103 253<516 516> 308 76<209.75 368.749> 401 52<-133.448 -47.7496>
LayerCount: 2
Fore
SplineSet
255 645 m 1
 284 598 320 556 356 516 c 1
 335 502 l 1
 296 531 263 556 229 592 c 1
 192 554 160 529 122 502 c 1
 102 516 l 1
 138 556 176 599 205 645 c 1
 255 645 l 1
308 279 m 0
 308 362 274 408 214 408 c 0
 162 408 137 372 137 302 c 0
 137 238 147 167 227 167 c 0
 262 167 308 186 308 279 c 0
128 -10 m 1
 100 -45 98 -70 98 -104 c 0
 98 -172 178 -201 212 -201 c 0
 298 -201 401 -163 401 -91 c 0
 401 -65 389 -51 352 -29 c 0
 324 -13 283 -12 235 -12 c 0
 221 -12 196 -15 166 -15 c 0
 154 -15 139 -13 128 -10 c 1
428 388 m 0
 412 388 402 397 398 405 c 0
 392 414 388 417 381 417 c 0
 369 417 350 403 343 393 c 1
 371 363 384 336 384 289 c 0
 384 191 306 136 222 136 c 0
 185 136 157 143 134 157 c 1
 123 140 117 119 117 99 c 0
 117 56 150 42 178 42 c 0
 183 42 193 43 207 44 c 0
 230 47 253 49 270 49 c 0
 305 49 373 48 411 16 c 0
 439 -8 453 -33 453 -65 c 0
 453 -173 313 -238 184 -238 c 0
 111 -238 32 -211 32 -124 c 0
 32 -81 59 -35 110 -3 c 1
 85 10 67 38 67 74 c 0
 67 108 82 151 109 175 c 1
 82 202 59 233 59 287 c 0
 59 379 138 439 223 439 c 0
 279 439 312 419 323 411 c 1
 348 445 393 462 418 462 c 0
 444 462 462 445 462 424 c 0
 462 402 448 388 428 388 c 0
EndSplineSet
EndChar

StartChar: Gbreve
Encoding: 286 286 50
Width: 693
VWidth: 999
Flags: HW
HStem: -10 36<299.692 489.453> 271 36<453 485 626.062 672> 621 37<278.364 463.377> 693 52<293 449>
VStem: 32 87<215.673 431.42> 236 28<766 804> 480 27<768 806> 540 81<83.4212 262.951> 585 30<457.6 492.683>
LayerCount: 2
Fore
SplineSet
507 806 m 1
 501 735 438 693 372 693 c 0
 299 693 241 736 236 806 c 1
 264 806 l 1
 272 767 319 745 372 745 c 0
 421 745 473 767 480 806 c 1
 507 806 l 1
375 658 m 0
 497 658 533 613 593 613 c 1
 600 541 606 501 615 459 c 1
 585 453 l 1
 559 539 506 621 361 621 c 0
 226 621 119 502 119 327 c 0
 119 195 215 26 393 26 c 0
 447 26 506 42 540 74 c 1
 540 227 l 2
 540 258 525 266 485 269 c 2
 459 271 l 2
 455 271 451 274 451 279 c 2
 451 305 l 1
 453 307 l 1
 453 307 540 305 579 305 c 0
 614 305 672 307 672 307 c 1
 674 305 l 1
 674 279 l 2
 674 274 671 272 666 271 c 0
 637 268 621 262 621 227 c 2
 621 111 l 2
 621 100 626 92 637 83 c 1
 569 25 488 -10 370 -10 c 0
 169 -10 32 134 32 307 c 0
 32 527 203 658 375 658 c 0
EndSplineSet
Position2: "'cpsp' Versalabstaende 1" dx=2 dy=0 dh=5 dv=0
Substitution2: "'c2sc' Versale nach Kapitaelchen 1" gbreve.sc
EndChar

StartChar: gbreve
Encoding: 287 287 51
Width: 479
VWidth: 999
Flags: HW
HStem: -238 37<152.298 302.696> -12 61<172.809 359.728> 136 31<175.133 272.366> 408 31<167.815 264.598> 497 57<150.968 287.898>
VStem: 32 66<-157.965 -57.3985> 59 78<210.052 363.612> 85 26<603.805 635.769> 308 76<209.75 368.749> 328 27<605.333 635.63> 401 52<-133.448 -47.7496>
LayerCount: 2
Fore
SplineSet
111 646 m 1
 113 594 160 554 220 554 c 0
 266 554 326 584 328 646 c 1
 355 632 l 1
 345 531 270 497 220 497 c 0
 143 497 92 554 85 632 c 1
 111 646 l 1
308 279 m 0
 308 362 274 408 214 408 c 0
 162 408 137 372 137 302 c 0
 137 238 147 167 227 167 c 0
 262 167 308 186 308 279 c 0
128 -10 m 1
 100 -45 98 -70 98 -104 c 0
 98 -172 178 -201 212 -201 c 0
 298 -201 401 -163 401 -91 c 0
 401 -65 389 -51 352 -29 c 0
 324 -13 283 -12 235 -12 c 0
 221 -12 196 -15 166 -15 c 0
 154 -15 139 -13 128 -10 c 1
428 388 m 0
 412 388 402 397 398 405 c 0
 392 414 388 417 381 417 c 0
 369 417 350 403 343 393 c 1
 371 363 384 336 384 289 c 0
 384 191 306 136 222 136 c 0
 185 136 157 143 134 157 c 1
 123 140 117 119 117 99 c 0
 117 56 150 42 178 42 c 0
 183 42 193 43 207 44 c 0
 230 47 253 49 270 49 c 0
 305 49 373 48 411 16 c 0
 439 -8 453 -33 453 -65 c 0
 453 -173 313 -238 184 -238 c 0
 111 -238 32 -211 32 -124 c 0
 32 -81 59 -35 110 -3 c 1
 85 10 67 38 67 74 c 0
 67 108 82 151 109 175 c 1
 82 202 59 233 59 287 c 0
 59 379 138 439 223 439 c 0
 279 439 312 419 323 411 c 1
 348 445 393 462 418 462 c 0
 444 462 462 445 462 424 c 0
 462 402 448 388 428 388 c 0
EndSplineSet
AlternateSubs2: "'aalt' Alle Alternativen zeigen 1" gbreve.sc
Substitution2: "'smcp' Gemeine nach Kapitaelchen 1" gbreve.sc
EndChar

StartChar: Gdotaccent
Encoding: 288 288 52
Width: 693
VWidth: 999
Flags: HW
HStem: -10 36<299.692 489.453> 271 36<453 485 626.062 672> 621 37<278.364 463.377> 706 95<334.44 415.312>
VStem: 32 87<215.673 431.42> 327 96<714.016 792.932> 540 81<83.4212 262.951> 585 30<457.6 492.683>
LayerCount: 2
Fore
SplineSet
327 753 m 0
 327 780 348 801 375 801 c 0
 401 801 423 780 423 753 c 0
 423 727 401 706 375 706 c 0
 348 706 327 727 327 753 c 0
375 658 m 0
 497 658 533 613 593 613 c 1
 600 541 606 501 615 459 c 1
 585 453 l 1
 559 539 506 621 361 621 c 0
 226 621 119 502 119 327 c 0
 119 195 215 26 393 26 c 0
 447 26 506 42 540 74 c 1
 540 227 l 2
 540 258 525 266 485 269 c 2
 459 271 l 2
 455 271 451 274 451 279 c 2
 451 305 l 1
 453 307 l 1
 453 307 540 305 579 305 c 0
 614 305 672 307 672 307 c 1
 674 305 l 1
 674 279 l 2
 674 274 671 272 666 271 c 0
 637 268 621 262 621 227 c 2
 621 111 l 2
 621 100 626 92 637 83 c 1
 569 25 488 -10 370 -10 c 0
 169 -10 32 134 32 307 c 0
 32 527 203 658 375 658 c 0
EndSplineSet
Position2: "'cpsp' Versalabstaende 1" dx=2 dy=0 dh=5 dv=0
EndChar

StartChar: gdotaccent
Encoding: 289 289 53
Width: 479
VWidth: 999
Flags: HW
HStem: -238 37<152.298 302.696> -12 61<172.809 359.728> 136 31<175.133 272.366> 408 31<167.815 264.598> 523 95<184.44 265.312>
VStem: 32 66<-157.965 -57.3985> 59 78<210.052 363.612> 177 96<531.016 609.932> 308 76<209.75 368.749> 401 52<-133.448 -47.7496>
LayerCount: 2
Fore
SplineSet
177 570 m 0
 177 597 198 618 225 618 c 0
 251 618 273 597 273 570 c 0
 273 544 251 523 225 523 c 0
 198 523 177 544 177 570 c 0
308 279 m 0
 308 362 274 408 214 408 c 0
 162 408 137 372 137 302 c 0
 137 238 147 167 227 167 c 0
 262 167 308 186 308 279 c 0
128 -10 m 1
 100 -45 98 -70 98 -104 c 0
 98 -172 178 -201 212 -201 c 0
 298 -201 401 -163 401 -91 c 0
 401 -65 389 -51 352 -29 c 0
 324 -13 283 -12 235 -12 c 0
 221 -12 196 -15 166 -15 c 0
 154 -15 139 -13 128 -10 c 1
428 388 m 0
 412 388 402 397 398 405 c 0
 392 414 388 417 381 417 c 0
 369 417 350 403 343 393 c 1
 371 363 384 336 384 289 c 0
 384 191 306 136 222 136 c 0
 185 136 157 143 134 157 c 1
 123 140 117 119 117 99 c 0
 117 56 150 42 178 42 c 0
 183 42 193 43 207 44 c 0
 230 47 253 49 270 49 c 0
 305 49 373 48 411 16 c 0
 439 -8 453 -33 453 -65 c 0
 453 -173 313 -238 184 -238 c 0
 111 -238 32 -211 32 -124 c 0
 32 -81 59 -35 110 -3 c 1
 85 10 67 38 67 74 c 0
 67 108 82 151 109 175 c 1
 82 202 59 233 59 287 c 0
 59 379 138 439 223 439 c 0
 279 439 312 419 323 411 c 1
 348 445 393 462 418 462 c 0
 444 462 462 445 462 424 c 0
 462 402 448 388 428 388 c 0
EndSplineSet
EndChar

StartChar: Gcommaaccent
Encoding: 290 290 54
Width: 693
VWidth: 999
Flags: HW
HStem: -231 17<330 351.215> -134 81<329.998 402.485> -10 36<299.692 489.453> 271 36<453 485 626.062 672> 621 37<278.364 463.377>
VStem: 32 87<215.673 431.42> 405 32<-177.598 -107.5> 540 81<83.4212 262.951> 585 30<457.6 492.683>
LayerCount: 2
Fore
SplineSet
375 -53 m 0
 414 -53 437 -90 437 -125 c 0
 437 -151 420 -227 330 -231 c 1
 326 -214 l 1
 402 -199 405 -141 405 -135 c 0
 405 -131 404 -128 403 -125 c 1
 392 -131 382 -134 374 -134 c 0
 333 -134 324 -109 324 -93 c 0
 324 -77 339 -53 375 -53 c 0
375 658 m 0
 497 658 533 613 593 613 c 1
 600 541 606 501 615 459 c 1
 585 453 l 1
 559 539 506 621 361 621 c 0
 226 621 119 502 119 327 c 0
 119 195 215 26 393 26 c 0
 447 26 506 42 540 74 c 1
 540 227 l 2
 540 258 525 266 485 269 c 2
 459 271 l 2
 455 271 451 274 451 279 c 2
 451 305 l 1
 453 307 l 1
 453 307 540 305 579 305 c 0
 614 305 672 307 672 307 c 1
 674 305 l 1
 674 279 l 2
 674 274 671 272 666 271 c 0
 637 268 621 262 621 227 c 2
 621 111 l 2
 621 100 626 92 637 83 c 1
 569 25 488 -10 370 -10 c 0
 169 -10 32 134 32 307 c 0
 32 527 203 658 375 658 c 0
EndSplineSet
Position2: "'cpsp' Versalabstaende 1" dx=2 dy=0 dh=5 dv=0
EndChar

StartChar: gcommaaccent
Encoding: 291 291 55
Width: 479
VWidth: 999
Flags: HW
HStem: -238 37<152.298 302.696> -12 61<172.809 359.728> 136 31<175.133 272.366> 408 31<167.815 264.598> 511 82<199.561 272.708> 673 17<251.498 273>
VStem: 32 66<-157.965 -57.3985> 59 78<210.052 363.612> 166 32<584 635.93> 308 76<209.75 368.749> 401 52<-133.448 -47.7496>
LayerCount: 2
Fore
SplineSet
228 511 m 0
 189 511 166 548 166 584 c 0
 166 610 183 686 273 690 c 1
 277 673 l 1
 200 658 198 598 198 594 c 0
 198 590 199 587 199 584 c 1
 211 590 221 593 229 593 c 0
 269 593 279 568 279 551 c 0
 279 535 263 511 228 511 c 0
308 279 m 0
 308 362 274 408 214 408 c 0
 162 408 137 372 137 302 c 0
 137 238 147 167 227 167 c 0
 262 167 308 186 308 279 c 0
128 -10 m 1
 100 -45 98 -70 98 -104 c 0
 98 -172 178 -201 212 -201 c 0
 298 -201 401 -163 401 -91 c 0
 401 -65 389 -51 352 -29 c 0
 324 -13 283 -12 235 -12 c 0
 221 -12 196 -15 166 -15 c 0
 154 -15 139 -13 128 -10 c 1
428 388 m 0
 412 388 402 397 398 405 c 0
 392 414 388 417 381 417 c 0
 369 417 350 403 343 393 c 1
 371 363 384 336 384 289 c 0
 384 191 306 136 222 136 c 0
 185 136 157 143 134 157 c 1
 123 140 117 119 117 99 c 0
 117 56 150 42 178 42 c 0
 183 42 193 43 207 44 c 0
 230 47 253 49 270 49 c 0
 305 49 373 48 411 16 c 0
 439 -8 453 -33 453 -65 c 0
 453 -173 313 -238 184 -238 c 0
 111 -238 32 -211 32 -124 c 0
 32 -81 59 -35 110 -3 c 1
 85 10 67 38 67 74 c 0
 67 108 82 151 109 175 c 1
 82 202 59 233 59 287 c 0
 59 379 138 439 223 439 c 0
 279 439 312 419 323 411 c 1
 348 445 393 462 418 462 c 0
 444 462 462 445 462 424 c 0
 462 402 448 388 428 388 c 0
EndSplineSet
EndChar

StartChar: Hcircumflex
Encoding: 292 292 56
Width: 700
VWidth: 999
Flags: HW
HStem: -2 29<20 52 242 274 427 503.597 603.451 682> 321 42<187 513> 618 28<19 52 242 274 426 459 649 681>
VStem: 106 81<35.58 321 363 609.207> 513 81<32.7827 321 363 609.203>
LayerCount: 2
Fore
SplineSet
513 72 m 2
 513 321 l 1
 187 321 l 1
 187 72 l 2
 187 41 202 32 242 29 c 2
 268 27 l 2
 272 27 276 24 276 19 c 2
 276 0 l 1
 274 -2 l 1
 274 -2 188 0 148 0 c 0
 113 0 20 -2 20 -2 c 1
 18 0 l 1
 18 19 l 2
 18 24 21 27 25 27 c 2
 52 29 l 2
 93 32 106 44 106 72 c 2
 106 574 l 2
 106 604 90 613 52 616 c 2
 25 618 l 2
 21 618 17 621 17 626 c 2
 17 645 l 1
 19 646 l 1
 19 646 106 645 145 645 c 0
 181 645 274 646 274 646 c 1
 276 645 l 1
 276 626 l 2
 276 621 273 618 268 618 c 2
 242 616 l 2
 202 613 187 602 187 574 c 2
 187 363 l 1
 513 363 l 1
 513 574 l 2
 513 604 498 613 459 616 c 2
 433 618 l 2
 428 618 424 621 424 626 c 2
 424 645 l 1
 426 646 l 1
 426 646 513 645 552 645 c 0
 588 645 681 646 681 646 c 1
 683 645 l 1
 683 626 l 2
 683 621 680 618 675 618 c 2
 649 616 l 2
 609 613 594 602 594 574 c 2
 594 72 l 2
 594 41 609 27 649 27 c 2
 675 27 l 2
 680 27 684 24 684 19 c 2
 684 0 l 1
 682 -2 l 1
 682 -2 595 0 556 0 c 0
 520 0 427 -2 427 -2 c 1
 425 0 l 1
 425 19 l 2
 425 24 428 27 433 27 c 2
 459 27 l 2
 500 27 513 44 513 72 c 2
368 803 m 1
 398 767 433 736 469 709 c 1
 453 688 l 1
 414 706 380 725 347 750 c 1
 310 723 278 705 240 688 c 1
 226 709 l 1
 263 737 294 769 325 803 c 1
 368 803 l 1
EndSplineSet
Position2: "'cpsp' Versalabstaende 1" dx=2 dy=0 dh=5 dv=0
EndChar

StartChar: hcircumflex
Encoding: 293 293 57
Width: 520
VWidth: 999
Flags: HW
HStem: -2 29<21 45 206 231 293 318 479 504> 392 47<245.141 344.739> 678 20<140.465 157.5>
VStem: 88 75<33.5257 337.568 356 639.899> 361 75<33.5163 375.24>
LayerCount: 2
Fore
SplineSet
286 832 m 1
 316 796 351 765 387 738 c 1
 371 717 l 1
 332 735 298 754 265 779 c 1
 228 752 196 734 158 717 c 1
 144 738 l 1
 181 766 212 798 243 832 c 1
 286 832 l 1
163 583 m 2
 163 356 l 1
 230 423 289 439 328 439 c 0
 400 439 436 387 436 284 c 2
 436 72 l 2
 436 43 446 32 479 29 c 2
 498 27 l 2
 502 27 506 24 506 19 c 2
 506 0 l 1
 504 -2 l 1
 504 -2 436 0 396 0 c 0
 361 0 293 -2 293 -2 c 1
 291 0 l 1
 291 19 l 2
 291 24 294 26 299 27 c 2
 318 29 l 2
 352 33 361 43 361 72 c 2
 361 295 l 2
 361 376 339 392 283 392 c 0
 254 392 211 366 163 319 c 1
 163 72 l 2
 163 43 173 32 206 29 c 2
 225 27 l 2
 229 27 233 24 233 19 c 2
 233 0 l 1
 231 -2 l 1
 231 -2 163 0 124 0 c 0
 88 0 21 -2 21 -2 c 1
 19 0 l 1
 19 19 l 2
 19 24 21 26 26 27 c 2
 45 29 l 2
 79 33 88 43 88 72 c 2
 88 563 l 2
 88 628 78 641 58 641 c 1
 26 643 l 2
 23 643 20 645 20 648 c 2
 18 672 l 1
 58 675 128 688 153 698 c 1
 162 698 166 695 166 688 c 2
 166 688 163 648 163 583 c 2
EndSplineSet
EndChar

StartChar: Hbar
Encoding: 294 294 58
Width: 700
VWidth: 999
Flags: HW
HStem: -2 29<20 52 242 274 427 503.597 603.451 682> 321 42<187 513> 512 34<41 656> 618 28<19 52 242 274 426 459 649 681>
VStem: 106 81<35.58 321 363 609.207> 513 81<32.7827 321 363 609.203>
LayerCount: 2
Fore
SplineSet
513 72 m 2
 513 321 l 1
 187 321 l 1
 187 72 l 2
 187 41 202 32 242 29 c 2
 268 27 l 2
 272 27 276 24 276 19 c 2
 276 0 l 1
 274 -2 l 1
 274 -2 188 0 148 0 c 0
 113 0 20 -2 20 -2 c 1
 18 0 l 1
 18 19 l 2
 18 24 21 27 25 27 c 2
 52 29 l 2
 93 32 106 44 106 72 c 2
 106 512 l 1
 41 512 l 1
 41 546 l 1
 106 546 l 1
 106 574 l 2
 106 604 90 613 52 616 c 2
 25 618 l 2
 21 618 17 621 17 626 c 2
 17 645 l 1
 19 646 l 1
 19 646 106 645 145 645 c 0
 181 645 274 646 274 646 c 1
 276 645 l 1
 276 626 l 2
 276 621 273 618 268 618 c 2
 242 616 l 2
 202 613 187 602 187 574 c 2
 187 546 l 1
 513 546 l 1
 513 574 l 2
 513 604 498 613 459 616 c 2
 433 618 l 2
 428 618 424 621 424 626 c 2
 424 645 l 1
 426 646 l 1
 426 646 513 645 552 645 c 0
 588 645 681 646 681 646 c 1
 683 645 l 1
 683 626 l 2
 683 621 680 618 675 618 c 2
 649 616 l 2
 609 613 594 602 594 574 c 2
 594 546 l 1
 656 546 l 1
 656 512 l 1
 594 512 l 1
 594 72 l 2
 594 41 609 27 649 27 c 2
 675 27 l 2
 680 27 684 24 684 19 c 2
 684 0 l 1
 682 -2 l 1
 682 -2 595 0 556 0 c 0
 520 0 427 -2 427 -2 c 1
 425 0 l 1
 425 19 l 2
 425 24 428 27 433 27 c 2
 459 27 l 2
 500 27 513 44 513 72 c 2
513 512 m 1
 187 512 l 1
 187 363 l 1
 513 363 l 1
 513 512 l 1
EndSplineSet
Position2: "'cpsp' Versalabstaende 1" dx=2 dy=0 dh=5 dv=0
EndChar

StartChar: hbar
Encoding: 295 295 59
Width: 520
VWidth: 999
Flags: HW
HStem: -2 29<21 45 206 231 293 318 479 504> 392 47<245.141 344.739> 530 39<26 341> 678 20<140.465 157.5>
VStem: 88 75<33.5257 337.568 356 639.899> 361 75<33.5163 375.24>
LayerCount: 2
Fore
SplineSet
88 569 m 1
 87 629 77 641 58 641 c 2
 26 643 l 2
 23 643 20 645 20 648 c 2
 18 672 l 1
 58 675 128 688 153 698 c 1
 162 698 166 695 166 688 c 2
 166 688 163 648 163 583 c 2
 163 569 l 1
 341 569 l 1
 341 530 l 1
 163 530 l 1
 163 356 l 1
 230 423 289 439 328 439 c 0
 400 439 436 387 436 284 c 2
 436 72 l 2
 436 43 446 32 479 29 c 2
 498 27 l 2
 502 27 506 24 506 19 c 2
 506 0 l 1
 504 -2 l 1
 504 -2 436 0 396 0 c 0
 361 0 293 -2 293 -2 c 1
 291 0 l 1
 291 19 l 2
 291 24 294 26 299 27 c 2
 318 29 l 2
 352 33 361 43 361 72 c 2
 361 295 l 2
 361 376 339 392 283 392 c 0
 254 392 211 366 163 319 c 1
 163 72 l 2
 163 43 173 32 206 29 c 2
 225 27 l 2
 229 27 233 24 233 19 c 2
 233 0 l 1
 231 -2 l 1
 231 -2 163 0 124 0 c 0
 88 0 21 -2 21 -2 c 1
 19 0 l 1
 19 19 l 2
 19 24 21 26 26 27 c 2
 45 29 l 2
 79 33 88 43 88 72 c 2
 88 530 l 1
 26 530 l 1
 26 569 l 1
 88 569 l 1
EndSplineSet
EndChar

StartChar: Itilde
Encoding: 296 296 60
Width: 293
VWidth: 999
Flags: HW
HStem: -2 29<20 52 242 274> 618 28<19 52 242 274> 697 44<162 249> 745 46<44 135> 784 10
VStem: 106 81<35.3322 609.22>
LayerCount: 2
Fore
SplineSet
213 741 m 0
 235 741 249 751 263 793 c 1
 287 787 l 1
 275 727 246 697 200 697 c 0
 178 697 157 709 136 723 c 0
 118 734 99 745 82 745 c 0
 56 745 43 730 33 697 c 1
 9 702 l 1
 23 761 46 791 89 791 c 0
 119 791 141 777 161 763 c 0
 177 751 194 741 213 741 c 0
187 574 m 2
 187 71 l 2
 187 41 202 32 242 29 c 2
 268 27 l 2
 272 27 276 24 276 19 c 2
 276 0 l 1
 274 -2 l 1
 226 0 197 0 147 0 c 0
 97 0 69 0 20 -2 c 1
 18 0 l 1
 18 19 l 2
 18 24 21 27 25 27 c 2
 52 29 l 2
 94 32 106 43 106 71 c 2
 106 574 l 2
 106 604 91 613 52 616 c 2
 25 618 l 2
 21 618 17 621 17 626 c 2
 17 645 l 1
 19 646 l 1
 69 645 96 645 146 645 c 0
 196 645 225 645 274 646 c 1
 276 645 l 1
 276 626 l 2
 276 621 273 618 268 618 c 2
 242 616 l 2
 202 613 187 602 187 574 c 2
EndSplineSet
Position2: "'cpsp' Versalabstaende 1" dx=2 dy=0 dh=5 dv=0
EndChar

StartChar: itilde
Encoding: 297 297 61
Width: 267
VWidth: 999
Flags: HW
HStem: -2 29<34 59 219 245> 422 20<161.75 177.219> 526 44<138.2 216.5> 574 46<32 113.9> 613 10
VStem: 102 75<33.5056 383>
LayerCount: 2
Fore
SplineSet
184 570 m 0
 204 570 216 580 229 622 c 1
 251 616 l 1
 240 556 214 526 172 526 c 0
 153 526 134 538 115 552 c 0
 99 563 82 574 66 574 c 0
 43 574 31 559 22 526 c 1
 0 531 l 1
 13 590 34 620 72 620 c 0
 100 620 119 606 137 592 c 0
 152 580 167 570 184 570 c 0
180 439 m 2
 180 439 177 371 177 321 c 2
 177 72 l 2
 177 43 188 32 219 29 c 2
 238 27 l 2
 243 26 247 24 247 19 c 2
 247 0 l 1
 245 -2 l 1
 245 -2 180 0 139 0 c 0
 98 0 34 -2 34 -2 c 1
 32 0 l 1
 32 19 l 2
 32 24 35 26 40 27 c 2
 59 29 l 2
 93 33 102 43 102 72 c 2
 102 321 l 2
 102 371 94 381 80 383 c 2
 37 387 l 1
 35 411 l 1
 106 422 148 431 176 442 c 1
 178 442 180 441 180 439 c 2
EndSplineSet
EndChar

StartChar: Imacron
Encoding: 298 298 62
Width: 293
VWidth: 999
Flags: HW
HStem: -2 29<20 52 242 274> 618 28<19 52 242 274> 733 44<9.08765 287.515>
VStem: 8 281<733.205 777> 106 81<35.3322 609.22>
LayerCount: 2
Fore
SplineSet
265 733 m 2
 21 733 l 2
 12 733 8 741 8 748 c 0
 8 760 19 777 30 777 c 2
 275 777 l 2
 285 777 289 769 289 763 c 0
 289 751 278 733 265 733 c 2
187 574 m 2
 187 71 l 2
 187 41 202 32 242 29 c 2
 268 27 l 2
 272 27 276 24 276 19 c 2
 276 0 l 1
 274 -2 l 1
 226 0 197 0 147 0 c 0
 97 0 69 0 20 -2 c 1
 18 0 l 1
 18 19 l 2
 18 24 21 27 25 27 c 2
 52 29 l 2
 94 32 106 43 106 71 c 2
 106 574 l 2
 106 604 91 613 52 616 c 2
 25 618 l 2
 21 618 17 621 17 626 c 2
 17 645 l 1
 19 646 l 1
 69 645 96 645 146 645 c 0
 196 645 225 645 274 646 c 1
 276 645 l 1
 276 626 l 2
 276 621 273 618 268 618 c 2
 242 616 l 2
 202 613 187 602 187 574 c 2
EndSplineSet
Position2: "'cpsp' Versalabstaende 1" dx=2 dy=0 dh=5 dv=0
EndChar

StartChar: imacron
Encoding: 299 299 63
Width: 267
VWidth: 999
Flags: HW
HStem: -2 29<34 59 219 245> 422 20<161.75 177.219> 538 44<-1.42112 249.164>
VStem: -2 253<538.205 582> 102 75<33.5056 383>
LayerCount: 2
Fore
SplineSet
229 538 m 2
 9 538 l 2
 1 538 -2 546 -2 553 c 0
 -2 565 8 582 17 582 c 2
 238 582 l 2
 247 582 251 574 251 568 c 0
 251 556 241 538 229 538 c 2
180 439 m 2
 180 439 177 371 177 321 c 2
 177 72 l 2
 177 43 188 32 219 29 c 2
 238 27 l 2
 243 26 247 24 247 19 c 2
 247 0 l 1
 245 -2 l 1
 245 -2 180 0 139 0 c 0
 98 0 34 -2 34 -2 c 1
 32 0 l 1
 32 19 l 2
 32 24 35 26 40 27 c 2
 59 29 l 2
 93 33 102 43 102 72 c 2
 102 321 l 2
 102 371 94 381 80 383 c 2
 37 387 l 1
 35 411 l 1
 106 422 148 431 176 442 c 1
 178 442 180 441 180 439 c 2
EndSplineSet
EndChar

StartChar: Ibreve
Encoding: 300 300 64
Width: 293
VWidth: 999
Flags: HW
HStem: -2 29<20 52 242 274> 618 28<19 52 242 274> 692 52<70 226>
VStem: 13 28<765 803> 106 81<35.3322 609.22> 257 27<767 805>
LayerCount: 2
Fore
SplineSet
284 805 m 1
 278 734 215 692 149 692 c 0
 76 692 18 735 13 805 c 1
 41 805 l 1
 49 766 96 744 149 744 c 0
 198 744 250 766 257 805 c 1
 284 805 l 1
187 574 m 2
 187 71 l 2
 187 41 202 32 242 29 c 2
 268 27 l 2
 272 27 276 24 276 19 c 2
 276 0 l 1
 274 -2 l 1
 226 0 197 0 147 0 c 0
 97 0 69 0 20 -2 c 1
 18 0 l 1
 18 19 l 2
 18 24 21 27 25 27 c 2
 52 29 l 2
 94 32 106 43 106 71 c 2
 106 574 l 2
 106 604 91 613 52 616 c 2
 25 618 l 2
 21 618 17 621 17 626 c 2
 17 645 l 1
 19 646 l 1
 69 645 96 645 146 645 c 0
 196 645 225 645 274 646 c 1
 276 645 l 1
 276 626 l 2
 276 621 273 618 268 618 c 2
 242 616 l 2
 202 613 187 602 187 574 c 2
EndSplineSet
Position2: "'cpsp' Versalabstaende 1" dx=2 dy=0 dh=5 dv=0
EndChar

StartChar: ibreve
Encoding: 301 301 65
Width: 267
VWidth: 999
Flags: HW
HStem: -2 29<34 59 219 245> 422 20<161.75 177.219> 503 57<63.2712 186.508>
VStem: 4 23<609.805 641.769> 102 75<33.5056 383> 223 24<611.333 641.63>
LayerCount: 2
Fore
SplineSet
27 652 m 1
 29 600 71 560 125 560 c 0
 167 560 221 590 223 652 c 1
 247 638 l 1
 238 537 170 503 125 503 c 0
 56 503 10 560 4 638 c 1
 27 652 l 1
180 439 m 2
 180 439 177 371 177 321 c 2
 177 72 l 2
 177 43 188 32 219 29 c 2
 238 27 l 2
 243 26 247 24 247 19 c 2
 247 0 l 1
 245 -2 l 1
 245 -2 180 0 139 0 c 0
 98 0 34 -2 34 -2 c 1
 32 0 l 1
 32 19 l 2
 32 24 35 26 40 27 c 2
 59 29 l 2
 93 33 102 43 102 72 c 2
 102 321 l 2
 102 371 94 381 80 383 c 2
 37 387 l 1
 35 411 l 1
 106 422 148 431 176 442 c 1
 178 442 180 441 180 439 c 2
EndSplineSet
EndChar

StartChar: Iogonek
Encoding: 302 302 66
Width: 293
VWidth: 999
Flags: HW
HStem: -225 39<153.181 237.134> -2 29<20 52 242 274> -1 25<222.256 258.88> 618 28<19 52 242 274>
VStem: 79 60<-174.091 -75.5789> 106 81<35.3322 609.22>
LayerCount: 2
Fore
SplineSet
172 -225 m 0
 119 -225 79 -194 79 -140 c 0
 79 -92 120 -33 181 -0 c 1
 170 -0 159 0 147 0 c 0
 97 0 69 0 20 -2 c 1
 18 0 l 1
 18 19 l 2
 18 24 21 27 25 27 c 2
 52 29 l 2
 94 32 106 43 106 71 c 2
 106 574 l 2
 106 604 91 613 52 616 c 2
 25 618 l 2
 21 618 17 621 17 626 c 2
 17 645 l 1
 19 646 l 1
 69 645 96 645 146 645 c 0
 196 645 225 645 274 646 c 1
 276 645 l 1
 276 626 l 2
 276 621 273 618 268 618 c 2
 242 616 l 2
 202 613 187 602 187 574 c 2
 187 71 l 2
 187 41 202 32 242 29 c 2
 268 27 l 2
 272 27 276 24 276 19 c 2
 276 0 l 1
 274 -2 l 1
 270 -2 266 -2 262 -2 c 0
 189 -8 139 -79 139 -127 c 0
 139 -159 161 -186 197 -186 c 0
 227 -186 248 -171 267 -150 c 1
 282 -158 l 1
 258 -205 208 -225 172 -225 c 0
EndSplineSet
Position2: "'cpsp' Versalabstaende 1" dx=2 dy=0 dh=5 dv=0
EndChar

StartChar: iogonek
Encoding: 303 303 67
Width: 267
VWidth: 999
Flags: HW
HStem: -225 39<121.213 204.045> -2 29<34 59 219 245> -1 25<188.395 225.6> 422 20<161.75 177.219> 523 95<93.44 174.312>
VStem: 46 60<-174.091 -75.5789> 86 96<531.016 609.932> 102 75<33.5056 383>
LayerCount: 2
Fore
SplineSet
139 -225 m 0
 85 -225 46 -194 46 -140 c 0
 46 -92 86 -33 148 -0 c 1
 145 -0 142 0 139 0 c 0
 98 0 34 -2 34 -2 c 1
 32 0 l 1
 32 19 l 2
 32 24 35 26 40 27 c 2
 59 29 l 2
 93 33 102 43 102 72 c 2
 102 321 l 2
 102 371 94 381 80 383 c 2
 37 387 l 1
 35 411 l 1
 106 422 148 431 176 442 c 1
 178 442 180 441 180 439 c 2
 180 439 177 371 177 321 c 2
 177 72 l 2
 177 43 188 32 219 29 c 2
 238 27 l 2
 243 26 247 24 247 19 c 2
 247 0 l 1
 245 -2 l 1
 245 -2 239 -2 228 -2 c 1
 155 -8 106 -78 106 -127 c 0
 106 -159 128 -186 164 -186 c 0
 193 -186 214 -171 233 -150 c 1
 249 -158 l 1
 225 -205 174 -225 139 -225 c 0
86 570 m 0
 86 597 107 618 134 618 c 0
 160 618 182 597 182 570 c 0
 182 544 160 523 134 523 c 0
 107 523 86 544 86 570 c 0
EndSplineSet
EndChar

StartChar: Idotaccent
Encoding: 304 304 68
Width: 293
VWidth: 999
Flags: HW
HStem: -2 29<20 100 192 274> 618 29<19 101 193 274> 703 96<107 186>
VStem: 99 96<711 790> 106 81<33 612>
LayerCount: 2
Fore
SplineSet
98 750 m 0
 98 777 119 798 146 798 c 0
 172 798 194 777 194 750 c 0
 194 724 172 703 146 703 c 0
 119 703 98 724 98 750 c 0
187 574 m 2
 187 71 l 2
 187 41 202 32 242 29 c 2
 268 27 l 2
 272 27 276 24 276 19 c 2
 276 0 l 1
 274 -2 l 1
 226 0 197 0 147 0 c 0
 97 0 69 0 20 -2 c 1
 18 0 l 1
 18 19 l 2
 18 24 21 27 25 27 c 2
 52 29 l 2
 94 32 106 43 106 71 c 2
 106 574 l 2
 106 604 91 613 52 616 c 2
 25 618 l 2
 21 618 17 621 17 626 c 2
 17 645 l 1
 19 646 l 1
 69 645 96 645 146 645 c 0
 196 645 225 645 274 646 c 1
 276 645 l 1
 276 626 l 2
 276 621 273 618 268 618 c 2
 242 616 l 2
 202 613 187 602 187 574 c 2
EndSplineSet
Substitution2: "'c2sc' Versale nach Kapitaelchen 1" idotaccent.sc
Position2: "'cpsp' Versalabstaende 1" dx=2 dy=0 dh=5 dv=0
EndChar

StartChar: afii10057
Encoding: 1032 1032 69
Width: 371
VWidth: 999
Flags: HW
HStem: -12 31<114 179> 618 29<94 183 285 356>
VStem: 198 81<63 604>
LayerCount: 2
Fore
SplineSet
143 19 m 0
 192 19 198 79 198 172 c 2
 198 559 l 2
 198 589 177 614 137 616 c 2
 101 618 l 2
 96 618 92 621 92 626 c 2
 92 645 l 1
 94 646 l 1
 94 646 198 645 237 645 c 0
 272 645 356 646 356 646 c 1
 358 645 l 1
 358 626 l 2
 358 621 355 619 350 618 c 2
 333 616 l 2
 294 611 279 600 279 572 c 2
 279 194 l 2
 279 16 206 -12 143 -12 c 0
 109 -12 39 -2 39 51 c 0
 39 76 57 86 72 86 c 0
 100 86 110 61 112 49 c 0
 114 36 121 19 143 19 c 0
EndSplineSet
EndChar

StartChar: afii10061
Encoding: 1036 1036 70
Width: 602
VWidth: 999
Flags: HW
HStem: -2 29<20 100 192 274 527 583> 323 43<187 229> 590 62<427 527> 618 29<19 101 193 274> 699 122
VStem: 106 81<33 612> 288 202
LayerCount: 2
Fore
SplineSet
427 820 m 1
 489 768 l 1
 345 710 l 2
 324 701 311 698 302 698 c 0
 293 698 288 703 288 713 c 0
 288 720 290 725 303 734 c 2
 427 820 l 1
583 -2 m 1
 510 -1 l 2
 430 0 398 70 355 180 c 0
 316 280 298 321 187 323 c 1
 187 71 l 2
 187 41 202 32 242 29 c 2
 268 27 l 2
 272 27 276 24 276 19 c 2
 276 0 l 1
 274 -2 l 1
 226 0 197 0 147 0 c 0
 97 0 69 0 20 -2 c 1
 18 0 l 1
 18 19 l 2
 18 24 21 27 25 27 c 2
 52 29 l 2
 94 32 106 43 106 71 c 2
 106 574 l 2
 106 604 91 613 52 616 c 2
 25 618 l 2
 21 618 17 621 17 626 c 2
 17 645 l 1
 19 646 l 1
 69 645 96 645 146 645 c 0
 196 645 225 645 274 646 c 1
 276 645 l 1
 276 626 l 2
 276 621 273 618 268 618 c 2
 242 616 l 2
 202 613 187 602 187 574 c 2
 187 366 l 1
 223 366 268 367 292 381 c 0
 351 413 362 488 371 544 c 0
 379 602 432 651 502 651 c 0
 555 651 573 624 573 601 c 0
 573 576 550 559 529 559 c 0
 516 559 501 563 492 572 c 0
 482 583 469 590 456 590 c 0
 433 590 412 562 407 533 c 0
 396 470 379 368 299 343 c 1
 368 343 389 296 415 236 c 0
 473 103 531 31 566 28 c 2
 576 27 l 2
 581 27 584 24 584 19 c 2
 584 0 l 1
 583 -2 l 1
EndSplineSet
LCarets2: 1 0 
EndChar

StartChar: uni040D
Encoding: 1037 1037 71
Width: 700
VWidth: 999
Flags: HW
HStem: -2 29<20 100 192 274 427 507 600 682> 618 29<20 102 191 274 426 508 601 681>
VStem: 106 81<33 78 134 612> 514 81<33 505 561 574 574 613>
DStem2: 187 134 187 78 0.607383 0.794409<0 493.208>
LayerCount: 2
Fore
SplineSet
299 818 m 1
 420 734 l 2
 431 726 435 720 435 713 c 0
 435 703 430 698 420 698 c 0
 412 698 398 701 377 710 c 2
 223 773 l 1
 299 818 l 1
595 572 m 2
 595 73 l 2
 595 43 610 32 649 29 c 2
 675 27 l 2
 680 27 684 24 684 19 c 2
 684 0 l 1
 682 -2 l 1
 682 -2 595 0 556 0 c 0
 520 0 427 -2 427 -2 c 1
 425 0 l 1
 425 19 l 2
 425 24 428 27 433 27 c 2
 459 29 l 2
 499 32 514 45 514 73 c 2
 514 505 l 1
 187 78 l 1
 187 74 l 2
 187 43 201 32 242 29 c 2
 268 27 l 2
 272 27 276 24 276 19 c 2
 276 0 l 1
 274 -2 l 1
 274 -2 188 0 148 0 c 0
 113 0 20 -2 20 -2 c 1
 18 0 l 1
 18 19 l 2
 18 24 21 27 25 27 c 2
 52 29 l 2
 94 32 106 46 106 74 c 2
 106 573 l 2
 106 603 91 613 52 616 c 2
 25 618 l 2
 21 618 18 621 18 626 c 2
 18 645 l 1
 20 646 l 1
 20 646 106 644 146 644 c 0
 181 644 274 646 274 646 c 1
 276 645 l 1
 276 626 l 2
 276 621 273 618 268 618 c 2
 242 616 l 2
 201 613 187 601 187 573 c 2
 187 134 l 1
 514 561 l 1
 514 572 l 2
 514 603 499 613 459 616 c 2
 433 618 l 2
 428 618 424 621 424 626 c 2
 424 645 l 1
 426 646 l 1
 426 646 513 644 552 644 c 0
 588 644 681 647 681 647 c 1
 683 645 l 1
 683 626 l 2
 683 621 680 618 675 618 c 2
 649 616 l 2
 609 613 595 600 595 572 c 2
EndSplineSet
LCarets2: 1 0 
EndChar

StartChar: afii10062
Encoding: 1038 1038 72
Width: 580
VWidth: 999
Flags: HW
HStem: -22 62<146 230> 618 29<2 32 32 64 164 235 235 235 391 391 391 456 514 579 579 579> 697 31<262 362>
VStem: 187 69<736 802> 367 69<735 788>
DStem2: 170 575 88 559 0.41846 -0.908235<-26.754 380.66> 283 136 342 161 0.36961 0.929187<-102.355 0 102.627 499.258>
LayerCount: 2
Fore
SplineSet
436 774 m 0
 436 722 374 697 311 697 c 0
 245 697 187 721 187 773 c 0
 187 795 199 804 226 804 c 0
 247 804 257 788 257 773 c 0
 257 771 256 766 256 765 c 0
 256 745 279 728 312 728 c 0
 342 728 367 742 367 764 c 0
 367 765 366 772 366 773 c 0
 366 788 375 804 398 804 c 0
 424 804 436 794 436 774 c 0
195 40 m 0
 227 40 252 61 283 136 c 1
 88 559 l 2
 79 579 58 615 10 618 c 0
 4 618 0 621 0 625 c 2
 0 645 l 1
 1 646 l 1
 1 646 64 645 105 645 c 0
 155 645 235 646 235 646 c 1
 237 645 l 1
 237 626 l 2
 237 621 235 618 230 618 c 2
 192 616 l 2
 160 614 158 601 170 575 c 2
 327 229 l 1
 329 229 l 1
 458 575 l 2
 471 610 465 613 425 616 c 2
 396 618 l 2
 392 618 390 621 390 625 c 2
 390 645 l 1
 391 646 l 1
 391 646 457 645 499 645 c 0
 531 645 579 646 579 646 c 1
 581 645 l 1
 581 626 l 2
 581 620 574 618 570 618 c 0
 524 615 514 606 499 566 c 2
 342 161 l 2
 299 52 244 -22 154 -22 c 0
 112 -22 66 1 66 33 c 0
 66 61 81 79 113 79 c 0
 127 79 149 72 159 60 c 0
 166 51 181 40 195 40 c 0
EndSplineSet
LCarets2: 1 0 
EndChar

StartChar: afii10020
Encoding: 1043 1043 73
Width: 481
VWidth: 999
Flags: HW
HStem: -2 29<14 96 189 269> 605 39<183 408> 618 29<14 98>
VStem: 102 81<33 604>
LayerCount: 2
Fore
SplineSet
343 605 m 2
 219 605 l 2
 197 605 183 599 183 573 c 2
 183 74 l 2
 183 46 197 32 238 29 c 2
 264 27 l 2
 269 27 272 24 272 19 c 2
 272 0 l 1
 270 -2 l 1
 270 -2 176 0 140 0 c 0
 101 0 14 -2 14 -2 c 1
 12 0 l 1
 12 19 l 2
 12 24 16 27 21 27 c 2
 47 29 l 2
 85 32 102 43 102 74 c 2
 102 571 l 2
 102 606 92 613 50 616 c 2
 20 618 l 2
 16 618 12 621 12 625 c 2
 12 645 l 1
 14 646 l 1
 14 646 129 645 142 645 c 2
 142 645 358 645 466 645 c 1
 470 591 479 531 486 490 c 1
 457 485 l 1
 436 554 418 605 343 605 c 2
EndSplineSet
EndChar

StartChar: afii10021
Encoding: 1044 1044 74
Width: 655
VWidth: 999
Flags: HMW
HStem: 0 39<182.009 462.022> 605 40<268.132 462.578> 618 28<149 187 582 618.861>
VStem: 464 81<40.4891 603.884>
LayerCount: 2
Fore
SplineSet
112 47 m 0
 138 73 156 145 188 301 c 0
 210 415 222 518 222 581 c 0
 222 605 212 614 187 616 c 2
 157 618 l 2
 152 618 149 620 149 624 c 2
 149 640 l 2
 149 644 156 646 162 646 c 0
 197 646 251 645 251 645 c 1
 508 645 l 1
 613 646 l 2
 616 646 619 645 619 640 c 2
 619 626 l 2
 619 620 615 618 611 618 c 2
 582 616 l 2
 550 614 545 601 545 565 c 2
 545 78 l 2
 545 41 568 30 585 27 c 0
 607 23 614 20 615 8 c 2
 622 -140 l 1
 595 -140 595 -141 595 -141 c 1
 583 -85 547 0 467 0 c 2
 181 0 l 2
 98 0 72 -89 61 -141 c 1
 34 -140 l 1
 41 8 l 2
 42 20 52 25 62 27 c 0
 81 30 97 33 112 47 c 0
427 605 m 2
 303 605 l 2
 276 605 266 591 264 566 c 0
 256 465 241 361 229 293 c 0
 207 176 182 77 182 56 c 0
 182 44 195 39 209 39 c 2
 428 39 l 2
 452 39 464 42 464 79 c 2
 464 566 l 2
 464 597 458 605 427 605 c 2
EndSplineSet
EndChar

StartChar: afii10024
Encoding: 1046 1046 75
Width: 855
VWidth: 999
Flags: HW
HStem: -2 29<24 67.4219 301 333 523 555 788.578 832> 323 43<297.65 388 468 558.35> 590 61<70.0265 164.818 691.182 785.974> 618 28<300 333 523 555>
VStem: 387 81<35.3322 609.22>
LayerCount: 2
Fore
SplineSet
832 -2 m 1
 766 -1 l 2
 694 0 666 70 627 180 c 0
 591 282 575 323 468 323 c 1
 468 71 l 2
 468 41 483 32 523 29 c 2
 549 27 l 2
 553 27 557 24 557 19 c 2
 557 0 l 1
 555 -2 l 1
 508 0 478 0 428 0 c 0
 378 0 350 0 301 -2 c 1
 299 0 l 1
 299 19 l 2
 299 24 302 27 306 27 c 2
 333 29 l 2
 375 32 387 43 387 71 c 2
 387 323 l 1
 281 323 265 282 229 180 c 0
 190 70 162 0 90 -1 c 2
 24 -2 l 1
 23 0 l 1
 23 19 l 2
 23 24 26 27 30 27 c 2
 40 27 l 2
 72 27 124 103 175 236 c 0
 199 296 218 343 280 343 c 1
 208 368 192 470 182 533 c 0
 178 562 159 590 139 590 c 0
 127 590 115 583 106 572 c 0
 98 563 84 559 73 559 c 0
 54 559 33 576 33 601 c 0
 33 624 50 651 97 651 c 0
 160 651 208 602 215 544 c 0
 223 488 233 413 286 381 c 0
 310 366 353 366 387 366 c 1
 387 574 l 2
 387 604 372 613 333 616 c 2
 306 618 l 2
 302 618 298 621 298 626 c 2
 298 645 l 1
 300 646 l 1
 350 645 377 645 427 645 c 0
 477 645 506 645 555 646 c 1
 557 645 l 1
 557 626 l 2
 557 621 554 618 549 618 c 2
 523 616 l 2
 483 613 468 602 468 574 c 2
 468 366 l 1
 501 366 546 366 570 381 c 0
 623 413 633 488 641 544 c 0
 648 602 696 651 759 651 c 0
 806 651 823 624 823 601 c 0
 823 576 802 559 783 559 c 0
 771 559 758 563 750 572 c 0
 741 583 729 590 717 590 c 0
 697 590 678 562 674 533 c 0
 664 470 648 368 576 343 c 1
 638 343 657 296 681 236 c 0
 732 103 784 27 816 27 c 2
 826 27 l 2
 830 27 833 24 833 19 c 2
 833 0 l 1
 832 -2 l 1
EndSplineSet
EndChar

StartChar: afii10025
Encoding: 1047 1047 76
Width: 542
VWidth: 999
Flags: HW
HStem: -12 37<167 330> 336 37<158 311> 624 34<157 318>
VStem: 375 80<433 569> 405 91<101 255>
LayerCount: 2
Fore
SplineSet
248 25 m 0
 318 25 405 68 405 176 c 0
 405 227 366 336 249 336 c 2
 176 336 l 2
 165 336 158 343 158 354 c 0
 158 365 165 373 176 373 c 2
 223 373 l 2
 342 373 375 451 375 506 c 0
 375 573 311 624 249 624 c 0
 126 624 103 550 79 469 c 1
 49 471 l 1
 69 646 l 1
 156 646 191 658 251 658 c 0
 344 658 455 611 455 516 c 0
 455 437 412 387 340 360 c 1
 411 340 497 299 497 192 c 0
 497 41 363 -12 245 -12 c 0
 164 -12 115 19 84 43 c 0
 57 64 36 91 36 118 c 0
 36 144 47 165 70 165 c 0
 98 165 108 152 119 120 c 0
 140 59 172 25 248 25 c 0
EndSplineSet
EndChar

StartChar: afii10026
Encoding: 1048 1048 77
Width: 700
VWidth: 999
Flags: HW
HStem: -2 29<20 52 242 274 427 459 649 682> 618 28<20 52 242 274 426 459 649 681>
VStem: 106 81<35.9534 78 134 609.354> 514 81<36.3852 505 561 608.905>
DStem2: 187 134 187 78 0.608002 0.793935<0 493.367>
LayerCount: 2
Fore
SplineSet
595 572 m 2
 595 73 l 2
 595 43 610 32 649 29 c 2
 675 27 l 2
 680 27 684 24 684 19 c 2
 684 0 l 1
 682 -2 l 1
 682 -2 595 0 556 0 c 0
 520 0 427 -2 427 -2 c 1
 425 0 l 1
 425 19 l 2
 425 24 428 27 433 27 c 2
 459 29 l 2
 499 32 514 45 514 73 c 2
 514 505 l 1
 187 78 l 1
 187 74 l 2
 187 43 201 32 242 29 c 2
 268 27 l 2
 272 27 276 24 276 19 c 2
 276 0 l 1
 274 -2 l 1
 274 -2 188 0 148 0 c 0
 113 0 20 -2 20 -2 c 1
 18 0 l 1
 18 19 l 2
 18 24 21 27 25 27 c 2
 52 29 l 2
 94 32 106 46 106 74 c 2
 106 573 l 2
 106 603 91 613 52 616 c 2
 25 618 l 2
 21 618 18 621 18 626 c 2
 18 645 l 1
 20 646 l 1
 20 646 106 644 146 644 c 0
 181 644 274 646 274 646 c 1
 276 645 l 1
 276 626 l 2
 276 621 273 618 268 618 c 2
 242 616 l 2
 201 613 187 601 187 573 c 2
 187 134 l 1
 514 561 l 1
 514 572 l 2
 514 603 499 613 459 616 c 2
 433 618 l 2
 428 618 424 621 424 626 c 2
 424 645 l 1
 426 646 l 1
 426 646 513 644 552 644 c 0
 588 644 681 647 681 647 c 1
 683 645 l 1
 683 626 l 2
 683 621 680 618 675 618 c 2
 649 616 l 2
 609 613 595 600 595 572 c 2
EndSplineSet
EndChar

StartChar: afii10027
Encoding: 1049 1049 78
Width: 700
VWidth: 999
Flags: HW
HStem: -2 29<20 100 192 274 427 507 600 682> 618 29<20 102 191 274 426 508 601 681> 697 31<302 401>
VStem: 106 81<33 78 134 612> 226 69<736 802> 406 69<735 788> 514 81<33 505 561 574 574 613>
DStem2: 187 134 187 78 0.607383 0.794409<0 493.208>
LayerCount: 2
Fore
SplineSet
475 774 m 0
 475 722 413 697 350 697 c 0
 284 697 226 721 226 773 c 0
 226 795 238 804 265 804 c 0
 286 804 296 788 296 773 c 0
 296 771 295 766 295 765 c 0
 295 745 318 728 351 728 c 0
 381 728 406 742 406 764 c 0
 406 765 405 772 405 773 c 0
 405 788 414 804 437 804 c 0
 463 804 475 794 475 774 c 0
595 572 m 2
 595 73 l 2
 595 43 610 32 649 29 c 2
 675 27 l 2
 680 27 684 24 684 19 c 2
 684 0 l 1
 682 -2 l 1
 682 -2 595 0 556 0 c 0
 520 0 427 -2 427 -2 c 1
 425 0 l 1
 425 19 l 2
 425 24 428 27 433 27 c 2
 459 29 l 2
 499 32 514 45 514 73 c 2
 514 505 l 1
 187 78 l 1
 187 74 l 2
 187 43 201 32 242 29 c 2
 268 27 l 2
 272 27 276 24 276 19 c 2
 276 0 l 1
 274 -2 l 1
 274 -2 188 0 148 0 c 0
 113 0 20 -2 20 -2 c 1
 18 0 l 1
 18 19 l 2
 18 24 21 27 25 27 c 2
 52 29 l 2
 94 32 106 46 106 74 c 2
 106 573 l 2
 106 603 91 613 52 616 c 2
 25 618 l 2
 21 618 18 621 18 626 c 2
 18 645 l 1
 20 646 l 1
 20 646 106 644 146 644 c 0
 181 644 274 646 274 646 c 1
 276 645 l 1
 276 626 l 2
 276 621 273 618 268 618 c 2
 242 616 l 2
 201 613 187 601 187 573 c 2
 187 134 l 1
 514 561 l 1
 514 572 l 2
 514 603 499 613 459 616 c 2
 433 618 l 2
 428 618 424 621 424 626 c 2
 424 645 l 1
 426 646 l 1
 426 646 513 644 552 644 c 0
 588 644 681 647 681 647 c 1
 683 645 l 1
 683 626 l 2
 683 621 680 618 675 618 c 2
 649 616 l 2
 609 613 595 600 595 572 c 2
EndSplineSet
LCarets2: 1 0 
EndChar

StartChar: afii10033
Encoding: 1055 1055 79
Width: 667
VWidth: 999
Flags: HW
HStem: -2 29<19 100 191 269 398 475 566 648> 604 40<188 478> 618 29<19 102 567 648>
VStem: 106 81<33 603> 480 81<33 603>
LayerCount: 2
Fore
SplineSet
480 74 m 2
 480 560 l 2
 480 588 476 604 444 604 c 2
 223 604 l 2
 192 604 187 593 187 560 c 2
 187 74 l 2
 187 43 202 32 241 29 c 2
 263 27 l 2
 267 27 271 24 271 19 c 2
 271 0 l 1
 269 -2 l 1
 269 -2 187 0 148 0 c 0
 112 0 19 -2 19 -2 c 1
 17 0 l 1
 17 19 l 2
 17 24 20 27 25 27 c 2
 51 29 l 2
 90 32 106 46 106 74 c 2
 106 572 l 2
 106 609 84 614 55 616 c 2
 25 618 l 2
 19 618 17 622 17 625 c 2
 17 645 l 1
 19 646 l 1
 82 646 19 645 331 645 c 0
 648 645 585 646 648 646 c 1
 650 645 l 1
 650 626 l 2
 650 622 647 618 642 618 c 2
 613 616 l 2
 584 614 561 602 561 572 c 2
 561 74 l 2
 561 43 576 32 616 29 c 2
 642 27 l 2
 646 27 650 24 650 19 c 2
 650 0 l 1
 648 -2 l 1
 648 -2 562 0 522 0 c 0
 487 0 398 -2 398 -2 c 1
 396 0 l 1
 396 19 l 2
 396 24 399 27 404 27 c 2
 426 29 l 2
 467 33 480 46 480 74 c 2
EndSplineSet
EndChar

StartChar: afii10034
Encoding: 1056 1056 80
Width: 521
VWidth: 999
Flags: HW
HStem: -2 29<19 100 192 274> 282 34<214 352> 618 29<19 98> 620 34<209 354>
VStem: 106 81<33 292 321 611> 412 85<392 562>
LayerCount: 2
Fore
SplineSet
187 574 m 2
 187 321 l 1
 198 318 233 316 258 316 c 0
 355 316 409 360 409 468 c 0
 409 595 338 620 269 620 c 0
 197 620 187 603 187 574 c 2
106 71 m 2
 106 574 l 2
 106 606 79 615 62 616 c 2
 23 618 l 2
 19 618 17 620 17 624 c 2
 17 645 l 1
 19 646 l 1
 19 646 100 645 146 645 c 0
 176 645 250 654 276 654 c 0
 461 654 497 545 497 486 c 0
 497 401 445 282 263 282 c 0
 228 282 209 285 187 292 c 1
 187 71 l 2
 187 41 202 32 241 29 c 2
 268 27 l 2
 272 27 276 24 276 19 c 2
 276 0 l 1
 274 -2 l 1
 274 -2 187 0 148 0 c 0
 112 0 19 -2 19 -2 c 1
 17 0 l 1
 17 19 l 2
 17 24 20 27 25 27 c 2
 51 29 l 2
 91 32 106 43 106 71 c 2
EndSplineSet
EndChar

StartChar: afii10035
Encoding: 1057 1057 81
Width: 644
VWidth: 999
Flags: HW
HStem: -12 42<263 464> 621 37<270 453>
VStem: 37 87<204 436>
LayerCount: 2
Fore
SplineSet
355 -10 m 0
 140 -10 37 154 37 315 c 0
 37 512 190 658 356 658 c 0
 479 658 518 616 575 613 c 1
 579 559 587 510 597 458 c 1
 567 454 l 1
 541 540 483 621 345 621 c 0
 266 621 124 537 124 334 c 0
 124 188 199 31 354 31 c 0
 447 31 515 62 586 140 c 1
 609 125 l 1
 541 36 452 -10 355 -10 c 0
EndSplineSet
EndChar

StartChar: afii10036
Encoding: 1058 1058 82
Width: 567
VWidth: 999
Flags: HW
HStem: -2 29<171 251 343 426> 605 39<64 77 77 256 341 514>
VStem: 258 81<34 602>
LayerCount: 2
Fore
SplineSet
77 645 m 2
 500 645 l 2
 521 645 522 662 522 668 c 1
 548 672 l 1
 548 623 553 569 561 518 c 1
 531 513 l 1
 514 590 507 606 452 606 c 2
 386 606 l 2
 350 606 338 598 338 564 c 2
 338 72 l 2
 338 41 354 32 393 29 c 2
 419 27 l 2
 424 27 428 24 428 19 c 2
 428 0 l 1
 426 -2 l 1
 426 -2 338 0 299 0 c 0
 264 0 171 -2 171 -2 c 1
 169 0 l 1
 169 19 l 2
 169 24 172 27 177 27 c 2
 203 29 l 2
 245 32 257 44 257 72 c 2
 257 567 l 2
 257 598 245 606 208 606 c 2
 125 606 l 2
 70 606 57 593 37 513 c 1
 7 518 l 1
 19 571 25 623 29 672 c 1
 56 668 l 1
 56 662 56 645 77 645 c 2
EndSplineSet
EndChar

StartChar: afii10037
Encoding: 1059 1059 83
Width: 580
VWidth: 999
Flags: HW
HStem: -22 62<133 229.447> 618 28<1 51.985 192 235 391 425 520.846 579>
DStem2: 170 575 88 559 0.41865 -0.908148<-32.5036 379.947> 283 136 342 161 0.370296 0.928914<-102.293 0 103.423 504.868>
LayerCount: 2
Fore
SplineSet
195 40 m 0
 227 40 252 61 283 136 c 1
 88 559 l 2
 79 579 58 615 10 618 c 0
 4 618 0 621 0 625 c 2
 0 645 l 1
 1 646 l 1
 1 646 64 645 105 645 c 0
 155 645 235 646 235 646 c 1
 237 645 l 1
 237 626 l 2
 237 621 235 618 230 618 c 2
 192 616 l 2
 160 614 158 601 170 575 c 2
 327 229 l 1
 329 229 l 1
 458 575 l 2
 471 610 465 613 425 616 c 2
 396 618 l 2
 392 618 390 621 390 625 c 2
 390 645 l 1
 391 646 l 1
 391 646 457 645 499 645 c 0
 531 645 579 646 579 646 c 1
 581 645 l 1
 581 626 l 2
 581 620 574 618 570 618 c 0
 524 615 514 606 499 566 c 2
 342 161 l 2
 299 52 244 -22 154 -22 c 0
 112 -22 66 1 66 33 c 0
 66 61 81 79 113 79 c 0
 127 79 149 72 159 60 c 0
 166 51 181 40 195 40 c 0
EndSplineSet
EndChar

StartChar: afii10039
Encoding: 1061 1061 84
Width: 655
VWidth: 999
Flags: HW
HStem: -2 29<4 41 41 78 149 175 175 200 420 470 587 622 622 650> 618 29<18 47 47 47 189 238 238 242 433 484 484 485 552 590 590 629>
DStem2: 201 572 118 549 0.579178 -0.815201<0 554.429> 129 104 163 77 0.593227 0.805035<0 582.153>
LayerCount: 2
Fore
SplineSet
13 625 m 2
 13 644 l 1
 17 646 l 1
 17 646 108 645 119 645 c 0
 124 645 239 646 239 646 c 1
 239 646 242 644 243 644 c 1
 243 625 l 2
 243 620 241 618 238 618 c 2
 206 616 l 2
 173 614 182 599 201 572 c 2
 320 396 l 2
 325 389 329 385 332 385 c 0
 335 385 339 389 345 397 c 2
 474 572 l 2
 492 598 497 614 468 616 c 2
 438 618 l 2
 434 618 431 620 431 625 c 2
 431 645 l 1
 433 646 l 1
 433 646 521 645 532 645 c 0
 537 645 629 646 629 646 c 1
 632 645 l 1
 632 625 l 2
 632 622 631 618 623 618 c 0
 562 616 540 588 513 552 c 2
 382 375 l 2
 373 363 369 354 369 345 c 0
 369 335 375 325 385 312 c 2
 539 102 l 2
 566 63 600 30 645 27 c 0
 650 27 652 23 652 20 c 2
 652 0 l 1
 650 -2 l 1
 623 -1 557 0 545 0 c 0
 539 0 420 -2 420 -2 c 1
 417 0 l 1
 417 20 l 2
 417 24 419 27 423 27 c 2
 443 29 l 2
 483 33 481 39 456 73 c 2
 324 261 l 2
 318 269 314 272 310 272 c 0
 307 272 301 266 295 258 c 2
 163 77 l 2
 146 53 139 33 178 29 c 2
 197 27 l 2
 202 26 203 23 203 20 c 2
 203 0 l 1
 200 -2 l 1
 200 -2 103 0 88 0 c 0
 83 0 4 -2 4 -2 c 1
 3 0 l 1
 3 20 l 2
 3 25 8 27 14 27 c 0
 72 30 107 74 129 104 c 2
 266 291 l 2
 272 299 276 308 276 314 c 0
 276 324 271 333 262 344 c 2
 118 549 l 2
 77 607 46 615 29 618 c 0
 19 620 13 621 13 625 c 2
EndSplineSet
EndChar

StartChar: afii10040
Encoding: 1062 1062 85
Width: 639
VWidth: 487
Flags: HMW
HStem: -2 29<20 52> 0 37<175.296 460.197> 618 28<19 52 211 245 391 424 582 614>
VStem: 92 81<37.9463 613.762> 463 81<38.9907 613.347>
LayerCount: 2
Fore
SplineSet
458 0 m 2
 172 0 l 2
 157 0 142 0 127 0 c 2
 20 -2 l 1
 17 0 l 1
 17 17 l 2
 17 22 21 27 26 27 c 2
 52 29 l 2
 85 32 92 35 92 75 c 2
 92 570 l 2
 92 609 86 614 52 616 c 2
 22 618 l 2
 19 618 17 619 17 623 c 2
 17 645 l 1
 19 646 l 1
 127 645 l 1
 245 646 l 1
 247 645 l 1
 247 623 l 2
 247 620 245 618 241 618 c 2
 211 616 l 2
 179 614 173 610 173 570 c 2
 173 83 l 2
 173 42 180 37 211 37 c 2
 424 37 l 2
 459 37 463 51 463 83 c 2
 463 570 l 2
 463 602 460 614 424 616 c 2
 394 618 l 2
 391 618 389 619 389 623 c 2
 389 645 l 1
 391 646 l 1
 499 645 l 1
 614 646 l 1
 617 645 l 1
 617 623 l 2
 617 620 615 618 611 618 c 2
 582 616 l 2
 545 613 544 603 544 570 c 2
 544 77 l 2
 544 52 560 30 584 27 c 0
 609 24 613 16 614 7 c 2
 620 -141 l 1
 593 -142 l 1
 579 -71 535 0 458 0 c 2
EndSplineSet
EndChar

StartChar: afii10041
Encoding: 1063 1063 86
Width: 633
VWidth: 999
Flags: HW
HStem: -2 29<362 394 584 617> 250 58<211.228 364.049> 618 28<10 42 232 265 361 394 584 616>
VStem: 97 81<342.847 609.08> 449 80<35.9646 317 342.244 608.625>
LayerCount: 2
Fore
SplineSet
97 571 m 2
 97 602 82 613 42 616 c 2
 16 618 l 2
 12 618 8 621 8 626 c 2
 8 645 l 1
 10 646 l 1
 10 646 97 645 136 645 c 0
 171 645 265 646 265 646 c 1
 267 645 l 1
 267 626 l 2
 267 621 264 618 259 618 c 2
 232 616 l 2
 190 613 178 599 178 571 c 2
 178 417 l 2
 178 335 220 308 292 308 c 0
 321 308 385 312 449 355 c 1
 449 572 l 2
 449 602 433 613 394 616 c 2
 368 618 l 2
 363 618 359 621 359 626 c 2
 359 645 l 1
 361 646 l 1
 361 646 448 645 487 645 c 0
 523 645 616 646 616 646 c 1
 618 645 l 1
 618 626 l 2
 618 621 615 618 610 618 c 2
 584 616 l 2
 544 613 529 600 529 572 c 2
 529 73 l 2
 529 43 544 32 584 29 c 2
 610 27 l 2
 615 27 619 24 619 19 c 2
 619 0 l 1
 617 -2 l 1
 617 -2 530 0 491 0 c 0
 455 0 362 -2 362 -2 c 1
 360 0 l 1
 360 19 l 2
 360 24 363 27 368 27 c 2
 394 29 l 2
 437 32 449 45 449 73 c 2
 449 317 l 1
 376 266 308 250 250 250 c 0
 136 250 97 329 97 428 c 2
 97 571 l 2
EndSplineSet
EndChar

StartChar: afii10042
Encoding: 1064 1064 87
Width: 962
VWidth: 487
Flags: HW
HStem: -2 29<34 101.198 861.703 930> 0 34<190.019 436.591 525.39 772.361> 618 28<19 52 242 271 355 386 576 605 691 722 912 944>
VStem: 106 81<35.9437 608.51> 440 81<35.9512 608.88> 776 81<35.6524 608.179>
LayerCount: 2
Fore
SplineSet
857 572 m 2
 857 71 l 2
 857 36 864 29 896 28 c 2
 926 27 l 2
 930 27 932 25 932 22 c 2
 932 0 l 1
 930 -2 l 1
 815 0 l 1
 180 0 l 1
 34 -2 l 1
 32 0 l 1
 32 22 l 2
 32 25 34 27 37 27 c 2
 67 28 l 2
 100 29 106 37 106 76 c 2
 106 572 l 2
 106 602 90 613 52 616 c 2
 25 618 l 2
 21 618 17 621 17 626 c 2
 17 645 l 1
 19 646 l 1
 19 646 106 645 145 645 c 0
 181 645 271 646 271 646 c 1
 273 645 l 1
 273 626 l 2
 273 621 271 618 266 618 c 2
 242 616 l 2
 202 613 187 600 187 572 c 2
 187 83 l 2
 187 51 187 34 226 34 c 2
 407 34 l 2
 438 34 440 52 440 83 c 2
 440 572 l 2
 440 602 424 613 386 616 c 2
 362 618 l 2
 357 618 354 621 354 626 c 2
 354 645 l 1
 355 646 l 1
 355 646 440 645 479 645 c 0
 515 645 605 646 605 646 c 1
 607 645 l 1
 607 626 l 2
 607 621 604 618 600 618 c 2
 576 616 l 2
 532 612 521 600 521 572 c 2
 521 83 l 2
 521 53 525 34 558 34 c 2
 737 34 l 2
 770 34 776 44 776 83 c 2
 776 572 l 2
 776 602 756 613 722 616 c 2
 698 618 l 2
 693 618 689 621 689 626 c 2
 689 645 l 1
 691 646 l 1
 691 646 776 645 815 645 c 0
 851 645 944 646 944 646 c 1
 946 645 l 1
 946 626 l 2
 946 621 943 618 938 618 c 2
 912 616 l 2
 874 613 857 600 857 572 c 2
EndSplineSet
EndChar

StartChar: afii10043
Encoding: 1065 1065 88
Width: 965
VWidth: 487
Flags: HMW
HStem: -2 29<34 67> 0 34<191.235 436.719 525.256 772.56> 618 28<19 52 242 271 355 386 576 605 691 722 869.125 944>
VStem: 106 81<36.2848 608.73> 440 81<36.9391 608.603> 776 81<35.7084 609.461>
LayerCount: 2
Fore
SplineSet
187 572 m 2
 187 83 l 2
 187 53 190 34 226 34 c 2
 399 34 l 2
 437 34 440 47 440 83 c 2
 440 572 l 2
 440 602 424 613 386 616 c 2
 362 618 l 2
 357 618 354 621 354 626 c 2
 354 645 l 1
 355 646 l 1
 355 646 440 645 479 645 c 0
 515 645 605 646 605 646 c 1
 607 645 l 1
 607 626 l 2
 607 621 604 618 600 618 c 2
 576 616 l 2
 535 613 521 600 521 572 c 2
 521 83 l 2
 521 47 526 34 569 34 c 2
 737 34 l 2
 772 34 776 47 776 83 c 2
 776 572 l 2
 776 602 762 613 722 616 c 2
 698 618 l 2
 693 618 689 621 689 626 c 2
 689 645 l 1
 691 646 l 1
 691 646 776 645 815 645 c 0
 851 645 944 646 944 646 c 1
 946 645 l 1
 946 626 l 2
 946 621 943 618 938 618 c 2
 912 616 l 1
 871 616 857 600 857 572 c 2
 857 81 l 2
 857 42 882 30 897 27 c 0
 915 23 926 21 927 4 c 2
 934 -141 l 1
 906 -142 l 1
 899 -98 861 0 775 0 c 2
 147 0 l 1
 34 -2 l 1
 32 0 l 1
 32 22 l 2
 32 25 34 27 37 27 c 2
 67 29 l 2
 99 31 106 33 106 72 c 2
 106 572 l 2
 106 602 91 613 52 616 c 2
 25 618 l 2
 21 618 17 621 17 626 c 2
 17 645 l 1
 19 646 l 1
 19 646 106 645 145 645 c 0
 181 645 271 646 271 646 c 1
 273 645 l 1
 273 626 l 2
 273 621 271 618 266 618 c 2
 242 616 l 2
 201 613 187 600 187 572 c 2
EndSplineSet
EndChar

StartChar: afii10044
Encoding: 1066 1066 89
Width: 717
VWidth: 999
Flags: HMW
HStem: -2 30<178 210 353.828 491.526> 333 40<346 514.567> 605 40<115.773 261.594> 618 28<400 433>
VStem: 265 81<36.711 333 373 602.051> 592 89<103.729 266.225>
LayerCount: 2
Fore
SplineSet
346 333 m 1
 346 79 l 2
 346 46 351 28 405 28 c 0
 557 28 592 121 592 183 c 0
 592 243 562 333 433 333 c 2
 346 333 l 1
304 645 m 2
 339 645 433 646 433 646 c 1
 435 645 l 1
 435 626 l 2
 435 621 432 618 427 618 c 2
 400 616 l 2
 361 613 346 600 346 572 c 2
 346 373 l 1
 406 373 l 2
 652 373 681 272 681 183 c 0
 681 16 524 -2 403 -2 c 0
 367 -2 336 0 307 0 c 0
 271 0 178 -2 178 -2 c 1
 176 0 l 1
 176 19 l 2
 176 24 179 27 184 27 c 2
 210 29 l 2
 250 32 265 46 265 74 c 2
 265 564 l 2
 265 591 254 605 226 605 c 2
 164 605 l 2
 98 605 64 512 56 469 c 1
 26 474 l 1
 35 530 40 583 42 645 c 1
 129 645 304 645 304 645 c 2
EndSplineSet
EndChar

StartChar: afii10045
Encoding: 1067 1067 90
Width: 786
VWidth: 999
Flags: HW
HStem: -2 29<19 100 191 352> 0 29<511 592 684 766> 333 39<187 364> 618 29<19 100 192 274> 619 29<511 593 685 766>
VStem: 106 81<33 333 373 612> 433 89<104 266> 598 81<34 613>
LayerCount: 2
Fore
SplineSet
679 575 m 2
 679 72 l 2
 679 42 694 33 734 30 c 2
 760 28 l 2
 764 28 768 25 768 20 c 2
 768 1 l 1
 766 -1 l 1
 718 1 689 1 639 1 c 0
 589 1 561 1 512 -1 c 1
 510 1 l 1
 510 20 l 2
 510 25 513 28 517 28 c 2
 544 30 l 2
 586 33 598 44 598 72 c 2
 598 575 l 2
 598 605 583 614 544 617 c 2
 517 619 l 2
 513 619 509 622 509 627 c 2
 509 646 l 1
 511 647 l 1
 561 646 588 646 638 646 c 0
 688 646 717 646 766 647 c 1
 768 646 l 1
 768 627 l 2
 768 622 765 619 760 619 c 2
 734 617 l 2
 694 614 679 603 679 575 c 2
106 572 m 2
 106 600 91 613 51 616 c 2
 25 618 l 2
 20 618 17 621 17 626 c 2
 17 645 l 1
 19 646 l 1
 19 646 112 645 148 645 c 0
 187 645 274 646 274 646 c 1
 276 645 l 1
 276 626 l 2
 276 621 272 618 268 618 c 2
 241 616 l 2
 203 613 187 602 187 572 c 2
 187 373 l 1
 247 373 l 2
 493 373 522 272 522 183 c 0
 522 16 365 -2 244 -2 c 0
 208 -2 177 0 148 0 c 0
 120 0 19 -2 19 -2 c 1
 17 0 l 1
 17 19 l 2
 17 24 20 27 25 27 c 2
 51 29 l 2
 92 32 106 46 106 74 c 2
 106 572 l 2
187 333 m 1
 187 79 l 2
 187 46 191 28 246 28 c 0
 398 28 433 121 433 183 c 0
 433 243 402 333 274 333 c 2
 187 333 l 1
EndSplineSet
EndChar

StartChar: afii10046
Encoding: 1068 1068 91
Width: 558
VWidth: 999
Flags: HW
HStem: -2 29<19 100 191 352> 333 39<187 364> 618 29<19 100 192 274>
VStem: 106 81<33 333 373 612> 433 89<104 266>
LayerCount: 2
Fore
SplineSet
106 572 m 2
 106 600 91 613 51 616 c 2
 25 618 l 2
 20 618 17 621 17 626 c 2
 17 645 l 1
 19 646 l 1
 19 646 112 645 148 645 c 0
 187 645 274 646 274 646 c 1
 276 645 l 1
 276 626 l 2
 276 621 272 618 268 618 c 2
 241 616 l 2
 203 613 187 602 187 572 c 2
 187 373 l 1
 247 373 l 2
 493 373 522 272 522 183 c 0
 522 16 365 -2 244 -2 c 0
 208 -2 177 0 148 0 c 0
 120 0 19 -2 19 -2 c 1
 17 0 l 1
 17 19 l 2
 17 24 20 27 25 27 c 2
 51 29 l 2
 92 32 106 46 106 74 c 2
 106 572 l 2
187 333 m 1
 187 79 l 2
 187 46 191 28 246 28 c 0
 398 28 433 121 433 183 c 0
 433 243 402 333 274 333 c 2
 187 333 l 1
EndSplineSet
EndChar

StartChar: afii10047
Encoding: 1069 1069 92
Width: 604
VWidth: 999
Flags: HMW
HStem: -12 34<194 359> 273 56<309 422> 311 49<155 284> 621 37<189 346>
VStem: 472 89<186 307 344 460>
LayerCount: 2
Fore
SplineSet
472 307 m 1
 417 273 373 273 360 273 c 0
 298 273 255 311 196 311 c 0
 158 311 142 295 134 295 c 0
 130 295 125 298 125 307 c 0
 125 332 188 360 247 360 c 0
 313 360 342 329 400 329 c 0
 429 329 452 335 471 344 c 1
 461 550 352 621 271 621 c 0
 176 621 98 540 72 454 c 1
 42 458 l 1
 53 511 61 558 63 613 c 1
 121 616 174 658 279 658 c 0
 444 658 561 550 561 333 c 0
 561 113 445 -12 275 -12 c 0
 189 -12 133 19 102 43 c 0
 75 64 54 95 54 122 c 0
 54 148 66 165 84 165 c 0
 113 165 125 152 135 120 c 0
 159 48 214 21 286 21 c 0
 413 21 471 169 472 307 c 1
EndSplineSet
EndChar

StartChar: afii10048
Encoding: 1070 1070 93
Width: 905
VWidth: 999
Flags: HW
HStem: -12 34<522.79 654.127> -2 29<20 52 242 274> 305 39<187 285> 618 28<19 52 242 274> 624 34<500.207 639.641>
VStem: 106 81<35.8732 305 344 608.613> 285 91<191.359 305 344 446.869> 775 91<190.414 458.78>
LayerCount: 2
Fore
SplineSet
866 329 m 0
 866 129 752 -12 574 -12 c 0
 416 -12 287 111 285 305 c 1
 187 305 l 1
 187 73 l 2
 187 43 202 32 242 29 c 2
 268 27 l 2
 272 27 276 24 276 19 c 2
 276 0 l 1
 274 -2 l 1
 274 -2 188 0 148 0 c 0
 113 0 20 -2 20 -2 c 1
 18 0 l 1
 18 19 l 2
 18 24 21 27 25 27 c 2
 52 29 l 2
 93 32 106 45 106 73 c 2
 106 572 l 2
 106 602 91 613 52 616 c 2
 25 618 l 2
 21 618 17 621 17 626 c 2
 17 645 l 1
 19 646 l 1
 19 646 106 645 145 645 c 0
 181 645 274 646 274 646 c 1
 276 645 l 1
 276 626 l 2
 276 621 273 618 268 618 c 2
 242 616 l 2
 202 613 187 600 187 572 c 2
 187 344 l 1
 286 344 l 1
 299 523 417 658 573 658 c 0
 741 658 866 527 866 329 c 0
562 624 m 0
 478 624 376 537 376 327 c 0
 376 135 484 22 592 22 c 0
 695 22 775 131 775 310 c 0
 775 518 687 624 562 624 c 0
EndSplineSet
EndChar

StartChar: afii10049
Encoding: 1071 1071 94
Width: 561
VWidth: 999
Flags: HW
HStem: -2 29<11 26 286 318 508 541> 323 39<287.282 373> 611 35<199.954 371.324> 618 28<507 544>
VStem: 69 81<416.932 568.061> 373 81<35.9306 323 362 607.704>
LayerCount: 2
Fore
SplineSet
373 323 m 1
 267 323 252 282 216 180 c 0
 177 70 148 0 77 -1 c 2
 11 -2 l 1
 10 0 l 1
 10 19 l 2
 10 24 13 27 17 27 c 2
 26 28 l 2
 58 32 109 103 162 236 c 0
 178 277 192 311 218 329 c 1
 150 339 69 385 69 487 c 0
 69 556 103 646 289 646 c 0
 324 646 383 645 416 645 c 0
 447 645 544 646 544 646 c 1
 544 625 l 2
 544 621 542 618 537 618 c 2
 507 616 l 2
 465 613 454 606 454 572 c 2
 454 73 l 2
 454 43 467 32 508 29 c 2
 535 27 l 2
 539 27 543 24 543 19 c 2
 543 0 l 1
 541 -2 l 1
 541 -2 454 0 415 0 c 0
 379 0 286 -2 286 -2 c 1
 284 0 l 1
 284 19 l 2
 284 24 287 27 292 27 c 2
 318 29 l 2
 360 32 373 45 373 73 c 2
 373 323 l 1
373 575 m 2
 373 608 369 611 282 611 c 0
 226 611 150 595 150 502 c 0
 150 396 212 362 295 362 c 2
 373 362 l 1
 373 575 l 2
EndSplineSet
EndChar

StartChar: afii10089
Encoding: 1095 1095 95
Width: 510
VWidth: 999
Flags: HW
HStem: -2 29<274 294 450 470> 146 35<165.488 293.187> 402 29<18 30 186 206 275 294 415.352 480>
VStem: 71 75<194.637 397.49> 335 75<32.4718 189 207.909 398.291>
LayerCount: 2
Fore
SplineSet
335 353 m 2
 335 392 329 399 294 401 c 2
 279 402 l 2
 275 402 273 403 273 407 c 2
 273 429 l 1
 275 431 l 1
 275 431 332 429 368 429 c 0
 412 429 480 431 480 431 c 1
 481 429 l 1
 481 407 l 2
 481 404 479 402 476 402 c 2
 450 401 l 2
 419 400 410 394 410 353 c 2
 410 78 l 2
 410 40 413 33 450 29 c 2
 467 27 l 2
 470 27 472 25 472 22 c 2
 472 0 l 1
 470 -2 l 1
 470 -2 411 0 374 0 c 0
 333 0 274 -2 274 -2 c 1
 272 0 l 1
 272 21 l 2
 272 25 274 27 278 27 c 2
 294 29 l 2
 330 34 335 39 335 78 c 2
 335 189 l 1
 296 160 264 146 204 146 c 0
 106 146 71 191 71 297 c 2
 71 354 l 2
 71 392 64 397 30 401 c 2
 22 402 l 2
 19 402 17 403 17 407 c 2
 17 429 l 1
 18 431 l 1
 18 431 72 429 106 429 c 0
 145 429 206 431 206 431 c 1
 207 429 l 1
 207 408 l 2
 207 404 205 402 201 402 c 2
 186 401 l 2
 153 399 146 391 146 359 c 2
 146 293 l 2
 146 215 153 181 215 181 c 0
 264 181 303 193 335 225 c 1
 335 353 l 2
EndSplineSet
EndChar

StartChar: afii10090
Encoding: 1096 1096 96
Width: 818
VWidth: 999
Flags: HW
HStem: -2 29<33 63 750 784> 0 34<182.117 365.221 449.273 630.268> 402 29<33 63 219 242 305 329 484 513 565 594 750 775>
VStem: 103 75<35.9712 397.122> 369 75<36.284 396.916> 635 75<36.4002 397.278>
CounterMasks: 1 1c
LayerCount: 2
Fore
SplineSet
710 353 m 2
 710 71 l 2
 710 35 717 31 750 29 c 2
 781 27 l 2
 785 27 787 24 787 21 c 2
 787 0 l 1
 784 -2 l 1
 670 0 l 1
 137 0 l 1
 33 -2 l 1
 32 0 l 1
 32 22 l 2
 32 25 33 27 37 27 c 2
 63 29 l 2
 98 32 103 39 103 72 c 2
 103 353 l 2
 103 391 99 397 63 400 c 2
 37 402 l 2
 34 402 32 403 32 407 c 2
 32 429 l 1
 33 431 l 1
 141 429 l 1
 242 431 l 1
 244 429 l 1
 244 408 l 2
 244 404 242 402 238 402 c 2
 219 400 l 2
 186 396 178 394 178 353 c 2
 178 85 l 2
 178 45 184 34 219 34 c 2
 329 34 l 2
 364 34 369 47 369 84 c 2
 369 352 l 2
 369 391 362 397 329 400 c 2
 309 402 l 2
 306 402 304 403 304 407 c 2
 304 429 l 1
 305 431 l 1
 405 429 l 1
 513 431 l 1
 514 429 l 1
 514 407 l 2
 514 404 512 402 508 402 c 2
 484 400 l 2
 453 397 444 393 444 352 c 2
 444 85 l 2
 444 43 456 34 484 34 c 2
 595 34 l 2
 632 34 635 54 635 85 c 2
 635 353 l 2
 635 391 631 397 594 400 c 2
 570 402 l 2
 566 402 564 403 564 407 c 2
 564 429 l 1
 565 431 l 1
 669 429 l 1
 775 431 l 1
 776 429 l 1
 776 408 l 2
 776 404 774 402 771 402 c 2
 750 400 l 2
 718 397 710 394 710 353 c 2
EndSplineSet
EndChar

StartChar: afii10091
Encoding: 1097 1097 97
Width: 809
VWidth: 999
Flags: HMW
HStem: -2 29<33 63> 0 34<181.744 365.221 448.881 630.687> 402 29<33 63 219 242 305 329 484 513 565 594 750 775>
VStem: 104 74<35.7845 397.151> 369 75<36.1619 397.035> 635 74<36.5977 397.021>
LayerCount: 2
Fore
SplineSet
709 353 m 2
 709 74 l 2
 709 49 723 30 746 27 c 0
 759 25 773 23 774 5 c 2
 780 -128 l 1
 755 -129 l 1
 743 -80 716 0 636 0 c 2
 137 0 l 1
 33 -2 l 1
 32 0 l 1
 32 21 l 2
 32 25 33 27 37 27 c 2
 63 29 l 2
 96 32 104 37 104 72 c 2
 104 353 l 2
 104 391 98 397 63 400 c 2
 37 402 l 2
 34 402 32 403 32 407 c 2
 32 429 l 1
 33 431 l 1
 140 429 l 1
 242 431 l 1
 244 429 l 1
 244 408 l 2
 244 404 242 402 238 402 c 2
 219 400 l 2
 186 396 178 394 178 353 c 2
 178 83 l 2
 178 44 184 34 219 34 c 2
 329 34 l 2
 364 34 369 46 369 83 c 2
 369 352 l 2
 369 391 362 397 329 400 c 2
 309 402 l 2
 306 402 304 403 304 407 c 2
 304 429 l 1
 305 431 l 1
 406 429 l 1
 513 431 l 1
 514 429 l 1
 514 407 l 2
 514 404 512 402 508 402 c 2
 484 400 l 2
 449 397 444 393 444 352 c 2
 444 83 l 2
 444 42 456 34 485 34 c 2
 594 34 l 2
 631 34 635 51 635 84 c 2
 635 353 l 2
 635 391 627 397 594 400 c 2
 570 402 l 2
 566 402 564 403 564 407 c 2
 564 429 l 1
 565 431 l 1
 667 429 l 1
 775 431 l 1
 776 429 l 1
 776 408 l 2
 776 404 774 402 771 402 c 2
 750 400 l 2
 715 397 709 394 709 353 c 2
EndSplineSet
EndChar

StartChar: afii10092
Encoding: 1098 1098 98
Width: 537
VWidth: 999
Flags: HMW
HStem: -2 31<128 153 280.978 394.853> 224 32<271 396.312> 392 37<95.6091 193.705> 402 29<311 345>
VStem: 196 75<35.7372 224 256 391.315> 431 75<61.062 196.916>
LayerCount: 2
Fore
SplineSet
196 74 m 2
 196 347 l 2
 196 384 189 392 167 392 c 0
 85 392 70 357 53 275 c 1
 26 280 l 1
 33 326 37 371 38 429 c 1
 234 429 l 1
 345 431 l 1
 347 429 l 1
 347 407 l 2
 347 403 345 402 342 402 c 2
 311 400 l 2
 275 398 271 392 271 357 c 2
 271 256 l 1
 328 256 l 2
 424 256 506 230 506 136 c 0
 506 52 445 -2 333 -2 c 2
 333 -2 271 0 231 0 c 0
 191 0 128 -2 128 -2 c 1
 126 0 l 1
 126 19 l 2
 126 24 129 26 134 27 c 2
 153 29 l 2
 189 33 196 45 196 74 c 2
431 126 m 0
 431 179 409 224 338 224 c 2
 271 224 l 1
 271 78 l 2
 271 42 288 29 334 29 c 0
 384 29 431 44 431 126 c 0
EndSplineSet
EndChar

StartChar: afii10093
Encoding: 1099 1099 99
Width: 681
VWidth: 999
Flags: HW
HStem: -2 29<39 102 185 314 439 503 587 650> 224 32<181 314> 401 29<38 102 184 249> 402 29<439 503 585 650>
VStem: 106 75<34 224 256 398> 341 75<61 195> 507 75<30 399>
LayerCount: 2
Fore
SplineSet
508 356 m 2
 508 384 498 397 465 400 c 2
 446 402 l 2
 441 403 438 405 438 410 c 2
 438 429 l 1
 440 431 l 1
 440 431 509 429 545 429 c 0
 581 429 651 431 651 431 c 1
 653 429 l 1
 653 410 l 2
 653 405 649 403 644 402 c 2
 625 400 l 2
 595 397 583 384 583 356 c 2
 583 74 l 2
 583 45 594 32 625 29 c 2
 644 27 l 2
 649 26 653 24 653 19 c 2
 653 0 l 1
 651 -2 l 1
 651 -2 582 0 546 0 c 0
 510 0 440 -2 440 -2 c 1
 438 0 l 1
 438 19 l 2
 438 24 441 26 446 27 c 2
 465 29 l 2
 497 32 508 45 508 74 c 2
 508 356 l 2
341 126 m 0
 341 179 319 224 248 224 c 2
 181 224 l 1
 181 74 l 2
 181 39 198 29 244 29 c 0
 294 29 341 44 341 126 c 0
106 74 m 2
 106 355 l 2
 106 384 99 395 63 399 c 2
 44 401 l 2
 39 402 36 404 36 410 c 2
 36 428 l 1
 38 430 l 1
 38 430 106 429 142 429 c 0
 181 429 249 430 249 430 c 1
 251 428 l 1
 251 410 l 2
 251 404 247 401 243 401 c 2
 224 399 l 2
 191 396 181 384 181 355 c 2
 181 256 l 1
 238 256 l 2
 334 256 416 230 416 136 c 0
 416 52 354 -2 243 -2 c 0
 204 -2 181 0 142 0 c 0
 101 0 38 -2 38 -2 c 1
 36 0 l 1
 36 19 l 2
 36 24 39 26 44 27 c 2
 63 29 l 2
 99 33 106 45 106 74 c 2
EndSplineSet
EndChar

StartChar: afii10094
Encoding: 1100 1100 100
Width: 447
VWidth: 999
Flags: HW
HStem: -2 31<38 63 188.805 304.466> 224 32<181 306.312> 401 29<38 63 224 249>
VStem: 106 75<34.4717 224 256 394.233> 341 75<61.062 196.916>
LayerCount: 2
Fore
SplineSet
341 126 m 0
 341 179 319 224 248 224 c 2
 181 224 l 1
 181 74 l 2
 181 39 198 29 244 29 c 0
 294 29 341 44 341 126 c 0
106 74 m 2
 106 355 l 2
 106 384 99 395 63 399 c 2
 44 401 l 2
 39 402 36 404 36 410 c 2
 36 428 l 1
 38 430 l 1
 38 430 106 429 142 429 c 0
 181 429 249 430 249 430 c 1
 251 428 l 1
 251 410 l 2
 251 404 247 401 243 401 c 2
 224 399 l 2
 191 396 181 384 181 355 c 2
 181 256 l 1
 238 256 l 2
 334 256 416 230 416 136 c 0
 416 52 354 -2 243 -2 c 0
 204 -2 181 0 142 0 c 0
 101 0 38 -2 38 -2 c 1
 36 0 l 1
 36 19 l 2
 36 24 39 26 44 27 c 2
 63 29 l 2
 99 33 106 45 106 74 c 2
EndSplineSet
EndChar

StartChar: afii10095
Encoding: 1101 1101 101
Width: 434
VWidth: 999
Flags: HMW
HStem: -10 31<133.489 237.744> 180 49<160.832 302.074> 207 41<92.6331 188.46> 408 31<122.738 236.146>
VStem: 314 77<116.594 208 230.421 318.818>
LayerCount: 2
Fore
SplineSet
313 236 m 1
 306 309 272 408 182 408 c 0
 102 408 81 351 67 290 c 1
 40 294 l 1
 46 338 49 372 51 427 c 1
 121 427 121 439 192 439 c 0
 315 439 391 335 391 225 c 0
 391 68 284 -10 178 -10 c 0
 96 -10 37 34 37 86 c 0
 37 100 49 115 67 115 c 0
 78 115 100 111 105 78 c 0
 111 44 142 21 185 21 c 0
 279 21 314 130 314 208 c 1
 292 196 259 180 228 180 c 0
 184 180 155 207 120 207 c 0
 108 207 98 202 90 202 c 0
 84 202 83 211 83 215 c 0
 83 230 128 248 171 248 c 0
 216 248 233 229 271 229 c 0
 287 229 301 231 313 236 c 1
EndSplineSet
EndChar

StartChar: afii10096
Encoding: 1102 1102 102
Width: 686
VWidth: 999
Flags: HW
HStem: -10 35<422.78 523.403> -2 29<29 54 214 240> 198 39<171 268> 402 29<29 54 214 240> 406 33<403.08 503.112>
VStem: 97 74<33.7976 198 237 394.785> 268 80<113.871 198 237 323.327> 569 80<107.111 329.997>
LayerCount: 2
Fore
SplineSet
449 406 m 0
 375 406 348 313 348 226 c 0
 348 149 381 25 475 25 c 0
 516 25 569 53 569 185 c 0
 569 331 527 406 449 406 c 0
269 237 m 1
 279 356 344 439 459 439 c 0
 603 439 649 321 649 217 c 0
 649 117 597 -10 458 -10 c 0
 330 -10 270 97 268 198 c 1
 171 198 l 1
 171 74 l 2
 171 45 182 32 214 29 c 2
 233 27 l 2
 238 26 242 24 242 19 c 2
 242 0 l 1
 240 -2 l 1
 240 -2 171 0 132 0 c 0
 97 0 29 -2 29 -2 c 1
 27 0 l 1
 27 19 l 2
 27 24 30 26 35 27 c 2
 54 29 l 2
 86 32 97 45 97 74 c 2
 97 356 l 2
 97 384 87 397 54 400 c 2
 35 402 l 2
 30 403 27 405 27 410 c 2
 27 429 l 1
 29 431 l 1
 29 431 97 429 132 429 c 0
 171 429 240 431 240 431 c 1
 242 429 l 1
 242 410 l 2
 242 405 238 403 233 402 c 2
 214 400 l 2
 183 397 171 384 171 356 c 2
 171 237 l 1
 269 237 l 1
EndSplineSet
EndChar

StartChar: afii10097
Encoding: 1103 1103 103
Width: 429
VWidth: 999
Flags: HW
HStem: -2 29<20 35 214 235 350.164 398> 195 35<206.934 270> 204 26<156.293 175> 402 29<152.094 267.495 370 396>
VStem: 43 75<256.504 373.636> 270 75<29.5344 195 230 399.607>
LayerCount: 2
Fore
SplineSet
270 230 m 1
 270 366 l 2
 270 398 263 402 224 402 c 0
 138 402 118 368 118 321 c 0
 118 271 146 230 203 230 c 2
 270 230 l 1
110 136 m 0
 126 177 147 198 175 204 c 1
 120 204 43 239 43 310 c 0
 43 339 56 431 227 431 c 0
 303 431 277 429 309 429 c 0
 343 429 396 431 396 431 c 1
 398 429 l 1
 398 405 l 2
 398 403 397 402 395 402 c 2
 370 400 l 2
 352 399 345 391 345 370 c 2
 345 77 l 2
 345 51 350 29 366 28 c 2
 388 27 l 2
 396 27 398 20 398 18 c 2
 398 -2 l 1
 398 -2 342 0 307 0 c 0
 271 0 214 -2 214 -2 c 1
 214 20 l 2
 214 24 216 27 220 27 c 2
 235 28 l 2
 268 30 270 38 270 77 c 2
 270 195 l 1
 243 195 l 2
 203 195 179 145 159 84 c 0
 145 43 115 0 83 -1 c 2
 20 -2 l 1
 17 0 l 1
 17 19 l 2
 17 26 23 27 27 27 c 2
 35 28 l 2
 62 31 96 98 110 136 c 0
EndSplineSet
EndChar

StartChar: uni04AE
Encoding: 1198 1198 104
Width: 574
VWidth: 999
Flags: HW
HStem: -2 29<167 248 340 422> 618 29<1 49 168 222 394 394 394 449 497 573 573 573>
VStem: 254 81<33 281>
DStem2: 175 576 84 574 0.502344 -0.864668<0 272.808> 315 341 334 293 0.468593 0.883414<0 266.539>
LayerCount: 2
Fore
SplineSet
254 72 m 2
 254 259 l 2
 254 270 251 293 245 302 c 2
 100 547 l 2
 68 600 58 614 22 617 c 2
 10 618 l 2
 7 618 0 619 0 625 c 2
 0 645 l 1
 1 646 l 1
 1 646 94 645 107 645 c 0
 113 645 222 646 222 646 c 1
 223 645 l 1
 223 626 l 2
 223 622 221 618 217 618 c 2
 188 617 l 2
 153 616 160 602 175 576 c 2
 312 335 l 1
 314 335 l 1
 442 576 l 2
 459 607 450 615 428 616 c 2
 398 618 l 2
 394 618 393 622 393 625 c 2
 393 645 l 1
 394 646 l 1
 394 646 473 645 486 645 c 0
 495 645 573 646 573 646 c 1
 575 645 l 1
 575 625 l 2
 575 620 571 619 565 618 c 2
 544 616 l 2
 509 613 499 595 482 565 c 2
 341 310 l 2
 336 299 334 286 334 268 c 2
 334 72 l 2
 334 41 350 27 389 27 c 2
 416 27 l 2
 420 27 424 24 424 19 c 2
 424 0 l 1
 422 -2 l 1
 422 -2 335 0 296 0 c 0
 260 0 167 -2 167 -2 c 1
 165 0 l 1
 165 19 l 2
 165 24 168 27 173 27 c 2
 199 27 l 2
 240 27 254 44 254 72 c 2
EndSplineSet
EndChar

StartChar: uni04C0
Encoding: 1216 1216 105
Width: 293
VWidth: 999
Flags: HW
HStem: -2 29<20 100 192 274> 618 29<19 101 193 274>
VStem: 106 81<33 612>
LayerCount: 2
Fore
SplineSet
187 574 m 2
 187 71 l 2
 187 41 202 32 242 29 c 2
 268 27 l 2
 272 27 276 24 276 19 c 2
 276 0 l 1
 274 -2 l 1
 226 0 197 0 147 0 c 0
 97 0 69 0 20 -2 c 1
 18 0 l 1
 18 19 l 2
 18 24 21 27 25 27 c 2
 52 29 l 2
 94 32 106 43 106 71 c 2
 106 574 l 2
 106 604 91 613 52 616 c 2
 25 618 l 2
 21 618 17 621 17 626 c 2
 17 645 l 1
 19 646 l 1
 69 645 96 645 146 645 c 0
 196 645 225 645 274 646 c 1
 276 645 l 1
 276 626 l 2
 276 621 273 618 268 618 c 2
 242 616 l 2
 202 613 187 602 187 574 c 2
EndSplineSet
EndChar

StartChar: uni04D0
Encoding: 1232 1232 106
Width: 695
VWidth: 999
Flags: HW
HStem: -2 29<4 4 4 75 136 217 217 217 438 439 439 518 616 652 652 687> 244 39<237 438> 648 10<351 365> 698 31<310 410>
VStem: 234 69<737 803> 414 69<736 789>
DStem2: 95 81 140 72 0.392235 0.919865<9.08603 526.758> 390 628 339 550 0.353155 -0.935565<55.4419 565.088>
LayerCount: 2
Fore
SplineSet
483 775 m 0
 483 723 421 698 358 698 c 0
 292 698 234 722 234 774 c 0
 234 796 246 805 273 805 c 0
 294 805 304 789 304 774 c 0
 304 772 303 767 303 766 c 0
 303 746 326 729 359 729 c 0
 389 729 414 743 414 765 c 0
 414 766 413 773 413 774 c 0
 413 789 422 805 445 805 c 0
 471 805 483 795 483 775 c 0
263 283 m 2
 437 283 l 1
 339 550 l 1
 338 550 l 1
 238 296 l 2
 234 286 247 283 263 283 c 2
152 79 m 2
 142 54 155 32 192 29 c 2
 221 27 l 2
 225 27 229 24 229 19 c 2
 229 0 l 1
 227 -2 l 1
 227 -2 118 0 94 0 c 0
 68 0 4 -2 4 -2 c 1
 2 0 l 1
 2 19 l 2
 2 24 5 27 10 27 c 0
 54 30 79 38 107 102 c 2
 329 622 l 2
 338 643 352 658 364 658 c 0
 375 658 382 648 390 628 c 2
 595 86 l 2
 609 47 629 32 669 28 c 2
 680 27 l 2
 685 27 690 24 690 19 c 2
 690 0 l 1
 687 -2 l 1
 687 -2 610 0 571 0 c 0
 536 0 438 -2 438 -2 c 1
 437 0 l 1
 437 19 l 2
 437 24 439 27 444 27 c 2
 472 29 l 2
 510 32 524 44 514 72 c 2
 453 241 l 1
 245 241 l 2
 221 241 215 237 210 224 c 2
 152 79 l 2
EndSplineSet
LCarets2: 1 0 
EndChar

StartChar: uni04D1
Encoding: 1233 1233 107
Width: 451
VWidth: 999
Flags: HW
HStem: -12 41<132 238> -12 48<342 413> 412 30<136 257> 489 30<167 252>
VStem: 39 72<50 173> 50 80<297 344 320 381> 88 71<526 588 571 606> 259 71<526 588 571 606> 291 74<80 245 278 372> 418 24<49 83>
DStem2: 199 255 212 225 0.970142 0.242536<-76.9526 86.5693>
LayerCount: 2
Fore
SplineSet
330 577 m 0
 330 522 272 489 208 489 c 0
 143 489 88 522 88 576 c 0
 88 594 104 609 127 609 c 0
 149 609 161 595 161 579 c 0
 161 576 161 574 160 571 c 0
 159 568 159 565 159 563 c 0
 159 541 179 520 209 520 c 0
 238 520 259 540 259 562 c 0
 259 565 259 568 258 571 c 0
 257 573 257 575 257 578 c 0
 257 595 274 609 292 609 c 0
 316 609 330 596 330 577 c 0
291 233 m 1
 212 212 l 2
 138 192 115 147 115 102 c 0
 115 71 139 31 189 31 c 0
 217 31 251 53 277 74 c 0
 285 80 291 87 291 100 c 2
 291 233 l 1
291 48 m 1
 289 48 l 1
 269 32 l 2
 225 -2 206 -10 160 -10 c 0
 90 -10 36 19 36 98 c 0
 36 166 103 219 199 243 c 2
 285 264 l 2
 288 265 291 269 291 276 c 0
 291 389 244 409 210 409 c 0
 172 409 127 395 127 364 c 0
 127 353 128 347 129 344 c 0
 131 340 132 333 132 326 c 0
 132 313 117 293 88 293 c 0
 65 293 53 304 53 328 c 0
 53 382 136 439 218 439 c 0
 291 439 365 412 365 270 c 2
 365 121 l 2
 365 75 366 34 405 34 c 0
 429 34 432 50 438 50 c 0
 442 50 449 42 449 35 c 0
 449 30 415 -10 366 -10 c 0
 313 -10 297 27 291 48 c 1
EndSplineSet
LCarets2: 1 0 
EndChar

StartChar: uni04D2
Encoding: 1234 1234 108
Width: 695
VWidth: 999
Flags: HW
HStem: -2 29<4 4 4 75 136 217 217 217 438 439 439 518 616 652 652 687> 244 39<237 438> 648 10<351 365> 712 91<239 316 399 477>
VStem: 232 91<719 796> 393 91<719 796>
DStem2: 95 81 140 72 0.392235 0.919865<9.08603 526.758> 390 628 339 550 0.353155 -0.935565<55.4419 565.088>
LayerCount: 2
Fore
SplineSet
392 758 m 0
 392 783 413 803 438 803 c 0
 463 803 483 783 483 758 c 0
 483 733 463 712 438 712 c 0
 413 712 392 733 392 758 c 0
232 758 m 0
 232 783 252 803 277 803 c 0
 302 803 323 783 323 758 c 0
 323 733 302 712 277 712 c 0
 252 712 232 733 232 758 c 0
263 283 m 2
 437 283 l 1
 339 550 l 1
 338 550 l 1
 238 296 l 2
 234 286 247 283 263 283 c 2
152 79 m 2
 142 54 155 32 192 29 c 2
 221 27 l 2
 225 27 229 24 229 19 c 2
 229 0 l 1
 227 -2 l 1
 227 -2 118 0 94 0 c 0
 68 0 4 -2 4 -2 c 1
 2 0 l 1
 2 19 l 2
 2 24 5 27 10 27 c 0
 54 30 79 38 107 102 c 2
 329 622 l 2
 338 643 352 658 364 658 c 0
 375 658 382 648 390 628 c 2
 595 86 l 2
 609 47 629 32 669 28 c 2
 680 27 l 2
 685 27 690 24 690 19 c 2
 690 0 l 1
 687 -2 l 1
 687 -2 610 0 571 0 c 0
 536 0 438 -2 438 -2 c 1
 437 0 l 1
 437 19 l 2
 437 24 439 27 444 27 c 2
 472 29 l 2
 510 32 524 44 514 72 c 2
 453 241 l 1
 245 241 l 2
 221 241 215 237 210 224 c 2
 152 79 l 2
EndSplineSet
LCarets2: 1 0 
EndChar

StartChar: uni04D3
Encoding: 1235 1235 109
Width: 451
VWidth: 999
Flags: HW
HStem: -12 41<132 238> -12 48<342 413> 412 30<136 257> 527 91<95 172 255 333>
VStem: 39 72<50 173> 50 80<297 344 320 381> 88 91<533 611> 249 91<533 611> 291 74<80 245 278 372> 418 24<49 83>
DStem2: 199 255 212 225 0.970142 0.242536<-76.9526 86.5693>
LayerCount: 2
Fore
SplineSet
248 573 m 0
 248 598 269 618 294 618 c 0
 319 618 339 598 339 573 c 0
 339 548 319 527 294 527 c 0
 269 527 248 548 248 573 c 0
88 573 m 0
 88 598 108 618 133 618 c 0
 158 618 179 598 179 573 c 0
 179 548 158 527 133 527 c 0
 108 527 88 548 88 573 c 0
291 233 m 1
 212 212 l 2
 138 192 115 147 115 102 c 0
 115 71 139 31 189 31 c 0
 217 31 251 53 277 74 c 0
 285 80 291 87 291 100 c 2
 291 233 l 1
291 48 m 1
 289 48 l 1
 269 32 l 2
 225 -2 206 -10 160 -10 c 0
 90 -10 36 19 36 98 c 0
 36 166 103 219 199 243 c 2
 285 264 l 2
 288 265 291 269 291 276 c 0
 291 389 244 409 210 409 c 0
 172 409 127 395 127 364 c 0
 127 353 128 347 129 344 c 0
 131 340 132 333 132 326 c 0
 132 313 117 293 88 293 c 0
 65 293 53 304 53 328 c 0
 53 382 136 439 218 439 c 0
 291 439 365 412 365 270 c 2
 365 121 l 2
 365 75 366 34 405 34 c 0
 429 34 432 50 438 50 c 0
 442 50 449 42 449 35 c 0
 449 30 415 -10 366 -10 c 0
 313 -10 297 27 291 48 c 1
EndSplineSet
LCarets2: 1 0 
EndChar

StartChar: uni04D4
Encoding: 1236 1236 110
Width: 865
VWidth: 999
Flags: HW
HStem: -2 29<4 4 4 81 136 198 198 198 342 424> 0 39<513 745> 266 39<271 429> 329 34<512 657> 605 39<516 714> 618 29<296 349>
VStem: 429 83<41 266 305 329 363 597> 670 34<250 285 407 444>
DStem2: 95 70 145 68 0.471137 0.88206<21.7421 572.666>
LayerCount: 2
Fore
SplineSet
271 305 m 1
 429 305 l 1
 429 575 l 2
 429 587 428 596 424 598 c 1
 271 305 l 1
471 0 m 2
 435 0 342 -2 342 -2 c 1
 340 0 l 1
 340 18 l 2
 340 23 343 27 348 27 c 2
 374 29 l 2
 416 32 429 46 429 74 c 2
 429 266 l 1
 251 266 l 1
 148 68 l 2
 129 32 131 31 167 29 c 2
 196 27 l 2
 200 27 202 23 202 21 c 2
 202 0 l 1
 201 -2 l 1
 201 -2 133 0 94 0 c 0
 59 0 4 -2 4 -2 c 1
 2 0 l 1
 2 19 l 2
 2 24 6 26 12 27 c 2
 35 29 l 2
 73 32 79 40 103 85 c 2
 361 577 l 2
 373 601 352 615 333 616 c 2
 302 618 l 2
 296 618 294 621 294 625 c 2
 294 645 l 1
 296 646 l 1
 472 645 l 1
 549 645 l 1
 771 645 l 1
 776 591 785 532 792 491 c 1
 763 486 l 1
 741 555 724 605 648 605 c 2
 548 605 l 2
 524 605 512 584 512 561 c 2
 512 363 l 1
 614 363 l 2
 649 363 658 379 665 407 c 1
 671 437 l 2
 672 441 675 445 679 445 c 2
 701 445 l 2
 703 445 704 443 704 441 c 0
 701 416 696 379 696 346 c 0
 696 312 702 267 704 250 c 1
 702 247 l 1
 679 247 l 2
 673 247 671 250 670 254 c 2
 665 285 l 1
 659 313 648 329 614 329 c 2
 512 329 l 1
 512 74 l 2
 512 47 526 39 548 39 c 2
 679 39 l 2
 755 39 785 100 805 172 c 1
 835 167 l 1
 824 115 813 56 809 0 c 1
 471 0 l 2
EndSplineSet
EndChar

StartChar: uni04D5
Encoding: 1237 1237 111
Width: 687
VWidth: 999
Flags: HW
HStem: 218 31<372 520> 412 30<132 239 431 547>
VStem: 39 72<54 156> 50 80<320 346 333 390> 298 72<118 215 253 336> 572 76<293 383>
LayerCount: 2
Fore
SplineSet
265 384 m 0
 250 399 228 409 207 409 c 0
 168 409 123 394 123 363 c 0
 123 353 124 346 126 343 c 0
 128 339 129 332 129 325 c 0
 129 309 115 292 90 292 c 0
 59 292 50 317 50 337 c 0
 50 395 128 439 210 439 c 0
 234 439 311 436 348 369 c 1
 381 414 433 439 490 439 c 0
 604 439 648 373 648 339 c 0
 648 258 590 230 371 218 c 1
 371 112 433 39 508 39 c 0
 562 39 594 59 624 94 c 1
 641 84 l 1
 612 30 560 -10 494 -10 c 0
 403 -10 360 34 340 59 c 1
 311 18 255 -10 200 -10 c 0
 95 -10 39 36 39 104 c 0
 39 198 128 238 298 250 c 1
 297 329 287 362 265 384 c 0
298 215 m 1
 173 205 111 160 111 109 c 0
 111 64 138 32 202 32 c 0
 238 32 272 51 289 101 c 0
 295 119 298 165 298 215 c 1
372 253 m 1
 512 261 572 275 572 336 c 0
 572 368 537 405 489 405 c 0
 421 405 380 338 372 253 c 1
EndSplineSet
EndChar

StartChar: uni04D6
Encoding: 1238 1238 112
Width: 549
VWidth: 999
Flags: HW
HStem: -2 29<14 97> 0 39<183 449> 327 34<182 361> 605 39<183 418> 618 29<14 98> 698 31<225 325>
VStem: 102 81<40 327 361 604> 149 69<737 803> 329 69<736 789> 375 34<248 283 405 442>
LayerCount: 2
Fore
SplineSet
398 775 m 0
 398 723 336 698 273 698 c 0
 207 698 149 722 149 774 c 0
 149 796 161 805 188 805 c 0
 209 805 219 789 219 774 c 0
 219 772 218 767 218 766 c 0
 218 746 241 729 274 729 c 0
 304 729 329 743 329 765 c 0
 329 766 328 773 328 774 c 0
 328 789 337 805 360 805 c 0
 386 805 398 795 398 775 c 0
445 646 m 0
 447 638 462 542 467 501 c 1
 438 496 l 1
 416 565 398 605 323 605 c 2
 218 605 l 2
 194 605 182 597 182 573 c 2
 182 361 l 1
 309 361 l 2
 344 361 356 375 359 403 c 2
 362 428 l 2
 362 432 365 436 369 436 c 2
 391 436 l 2
 394 436 395 434 395 432 c 2
 395 432 391 379 391 346 c 0
 391 312 395 255 395 255 c 1
 392 252 l 1
 369 252 l 2
 364 252 361 256 361 259 c 2
 359 285 l 2
 357 314 343 323 309 323 c 2
 182 323 l 1
 182 72 l 2
 182 45 196 39 218 39 c 2
 354 39 l 2
 430 39 469 98 489 170 c 1
 520 165 l 1
 508 113 494 50 483 -2 c 1
 483 -2 403 0 355 0 c 2
 142 0 l 1
 14 -2 l 1
 12 0 l 1
 12 20 l 2
 12 23 14 27 20 27 c 2
 50 29 l 2
 89 32 101 44 101 72 c 2
 101 573 l 2
 101 604 88 613 50 616 c 2
 20 618 l 2
 13 618 12 622 12 625 c 2
 12 645 l 1
 14 646 l 1
 14 646 115 645 142 645 c 2
 394 645 l 2
 418 645 424 646 441 649 c 0
 444 649 445 648 445 646 c 0
EndSplineSet
LCarets2: 1 0 
EndChar

StartChar: uni04D7
Encoding: 1239 1239 113
Width: 427
VWidth: 999
Flags: HW
HStem: -12 49<188 319> 238 39<114 309> 408 34<185 280> 490 30<181 266>
VStem: 34 76<126 275 277 312> 103 71<527 589 571 606> 273 71<527 589 571 607> 312 80<262 362>
LayerCount: 2
Fore
SplineSet
345 577 m 0
 345 522 287 489 223 489 c 0
 158 489 103 522 103 576 c 0
 103 594 119 609 142 609 c 0
 164 609 176 595 176 579 c 0
 176 576 176 574 175 571 c 0
 174 568 174 565 174 563 c 0
 174 541 194 520 224 520 c 0
 253 520 274 540 274 562 c 0
 274 565 274 568 273 571 c 0
 272 573 272 575 272 578 c 0
 272 595 289 609 307 609 c 0
 331 609 345 596 345 577 c 0
117 287 m 1
 301 287 l 2
 311 287 315 292 315 301 c 0
 315 385 268 405 232 405 c 0
 209 405 135 400 117 287 c 1
381 95 m 1
 401 79 l 1
 363 27 304 -10 232 -10 c 0
 95 -10 34 84 34 199 c 0
 34 351 137 439 232 439 c 0
 364 439 395 349 395 265 c 0
 395 254 388 248 377 248 c 2
 114 248 l 1
 114 99 200 39 256 39 c 0
 311 39 346 57 381 95 c 1
EndSplineSet
LCarets2: 1 0 
EndChar

StartChar: uni04D8
Encoding: 1240 1240 114
Width: 644
VWidth: 999
Flags: HW
HStem: -12 34<248 417> 216 44<126 535> 624 34<209 394>
VStem: 546 89<230 436>
LayerCount: 2
Fore
SplineSet
97 523 m 1
 74 547 l 1
 153 621 200 658 310 658 c 0
 525 658 611 485 611 326 c 0
 611 131 509 -12 316 -12 c 0
 124 -12 53 118 42 260 c 1
 520 260 l 1
 521 271 521 283 521 297 c 0
 521 483 429 624 294 624 c 0
 201 624 150 575 97 523 c 1
122 216 m 1
 153 86 225 22 323 22 c 0
 429 22 493 116 511 216 c 1
 122 216 l 1
EndSplineSet
EndChar

StartChar: afii10846
Encoding: 1241 1241 115
Width: 427
VWidth: 999
Flags: HW
HStem: -12 34<160 255> 153 39<131 326> 393 49<121 252>
VStem: 48 80<68 168> 330 76<117 153 155 304>
LayerCount: 2
Fore
SplineSet
311 141 m 1
 127 141 l 2
 117 141 113 136 113 127 c 0
 113 43 160 23 196 23 c 0
 219 23 293 28 311 141 c 1
47 333 m 1
 27 349 l 1
 65 401 124 438 196 438 c 0
 333 438 394 344 394 229 c 0
 394 77 291 -11 196 -11 c 0
 64 -11 33 79 33 163 c 0
 33 174 40 180 51 180 c 2
 314 180 l 1
 314 329 228 389 172 389 c 0
 117 389 82 371 47 333 c 1
EndSplineSet
EndChar

StartChar: uni04DA
Encoding: 1242 1242 116
Width: 644
VWidth: 999
Flags: HW
HStem: -12 34<248 417> 216 44<126 535> 624 34<209 394> 706 91<193 270 383 459>
VStem: 186 91<712 790> 375 91<713 790> 546 89<230 436>
LayerCount: 2
Fore
SplineSet
375 752 m 0
 375 776 396 797 420 797 c 0
 445 797 466 776 466 752 c 0
 466 727 445 706 420 706 c 0
 396 706 375 727 375 752 c 0
186 751 m 0
 186 776 206 796 231 796 c 0
 256 796 276 776 276 751 c 0
 276 726 256 706 231 706 c 0
 206 706 186 726 186 751 c 0
97 523 m 1
 74 547 l 1
 153 621 200 658 310 658 c 0
 525 658 611 485 611 326 c 0
 611 131 509 -12 316 -12 c 0
 124 -12 53 118 42 260 c 1
 520 260 l 1
 521 271 521 283 521 297 c 0
 521 483 429 624 294 624 c 0
 201 624 150 575 97 523 c 1
122 216 m 1
 153 86 225 22 323 22 c 0
 429 22 493 116 511 216 c 1
 122 216 l 1
EndSplineSet
LCarets2: 1 0 
EndChar

StartChar: uni04DB
Encoding: 1243 1243 117
Width: 427
VWidth: 999
Flags: HW
HStem: -12 34<160 255> 153 39<131 326> 393 49<121 252> 527 91<95 172 255 333>
VStem: 48 80<68 168> 88 91<533 611> 249 91<533 611> 330 76<117 153 155 304>
LayerCount: 2
Fore
SplineSet
248 573 m 0
 248 598 269 618 294 618 c 0
 319 618 339 598 339 573 c 0
 339 548 319 527 294 527 c 0
 269 527 248 548 248 573 c 0
88 573 m 0
 88 598 108 618 133 618 c 0
 158 618 179 598 179 573 c 0
 179 548 158 527 133 527 c 0
 108 527 88 548 88 573 c 0
311 141 m 1
 127 141 l 2
 117 141 113 136 113 127 c 0
 113 43 160 23 196 23 c 0
 219 23 293 28 311 141 c 1
47 333 m 1
 27 349 l 1
 65 401 124 438 196 438 c 0
 333 438 394 344 394 229 c 0
 394 77 291 -11 196 -11 c 0
 64 -11 33 79 33 163 c 0
 33 174 40 180 51 180 c 2
 314 180 l 1
 314 329 228 389 172 389 c 0
 117 389 82 371 47 333 c 1
EndSplineSet
LCarets2: 1 0 
EndChar

StartChar: uni04E0
Encoding: 1248 1248 118
Width: 608
VWidth: 999
Flags: HW
HStem: -211 37<215 357> 606 39<143 167 167 446>
VStem: 475 89<-42 146>
DStem2: 250 252 367 288 0.483492 0.875349<88.0518 404.973>
LayerCount: 2
Fore
SplineSet
167 645 m 2
 522 645 l 2
 543 645 550 639 550 631 c 0
 550 621 544 605 535 590 c 2
 367 288 l 1
 501 261 564 162 564 51 c 0
 564 -88 432 -211 272 -211 c 0
 192 -211 42 -176 42 -110 c 0
 42 -87 52 -60 86 -60 c 0
 113 -60 141 -74 154 -95 c 0
 186 -144 236 -174 291 -174 c 0
 378 -174 475 -53 475 42 c 0
 475 201 360 255 291 255 c 0
 275 255 264 255 250 252 c 1
 446 605 l 1
 197 605 l 2
 123 604 94 521 90 477 c 1
 64 479 l 1
 85 667 l 1
 108 662 143 645 167 645 c 2
EndSplineSet
EndChar

StartChar: uni04E1
Encoding: 1249 1249 119
Width: 416
VWidth: 999
Flags: HW
HStem: -229 29<149 247> 113 39<221 280> 390 39<101 107 107 293>
VStem: 317 76<-113 70>
DStem2: 111 85 221 152 0.513685 0.857979<114.08 354.553>
LayerCount: 2
Fore
SplineSet
127 107 m 1
 295 395 l 1
 150 395 l 2
 120 395 86 374 66 301 c 1
 40 304 l 1
 48 353 54 397 55 442 c 1
 80 442 l 1
 82 436 91 429 106 429 c 2
 309 429 l 2
 338 429 374 435 376 435 c 0
 383 435 389 433 389 429 c 0
 389 425 383 414 367 387 c 2
 216 137 l 1
 312 137 393 84 393 -22 c 0
 393 -141 308 -235 185 -235 c 0
 100 -235 42 -174 42 -142 c 0
 42 -124 52 -106 74 -106 c 0
 97 -106 110 -116 118 -140 c 0
 126 -162 153 -200 193 -200 c 0
 243 -200 312 -146 312 -38 c 0
 312 63 281 103 203 103 c 0
 192 103 162 96 144 92 c 1
 127 107 l 1
EndSplineSet
EndChar

StartChar: uni04E6
Encoding: 1254 1254 120
Width: 698
VWidth: 999
Flags: HW
HStem: -12 34<279 448> 624 34<252 429> 706 91<214 291 404 480>
VStem: 37 92<199 440> 207 91<712 790> 396 91<713 790> 570 92<198 455>
LayerCount: 2
Fore
SplineSet
396 752 m 0
 396 776 417 797 441 797 c 0
 466 797 487 776 487 752 c 0
 487 727 466 706 441 706 c 0
 417 706 396 727 396 752 c 0
207 751 m 0
 207 776 227 796 252 796 c 0
 277 796 297 776 297 751 c 0
 297 726 277 706 252 706 c 0
 227 706 207 726 207 751 c 0
334 624 m 0
 238 624 128 537 128 327 c 0
 128 135 248 24 368 24 c 0
 482 24 570 131 570 310 c 0
 570 518 475 624 334 624 c 0
662 329 m 0
 662 129 539 -10 348 -10 c 0
 176 -10 37 113 37 310 c 0
 37 506 168 658 347 658 c 0
 527 658 662 527 662 329 c 0
EndSplineSet
LCarets2: 1 0 
EndChar

StartChar: uni04E7
Encoding: 1255 1255 121
Width: 484
VWidth: 999
Flags: HW
HStem: -12 36<192 318> 409 33<173 294> 528 91<125 203 286 364>
VStem: 34 79<124 320> 119 91<535 613> 279 91<535 613> 367 79<113 318>
LayerCount: 2
Fore
SplineSet
36 205 m 0
 36 342 110 439 243 439 c 0
 391 439 448 318 448 214 c 0
 448 114 383 -10 241 -10 c 0
 107 -10 36 103 36 205 c 0
232 406 m 0
 152 406 121 315 121 228 c 0
 121 151 159 23 258 23 c 0
 303 23 363 50 363 182 c 0
 363 329 314 406 232 406 c 0
279 574 m 0
 279 599 300 619 325 619 c 0
 350 619 370 599 370 574 c 0
 370 549 350 528 325 528 c 0
 300 528 279 549 279 574 c 0
119 574 m 0
 119 599 139 619 164 619 c 0
 189 619 210 599 210 574 c 0
 210 549 189 528 164 528 c 0
 139 528 119 549 119 574 c 0
EndSplineSet
LCarets2: 1 0 
EndChar

StartChar: uni04E8
Encoding: 1256 1256 122
Width: 698
VWidth: 999
Flags: HW
HStem: -12 34<279 448> 266 58<381 529> 312 58<171 337> 624 34<252 429>
VStem: 37 92<199 440> 570 92<198 455>
LayerCount: 2
Fore
SplineSet
334 624 m 0
 238 624 128 537 128 327 c 0
 128 326 128 324 128 323 c 1
 167 355 230 370 268 370 c 0
 366 370 396 323 459 323 c 0
 490 323 536 335 568 358 c 1
 555 534 464 624 334 624 c 0
662 329 m 0
 662 129 539 -10 348 -10 c 0
 176 -10 37 113 37 310 c 0
 37 506 168 658 347 658 c 0
 527 658 662 527 662 329 c 0
570 315 m 1
 528 277 479 266 441 266 c 0
 349 266 325 312 250 312 c 0
 220 312 165 307 130 282 c 1
 147 118 258 24 368 24 c 0
 482 24 570 131 570 310 c 0
 570 312 570 314 570 315 c 1
EndSplineSet
EndChar

StartChar: uni04E9
Encoding: 1257 1257 123
Width: 484
VWidth: 999
Flags: HMW
HStem: -12 36<192 318> 179 49<194 339> 207 42<108 228> 409 33<173 294>
VStem: 34 79<124 320> 367 79<113 318>
AnchorPoint: "unten_punkt" 246 -107 basechar 0
AnchorPoint: "top_punkt" 245 550 basechar 0
AnchorPoint: "top_akzent" 236 645 basechar 0
LayerCount: 2
Fore
SplineSet
36 205 m 0
 36 342 110 439 243 439 c 0
 391 439 448 318 448 214 c 0
 448 114 383 -10 241 -10 c 0
 107 -10 36 103 36 205 c 0
360 241 m 1
 348 350 302 406 232 406 c 0
 153 406 122 318 121 233 c 1
 144 242 178 249 203 249 c 0
 248 249 270 229 308 229 c 0
 327 229 346 235 360 241 c 1
362 214 m 1
 340 200 300 179 264 179 c 0
 221 179 187 207 152 207 c 0
 145 207 133 205 122 203 c 1
 129 126 169 23 258 23 c 0
 303 23 363 50 363 182 c 0
 363 193 363 204 362 214 c 1
EndSplineSet
EndChar

StartChar: uni04EA
Encoding: 1258 1258 124
Width: 698
VWidth: 999
Flags: HW
HStem: -12 34<279 448> 266 58<381 529> 312 58<171 337> 624 34<252 429> 708 91<210 288 400 477>
VStem: 37 92<199 440> 204 91<714 792> 393 91<715 792> 570 92<198 455>
LayerCount: 2
Fore
SplineSet
393 754 m 0
 393 778 414 799 438 799 c 0
 463 799 484 778 484 754 c 0
 484 729 463 708 438 708 c 0
 414 708 393 729 393 754 c 0
204 753 m 0
 204 778 224 798 249 798 c 0
 274 798 294 778 294 753 c 0
 294 728 274 708 249 708 c 0
 224 708 204 728 204 753 c 0
334 624 m 0
 238 624 128 537 128 327 c 0
 128 326 128 324 128 323 c 1
 167 355 230 370 268 370 c 0
 366 370 396 323 459 323 c 0
 490 323 536 335 568 358 c 1
 555 534 464 624 334 624 c 0
662 329 m 0
 662 129 539 -10 348 -10 c 0
 176 -10 37 113 37 310 c 0
 37 506 168 658 347 658 c 0
 527 658 662 527 662 329 c 0
570 315 m 1
 528 277 479 266 441 266 c 0
 349 266 325 312 250 312 c 0
 220 312 165 307 130 282 c 1
 147 118 258 24 368 24 c 0
 482 24 570 131 570 310 c 0
 570 312 570 314 570 315 c 1
EndSplineSet
LCarets2: 1 0 
EndChar

StartChar: uni04EB
Encoding: 1259 1259 125
Width: 484
VWidth: 999
Flags: HW
HStem: -12 36<192 318> 179 49<194 339> 207 42<108 228> 409 33<173 294> 527 91<128 205 288 366>
VStem: 34 79<124 320> 121 91<533 611> 282 91<533 611> 367 79<113 318>
LayerCount: 2
Fore
SplineSet
36 205 m 0
 36 342 110 439 243 439 c 0
 391 439 448 318 448 214 c 0
 448 114 383 -10 241 -10 c 0
 107 -10 36 103 36 205 c 0
281 573 m 0
 281 598 302 618 327 618 c 0
 352 618 372 598 372 573 c 0
 372 548 352 527 327 527 c 0
 302 527 281 548 281 573 c 0
121 573 m 0
 121 598 141 618 166 618 c 0
 191 618 212 598 212 573 c 0
 212 548 191 527 166 527 c 0
 141 527 121 548 121 573 c 0
360 241 m 1
 348 350 302 406 232 406 c 0
 153 406 122 318 121 233 c 1
 144 242 178 249 203 249 c 0
 248 249 270 229 308 229 c 0
 327 229 346 235 360 241 c 1
362 214 m 1
 340 200 300 179 264 179 c 0
 221 179 187 207 152 207 c 0
 145 207 133 205 122 203 c 1
 129 126 169 23 258 23 c 0
 303 23 363 50 363 182 c 0
 363 193 363 204 362 214 c 1
EndSplineSet
LCarets2: 1 0 
EndChar

StartChar: uni04EF
Encoding: 1263 1263 126
Width: 505
VWidth: 999
Flags: HW
HStem: -230 55<100 160> 402 29<13 13 13 68 156 206 334 334 334 371 445 497 497 497> 539 44<130 141 141 408>
VStem: 11 489 129 280
DStem2: 160 357 82 353 0.396319 -0.918113<-23.1178 280.69> 217 -28 241 -74 0.398285 0.917262<-146.418 31.1817 137.453 438.891>
LayerCount: 2
Fore
SplineSet
205 410 m 2
 205 405 199 402 194 402 c 0
 156 399 142 391 157 357 c 2
 267 99 l 1
 280 129 325 234 378 353 c 1
 400 393 370 399 339 402 c 0
 334 402 329 406 329 409 c 2
 329 428 l 1
 331 431 l 1
 331 431 390 429 425 429 c 0
 453 429 494 431 494 431 c 1
 497 429 l 1
 497 410 l 2
 497 405 493 403 486 402 c 0
 449 399 429 363 415 334 c 0
 362 222 318 119 238 -74 c 0
 208 -146 170 -232 99 -232 c 0
 80 -232 41 -221 41 -185 c 0
 41 -155 63 -146 79 -146 c 0
 94 -146 104 -152 110 -160 c 1
 120 -170 127 -177 137 -177 c 0
 152 -177 189 -89 214 -28 c 0
 220 -16 222 -6 222 3 c 0
 222 13 213 40 205 60 c 2
 79 353 l 2
 63 391 51 399 18 402 c 0
 12 403 8 405 8 409 c 2
 8 429 l 1
 10 431 l 1
 10 431 55 429 84 429 c 0
 130 429 166 429 203 431 c 1
 205 428 l 1
 205 410 l 2
385 538 m 2
 141 538 l 2
 132 538 128 546 128 553 c 0
 128 565 139 582 150 582 c 2
 395 582 l 2
 405 582 409 574 409 568 c 0
 409 556 398 538 385 538 c 2
EndSplineSet
LCarets2: 1 0 
EndChar

StartChar: uni04F1
Encoding: 1265 1265 127
Width: 505
VWidth: 999
Flags: HW
HStem: -230 55<100 160> 402 29<13 13 13 68 154 180 180 206 334 334 334 371 445 497 497 497> 527 91<160 238 321 398>
VStem: 153 91<533 611> 314 91<533 611>
DStem2: 160 357 82 353 0.396319 -0.918113<0 280.69> 217 -28 241 -74 0.398285 0.917262<0 412.257>
LayerCount: 2
Fore
SplineSet
205 410 m 2
 205 405 199 402 194 402 c 0
 156 399 142 391 157 357 c 2
 267 99 l 1
 280 129 325 234 378 353 c 1
 400 393 370 399 339 402 c 0
 334 402 329 406 329 409 c 2
 329 428 l 1
 331 431 l 1
 331 431 390 429 425 429 c 0
 453 429 494 431 494 431 c 1
 497 429 l 1
 497 410 l 2
 497 405 493 403 486 402 c 0
 449 399 429 363 415 334 c 0
 362 222 318 119 238 -74 c 0
 208 -146 170 -232 99 -232 c 0
 80 -232 41 -221 41 -185 c 0
 41 -155 63 -146 79 -146 c 0
 94 -146 104 -152 110 -160 c 1
 120 -170 127 -177 137 -177 c 0
 152 -177 189 -89 214 -28 c 0
 220 -16 222 -6 222 3 c 0
 222 13 213 40 205 60 c 2
 79 353 l 2
 63 391 51 399 18 402 c 0
 12 403 8 405 8 409 c 2
 8 429 l 1
 10 431 l 1
 10 431 55 429 84 429 c 0
 130 429 166 429 203 431 c 1
 205 428 l 1
 205 410 l 2
314 573 m 0
 314 598 335 618 360 618 c 0
 385 618 405 598 405 573 c 0
 405 548 385 527 360 527 c 0
 335 527 314 548 314 573 c 0
154 573 m 0
 154 598 174 618 199 618 c 0
 224 618 245 598 245 573 c 0
 245 548 224 527 199 527 c 0
 174 527 154 548 154 573 c 0
EndSplineSet
LCarets2: 1 0 
EndChar

StartChar: uni04F3
Encoding: 1267 1267 128
Width: 505
VWidth: 999
Flags: HW
HStem: -230 55<100 160> 402 29<13 13 13 68 154 180 180 206 334 334 334 371 445 497 497 497>
DStem2: 160 357 82 353 0.396319 -0.918113<0 280.69> 217 -28 241 -74 0.398285 0.917262<0 412.257>
LayerCount: 2
Fore
SplineSet
205 410 m 2
 205 405 199 402 194 402 c 0
 156 399 142 391 157 357 c 2
 267 99 l 1
 280 129 325 234 378 353 c 1
 400 393 370 399 339 402 c 0
 334 402 329 406 329 409 c 2
 329 428 l 1
 331 431 l 1
 331 431 390 429 425 429 c 0
 453 429 494 431 494 431 c 1
 497 429 l 1
 497 410 l 2
 497 405 493 403 486 402 c 0
 449 399 429 363 415 334 c 0
 362 222 318 119 238 -74 c 0
 208 -146 170 -232 99 -232 c 0
 80 -232 41 -221 41 -185 c 0
 41 -155 63 -146 79 -146 c 0
 94 -146 104 -152 110 -160 c 1
 120 -170 127 -177 137 -177 c 0
 152 -177 189 -89 214 -28 c 0
 220 -16 222 -6 222 3 c 0
 222 13 213 40 205 60 c 2
 79 353 l 2
 63 391 51 399 18 402 c 0
 12 403 8 405 8 409 c 2
 8 429 l 1
 10 431 l 1
 10 431 55 429 84 429 c 0
 130 429 166 429 203 431 c 1
 205 428 l 1
 205 410 l 2
448 643 m 0
 457 636 462 625 462 615 c 0
 462 609 461 602 455 596 c 2
 341 486 l 2
 339 484 337 484 335 484 c 0
 330 484 321 489 321 497 c 0
 321 498 321 500 322 501 c 2
 400 640 l 2
 405 649 412 652 424 652 c 0
 433 652 441 649 448 643 c 0
313 651 m 0
 324 644 330 633 330 621 c 0
 330 616 329 610 325 605 c 2
 223 484 l 2
 221 482 218 481 215 481 c 0
 209 481 201 486 201 494 c 0
 201 495 201 496 202 497 c 1
 266 643 l 2
 272 656 288 657 292 657 c 0
 300 657 306 655 313 651 c 0
EndSplineSet
LCarets2: 1 0 
EndChar

StartChar: uni1E00
Encoding: 7680 7680 129
Width: 695
VWidth: 999
Flags: HW
HStem: -215 27<294 377> -76 27<294 377> -2 29<4 4 4 75 136 217 217 217 438 439 439 518 616 652 652 687> 244 39<237 438> 648 10<351 365>
VStem: 250 32<-177 -88> 389 32<-177 -87>
DStem2: 95 81 140 72 0.392235 0.919865<-9.4728 196.319 248.789 526.758> 390 628 339 550 0.353155 -0.935565<55.4419 339.697 381.244 581.616>
LayerCount: 2
Fore
SplineSet
336 -76 m 0
 305 -76 282 -102 282 -132 c 0
 282 -160 305 -188 336 -188 c 0
 367 -188 390 -160 390 -132 c 0
 390 -101 366 -76 336 -76 c 0
250 -132 m 0
 250 -86 289 -49 335 -49 c 0
 381 -49 421 -85 421 -132 c 0
 421 -177 383 -215 335 -215 c 0
 289 -215 250 -178 250 -132 c 0
263 283 m 2
 437 283 l 1
 339 550 l 1
 338 550 l 1
 238 296 l 2
 234 286 247 283 263 283 c 2
152 79 m 2
 142 54 155 32 192 29 c 2
 221 27 l 2
 225 27 229 24 229 19 c 2
 229 0 l 1
 227 -2 l 1
 227 -2 118 0 94 0 c 0
 68 0 4 -2 4 -2 c 1
 2 0 l 1
 2 19 l 2
 2 24 5 27 10 27 c 0
 54 30 79 38 107 102 c 2
 329 622 l 2
 338 643 352 658 364 658 c 0
 375 658 382 648 390 628 c 2
 595 86 l 2
 609 47 629 32 669 28 c 2
 680 27 l 2
 685 27 690 24 690 19 c 2
 690 0 l 1
 687 -2 l 1
 687 -2 610 0 571 0 c 0
 536 0 438 -2 438 -2 c 1
 437 0 l 1
 437 19 l 2
 437 24 439 27 444 27 c 2
 472 29 l 2
 510 32 524 44 514 72 c 2
 453 241 l 1
 245 241 l 2
 221 241 215 237 210 224 c 2
 152 79 l 2
EndSplineSet
LCarets2: 1 0 
EndChar

StartChar: uni1E01
Encoding: 7681 7681 130
Width: 451
VWidth: 999
Flags: HW
HStem: -216 27<182 265> -77 27<182 266> -12 41<132 238> -12 48<342 413> 412 30<136 257>
VStem: 39 72<50 173> 50 80<297 344 320 381> 138 32<-178 -89> 277 32<-178 -88> 291 74<80 245 278 372> 418 24<49 83>
DStem2: 199 255 212 225 0.970142 0.242536<-76.9526 86.5693>
LayerCount: 2
Fore
SplineSet
224 -77 m 0
 193 -77 170 -103 170 -133 c 0
 170 -161 193 -189 224 -189 c 0
 255 -189 278 -161 278 -133 c 0
 278 -102 254 -77 224 -77 c 0
138 -133 m 0
 138 -87 177 -50 223 -50 c 0
 269 -50 309 -86 309 -133 c 0
 309 -178 271 -216 223 -216 c 0
 177 -216 138 -179 138 -133 c 0
291 233 m 1
 212 212 l 2
 138 192 115 147 115 102 c 0
 115 71 139 31 189 31 c 0
 217 31 251 53 277 74 c 0
 285 80 291 87 291 100 c 2
 291 233 l 1
291 48 m 1
 289 48 l 1
 269 32 l 2
 225 -2 206 -10 160 -10 c 0
 90 -10 36 19 36 98 c 0
 36 166 103 219 199 243 c 2
 285 264 l 2
 288 265 291 269 291 276 c 0
 291 389 244 409 210 409 c 0
 172 409 127 395 127 364 c 0
 127 353 128 347 129 344 c 0
 131 340 132 333 132 326 c 0
 132 313 117 293 88 293 c 0
 65 293 53 304 53 328 c 0
 53 382 136 439 218 439 c 0
 291 439 365 412 365 270 c 2
 365 121 l 2
 365 75 366 34 405 34 c 0
 429 34 432 50 438 50 c 0
 442 50 449 42 449 35 c 0
 449 30 415 -10 366 -10 c 0
 313 -10 297 27 291 48 c 1
EndSplineSet
LCarets2: 1 0 
EndChar

StartChar: uni1E02
Encoding: 7682 7682 131
Width: 582
VWidth: 999
Flags: HW
HStem: -2 29<19 102 191 369> -2 34<188 240 214 380> 338 34<187 359> 612 34<188 361> 618 29<19 103 190 355> 693 96<243 322>
VStem: 106 81<37 338 373 607> 235 96<702 781> 415 77<423 564> 462 89<107 264>
LayerCount: 2
Fore
SplineSet
235 741 m 0
 235 768 256 789 283 789 c 0
 309 789 331 768 331 741 c 0
 331 715 309 694 283 694 c 0
 256 694 235 715 235 741 c 0
187 569 m 2
 187 366 l 1
 261 366 l 2
 344 366 405 396 405 481 c 0
 405 583 330 612 274 612 c 0
 187 612 187 602 187 569 c 2
187 332 m 1
 187 78 l 2
 187 45 200 32 270 32 c 0
 422 32 452 92 452 165 c 0
 452 255 393 332 276 332 c 2
 187 332 l 1
17 19 m 2
 17 24 19 27 24 27 c 2
 54 29 l 2
 96 32 106 36 106 71 c 2
 106 574 l 2
 106 608 97 613 54 616 c 2
 24 618 l 2
 19 618 17 621 17 625 c 2
 17 645 l 1
 19 646 l 1
 19 646 96 645 146 645 c 0
 193 645 232 646 267 646 c 0
 453 646 482 560 482 493 c 0
 482 438 440 385 389 360 c 1
 476 335 541 280 541 184 c 0
 541 98 488 -2 289 -2 c 0
 200 -2 202 0 146 0 c 0
 96 0 19 -2 19 -2 c 1
 17 0 l 1
 17 19 l 2
EndSplineSet
LCarets2: 1 0 
EndChar

StartChar: uni1E03
Encoding: 7683 7683 132
Width: 487
VWidth: 999
Flags: HW
HStem: -12 34<159 291> 398 43<214 304> 523 96<225 304> 642 30<7 41> 688 10<117 149>
VStem: 74 75<54 356 387 645> 217 96<531 610> 364 77<125 326>
LayerCount: 2
Fore
SplineSet
217 571 m 0
 217 598 238 619 265 619 c 0
 291 619 313 598 313 571 c 0
 313 545 291 524 265 524 c 0
 238 524 217 545 217 571 c 0
153 71 m 1
 173 46 194 24 225 24 c 0
 320 24 365 110 365 224 c 0
 365 321 316 395 255 395 c 0
 244 395 192 393 153 353 c 1
 153 71 l 1
78 563 m 2
 78 628 68 641 48 641 c 1
 16 643 l 2
 13 643 10 645 10 648 c 2
 8 672 l 1
 48 675 118 688 143 698 c 1
 152 698 156 695 156 688 c 2
 156 688 153 648 153 583 c 2
 153 384 l 1
 187 421 227 439 275 439 c 0
 362 439 450 364 450 242 c 0
 450 83 333 -10 231 -10 c 0
 188 -10 156 2 127 27 c 1
 118 14 104 -3 94 -12 c 1
 84 -12 79 -11 73 -7 c 1
 77 15 78 32 78 71 c 2
 78 563 l 2
EndSplineSet
LCarets2: 1 0 
EndChar

StartChar: uni1E04
Encoding: 7684 7684 133
Width: 582
VWidth: 999
Flags: HW
HStem: -163 96<230 310> -2 29<19 102 191 369> -2 34<188 240 214 380> 338 34<187 359> 612 34<188 361> 618 29<19 103 190 355>
VStem: 106 81<37 338 373 607> 222 96<-155 -76> 415 77<423 564> 462 89<107 264>
LayerCount: 2
Fore
SplineSet
222 -115 m 0
 222 -88 243 -67 270 -67 c 0
 296 -67 318 -88 318 -115 c 0
 318 -141 296 -162 270 -162 c 0
 243 -162 222 -141 222 -115 c 0
187 569 m 2
 187 366 l 1
 261 366 l 2
 344 366 405 396 405 481 c 0
 405 583 330 612 274 612 c 0
 187 612 187 602 187 569 c 2
187 332 m 1
 187 78 l 2
 187 45 200 32 270 32 c 0
 422 32 452 92 452 165 c 0
 452 255 393 332 276 332 c 2
 187 332 l 1
17 19 m 2
 17 24 19 27 24 27 c 2
 54 29 l 2
 96 32 106 36 106 71 c 2
 106 574 l 2
 106 608 97 613 54 616 c 2
 24 618 l 2
 19 618 17 621 17 625 c 2
 17 645 l 1
 19 646 l 1
 19 646 96 645 146 645 c 0
 193 645 232 646 267 646 c 0
 453 646 482 560 482 493 c 0
 482 438 440 385 389 360 c 1
 476 335 541 280 541 184 c 0
 541 98 488 -2 289 -2 c 0
 200 -2 202 0 146 0 c 0
 96 0 19 -2 19 -2 c 1
 17 0 l 1
 17 19 l 2
EndSplineSet
LCarets2: 1 0 
EndChar

StartChar: uni1E05
Encoding: 7685 7685 134
Width: 487
VWidth: 999
Flags: HW
HStem: -163 96<185 265> -12 34<159 291> 398 43<214 304> 642 30<7 41> 688 10<117 149>
VStem: 74 75<54 356 387 645> 177 96<-155 -76> 364 77<125 326>
LayerCount: 2
Fore
SplineSet
177 -115 m 0
 177 -88 198 -67 225 -67 c 0
 251 -67 273 -88 273 -115 c 0
 273 -141 251 -162 225 -162 c 0
 198 -162 177 -141 177 -115 c 0
153 71 m 1
 173 46 194 24 225 24 c 0
 320 24 365 110 365 224 c 0
 365 321 316 395 255 395 c 0
 244 395 192 393 153 353 c 1
 153 71 l 1
78 563 m 2
 78 628 68 641 48 641 c 1
 16 643 l 2
 13 643 10 645 10 648 c 2
 8 672 l 1
 48 675 118 688 143 698 c 1
 152 698 156 695 156 688 c 2
 156 688 153 648 153 583 c 2
 153 384 l 1
 187 421 227 439 275 439 c 0
 362 439 450 364 450 242 c 0
 450 83 333 -10 231 -10 c 0
 188 -10 156 2 127 27 c 1
 118 14 104 -3 94 -12 c 1
 84 -12 79 -11 73 -7 c 1
 77 15 78 32 78 71 c 2
 78 563 l 2
EndSplineSet
LCarets2: 1 0 
EndChar

StartChar: uni1E06
Encoding: 7686 7686 135
Width: 582
VWidth: 999
Flags: HW
HStem: -106 44<137 148 148 415> -2 29<19 102 191 369> -2 34<188 240 214 380> 338 34<187 359> 612 34<188 361> 618 29<19 103 190 355>
VStem: 106 81<37 338 373 607> 415 77<423 564> 462 89<107 264>
LayerCount: 2
Fore
SplineSet
393 -106 m 2
 148 -106 l 2
 140 -106 136 -98 136 -91 c 0
 136 -79 146 -62 158 -62 c 2
 403 -62 l 2
 412 -62 416 -69 416 -76 c 0
 416 -88 406 -106 393 -106 c 2
187 569 m 2
 187 366 l 1
 261 366 l 2
 344 366 405 396 405 481 c 0
 405 583 330 612 274 612 c 0
 187 612 187 602 187 569 c 2
187 332 m 1
 187 78 l 2
 187 45 200 32 270 32 c 0
 422 32 452 92 452 165 c 0
 452 255 393 332 276 332 c 2
 187 332 l 1
17 19 m 2
 17 24 19 27 24 27 c 2
 54 29 l 2
 96 32 106 36 106 71 c 2
 106 574 l 2
 106 608 97 613 54 616 c 2
 24 618 l 2
 19 618 17 621 17 625 c 2
 17 645 l 1
 19 646 l 1
 19 646 96 645 146 645 c 0
 193 645 232 646 267 646 c 0
 453 646 482 560 482 493 c 0
 482 438 440 385 389 360 c 1
 476 335 541 280 541 184 c 0
 541 98 488 -2 289 -2 c 0
 200 -2 202 0 146 0 c 0
 96 0 19 -2 19 -2 c 1
 17 0 l 1
 17 19 l 2
EndSplineSet
LCarets2: 1 0 
EndChar

StartChar: uni1E07
Encoding: 7687 7687 136
Width: 487
VWidth: 999
Flags: HW
HStem: -109 44<107 118 118 385> -12 34<159 291> 398 43<214 304> 642 30<7 41> 688 10<117 149>
VStem: 74 75<54 356 387 645> 364 77<125 326>
LayerCount: 2
Fore
SplineSet
363 -110 m 2
 118 -110 l 2
 110 -110 106 -102 106 -95 c 0
 106 -83 116 -66 128 -66 c 2
 373 -66 l 2
 382 -66 386 -73 386 -80 c 0
 386 -92 376 -110 363 -110 c 2
153 71 m 1
 173 46 194 24 225 24 c 0
 320 24 365 110 365 224 c 0
 365 321 316 395 255 395 c 0
 244 395 192 393 153 353 c 1
 153 71 l 1
78 563 m 2
 78 628 68 641 48 641 c 1
 16 643 l 2
 13 643 10 645 10 648 c 2
 8 672 l 1
 48 675 118 688 143 698 c 1
 152 698 156 695 156 688 c 2
 156 688 153 648 153 583 c 2
 153 384 l 1
 187 421 227 439 275 439 c 0
 362 439 450 364 450 242 c 0
 450 83 333 -10 231 -10 c 0
 188 -10 156 2 127 27 c 1
 118 14 104 -3 94 -12 c 1
 84 -12 79 -11 73 -7 c 1
 77 15 78 32 78 71 c 2
 78 563 l 2
EndSplineSet
LCarets2: 1 0 
EndChar

StartChar: uni1E08
Encoding: 7688 7688 137
Width: 644
VWidth: 999
Flags: HW
HStem: -186 25<313 394> -84 31<357 397> -12 42<263 464> 621 37<270 453> 697 122
VStem: 37 87<204 436> 269 202 400 53<-152 -88>
LayerCount: 2
Fore
SplineSet
408 819 m 1
 470 767 l 1
 326 709 l 2
 305 700 292 697 283 697 c 0
 274 697 269 702 269 712 c 0
 269 719 271 724 284 733 c 2
 408 819 l 1
358 -84 m 0
 339 -84 329 -85 313 -90 c 1
 307 -84 l 1
 340 -10 l 1
 135 -2 37 158 37 315 c 0
 37 512 190 658 356 658 c 0
 479 658 518 616 575 613 c 1
 579 559 587 510 597 458 c 1
 567 454 l 1
 541 540 483 621 345 621 c 0
 266 621 124 537 124 334 c 0
 124 188 199 31 354 31 c 0
 447 31 515 62 586 140 c 1
 609 125 l 1
 546 42 464 -3 375 -9 c 1
 356 -55 l 1
 364 -53 373 -52 382 -52 c 0
 422 -52 453 -76 453 -114 c 0
 453 -157 407 -185 346 -185 c 0
 314 -185 297 -179 272 -168 c 1
 282 -146 l 1
 309 -156 320 -160 340 -160 c 0
 370 -160 400 -146 400 -119 c 0
 400 -98 381 -84 358 -84 c 0
EndSplineSet
LCarets2: 1 0 
EndChar

StartChar: uni1E09
Encoding: 7689 7689 138
Width: 411
VWidth: 999
Flags: HW
HStem: -179 25<165 245> -77 31<208 249> -12 44<190 311> 296 78<190 311> 408 34<171 280> 656 17
VStem: 37 77<124 320> 251 53<-145 -82> 306 75
LayerCount: 2
Fore
SplineSet
286 671 m 1
 289 672 295 673 300 673 c 0
 328 673 341 662 349 654 c 0
 352 652 354 651 355 650 c 1
 358 639 l 1
 243 530 l 2
 228 515 221 510 214 510 c 0
 207 510 200 516 200 523 c 0
 200 528 200 535 206 545 c 2
 286 671 l 1
210 -78 m 0
 191 -78 181 -79 165 -84 c 1
 159 -78 l 1
 192 -5 l 1
 95 15 37 96 37 208 c 0
 37 350 134 439 242 439 c 0
 338 439 389 390 389 337 c 0
 389 308 371 293 350 293 c 0
 329 293 309 304 306 329 c 0
 302 362 296 405 237 405 c 0
 171 405 122 340 122 230 c 0
 122 113 185 34 262 34 c 0
 305 34 343 60 374 105 c 1
 392 91 l 1
 348 15 300 -10 240 -10 c 0
 235 -10 229 -10 224 -10 c 1
 208 -49 l 1
 216 -47 225 -46 234 -46 c 0
 274 -46 305 -70 305 -108 c 0
 305 -151 259 -179 198 -179 c 0
 166 -179 149 -173 124 -162 c 1
 134 -140 l 1
 161 -150 172 -154 192 -154 c 0
 222 -154 252 -140 252 -113 c 0
 252 -92 233 -78 210 -78 c 0
EndSplineSet
LCarets2: 1 0 
EndChar

StartChar: uni1E0A
Encoding: 7690 7690 139
Width: 697
VWidth: 999
Flags: HW
HStem: -2 29<19 24 24 101 205 431> 618 29<19 26 26 104 206 387> 698 96<257 336>
VStem: 106 81<39 605> 249 96<706 785> 562 92<179 419>
LayerCount: 2
Fore
SplineSet
248 745 m 0
 248 772 269 793 296 793 c 0
 322 793 344 772 344 745 c 0
 344 719 322 698 296 698 c 0
 269 698 248 719 248 745 c 0
17 18 m 2
 17 23 20 27 24 27 c 2
 54 29 l 2
 89 31 106 42 106 74 c 2
 106 572 l 2
 106 608 95 613 54 616 c 2
 26 618 l 2
 21 618 17 621 17 626 c 2
 17 644 l 1
 19 646 l 1
 68 646 96 645 145 645 c 0
 209 645 245 646 309 646 c 0
 501 646 654 494 654 308 c 0
 654 62 468 -2 327 -2 c 0
 224 -2 216 0 145 0 c 0
 96 0 63 0 19 -2 c 1
 17 0 l 1
 17 18 l 2
187 72 m 2
 187 40 198 32 296 32 c 0
 437 32 562 82 562 284 c 0
 562 438 487 612 271 612 c 0
 222 612 187 609 187 574 c 2
 187 72 l 2
EndSplineSet
LCarets2: 1 0 
EndChar

StartChar: uni1E0B
Encoding: 7691 7691 140
Width: 503
VWidth: 999
Flags: HW
HStem: -12 42<178 279> 27 27<436 484> 407 35<188 302> 523 96<141 220> 642 30<267 302> 688 10<377 409>
VStem: 34 78<112 321> 133 96<531 610> 334 75<89 348 420 645>
LayerCount: 2
Fore
SplineSet
133 571 m 0
 133 598 154 619 181 619 c 0
 207 619 229 598 229 571 c 0
 229 545 207 524 181 524 c 0
 154 524 133 545 133 571 c 0
343 94 m 1
 343 345 l 1
 319 383 292 404 245 404 c 0
 225 404 183 401 152 354 c 0
 137 333 124 293 124 221 c 0
 124 96 179 37 233 37 c 0
 259 37 298 58 343 94 c 1
418 583 m 2
 418 116 l 2
 418 66 422 60 443 58 c 2
 491 53 l 1
 494 30 l 1
 432 19 388 6 366 -12 c 1
 343 -12 l 1
 345 59 l 1
 343 59 l 1
 297 22 247 -10 207 -10 c 0
 99 -10 39 80 39 203 c 0
 39 277 63 336 106 379 c 0
 146 417 190 439 256 439 c 0
 276 439 320 430 343 417 c 1
 343 563 l 2
 343 628 333 641 313 641 c 1
 281 643 l 2
 278 643 275 645 275 648 c 2
 273 672 l 1
 314 675 383 688 408 698 c 1
 417 698 421 695 421 688 c 2
 421 688 418 648 418 583 c 2
EndSplineSet
LCarets2: 1 0 
EndChar

StartChar: uni1E0C
Encoding: 7692 7692 141
Width: 697
VWidth: 999
Flags: HW
HStem: -163 96<250 329> -2 29<19 24 24 101 205 431> 618 29<19 26 26 104 206 387>
VStem: 106 81<39 605> 242 96<-155 -76> 562 92<179 419>
LayerCount: 2
Fore
SplineSet
242 -115 m 0
 242 -88 263 -67 290 -67 c 0
 316 -67 338 -88 338 -115 c 0
 338 -141 316 -162 290 -162 c 0
 263 -162 242 -141 242 -115 c 0
17 18 m 2
 17 23 20 27 24 27 c 2
 54 29 l 2
 89 31 106 42 106 74 c 2
 106 572 l 2
 106 608 95 613 54 616 c 2
 26 618 l 2
 21 618 17 621 17 626 c 2
 17 644 l 1
 19 646 l 1
 68 646 96 645 145 645 c 0
 209 645 245 646 309 646 c 0
 501 646 654 494 654 308 c 0
 654 62 468 -2 327 -2 c 0
 224 -2 216 0 145 0 c 0
 96 0 63 0 19 -2 c 1
 17 0 l 1
 17 18 l 2
187 72 m 2
 187 40 198 32 296 32 c 0
 437 32 562 82 562 284 c 0
 562 438 487 612 271 612 c 0
 222 612 187 609 187 574 c 2
 187 72 l 2
EndSplineSet
LCarets2: 1 0 
EndChar

StartChar: uni1E0D
Encoding: 7693 7693 142
Width: 503
VWidth: 999
Flags: HW
HStem: -163 96<196 275> -12 42<178 279> 27 27<436 484> 407 35<188 302> 642 30<267 302> 688 10<377 409>
VStem: 34 78<112 321> 188 96<-155 -76> 334 75<89 348 420 645>
LayerCount: 2
Fore
SplineSet
187 -115 m 0
 187 -88 208 -67 235 -67 c 0
 261 -67 283 -88 283 -115 c 0
 283 -141 261 -162 235 -162 c 0
 208 -162 187 -141 187 -115 c 0
343 94 m 1
 343 345 l 1
 319 383 292 404 245 404 c 0
 225 404 183 401 152 354 c 0
 137 333 124 293 124 221 c 0
 124 96 179 37 233 37 c 0
 259 37 298 58 343 94 c 1
418 583 m 2
 418 116 l 2
 418 66 422 60 443 58 c 2
 491 53 l 1
 494 30 l 1
 432 19 388 6 366 -12 c 1
 343 -12 l 1
 345 59 l 1
 343 59 l 1
 297 22 247 -10 207 -10 c 0
 99 -10 39 80 39 203 c 0
 39 277 63 336 106 379 c 0
 146 417 190 439 256 439 c 0
 276 439 320 430 343 417 c 1
 343 563 l 2
 343 628 333 641 313 641 c 1
 281 643 l 2
 278 643 275 645 275 648 c 2
 273 672 l 1
 314 675 383 688 408 698 c 1
 417 698 421 695 421 688 c 2
 421 688 418 648 418 583 c 2
EndSplineSet
LCarets2: 1 0 
EndChar

StartChar: uni1E0E
Encoding: 7694 7694 143
Width: 697
VWidth: 999
Flags: HW
HStem: -105 44<144 155 155 422> -2 29<19 24 24 101 205 431> 618 29<19 26 26 104 206 387>
VStem: 106 81<39 605> 562 92<179 419>
LayerCount: 2
Fore
SplineSet
400 -105 m 2
 155 -105 l 2
 147 -105 143 -97 143 -90 c 0
 143 -78 153 -61 165 -61 c 2
 410 -61 l 2
 419 -61 423 -68 423 -75 c 0
 423 -87 413 -105 400 -105 c 2
17 18 m 2
 17 23 20 27 24 27 c 2
 54 29 l 2
 89 31 106 42 106 74 c 2
 106 572 l 2
 106 608 95 613 54 616 c 2
 26 618 l 2
 21 618 17 621 17 626 c 2
 17 644 l 1
 19 646 l 1
 68 646 96 645 145 645 c 0
 209 645 245 646 309 646 c 0
 501 646 654 494 654 308 c 0
 654 62 468 -2 327 -2 c 0
 224 -2 216 0 145 0 c 0
 96 0 63 0 19 -2 c 1
 17 0 l 1
 17 18 l 2
187 72 m 2
 187 40 198 32 296 32 c 0
 437 32 562 82 562 284 c 0
 562 438 487 612 271 612 c 0
 222 612 187 609 187 574 c 2
 187 72 l 2
EndSplineSet
LCarets2: 1 0 
EndChar

StartChar: uni1E0F
Encoding: 7695 7695 144
Width: 503
VWidth: 999
Flags: HW
HStem: -109 44<95 106 106 373> -12 42<178 279> 27 27<436 484> 407 35<188 302> 642 30<267 302> 688 10<377 409>
VStem: 34 78<112 321> 334 75<89 348 420 645>
LayerCount: 2
Fore
SplineSet
351 -109 m 2
 106 -109 l 2
 98 -109 94 -101 94 -94 c 0
 94 -82 104 -65 116 -65 c 2
 361 -65 l 2
 370 -65 374 -72 374 -79 c 0
 374 -91 364 -109 351 -109 c 2
343 94 m 1
 343 345 l 1
 319 383 292 404 245 404 c 0
 225 404 183 401 152 354 c 0
 137 333 124 293 124 221 c 0
 124 96 179 37 233 37 c 0
 259 37 298 58 343 94 c 1
418 583 m 2
 418 116 l 2
 418 66 422 60 443 58 c 2
 491 53 l 1
 494 30 l 1
 432 19 388 6 366 -12 c 1
 343 -12 l 1
 345 59 l 1
 343 59 l 1
 297 22 247 -10 207 -10 c 0
 99 -10 39 80 39 203 c 0
 39 277 63 336 106 379 c 0
 146 417 190 439 256 439 c 0
 276 439 320 430 343 417 c 1
 343 563 l 2
 343 628 333 641 313 641 c 1
 281 643 l 2
 278 643 275 645 275 648 c 2
 273 672 l 1
 314 675 383 688 408 698 c 1
 417 698 421 695 421 688 c 2
 421 688 418 648 418 583 c 2
EndSplineSet
LCarets2: 1 0 
EndChar

StartChar: uni1E10
Encoding: 7696 7696 145
Width: 697
VWidth: 999
Flags: HW
HStem: -182 25<130 211> -80 31<174 214> -2 29<19 24 24 101 205 431> 618 29<19 26 26 104 206 387>
VStem: 106 81<39 605> 217 53<-148 -84> 562 92<179 419>
LayerCount: 2
Fore
SplineSet
175 -80 m 0
 156 -80 146 -81 130 -86 c 1
 124 -80 l 1
 160 -0 l 1
 155 -0 150 0 145 0 c 0
 96 0 63 0 19 -2 c 1
 17 0 l 1
 17 18 l 2
 17 23 20 27 24 27 c 2
 54 29 l 2
 89 31 106 42 106 74 c 2
 106 572 l 2
 106 608 95 613 54 616 c 2
 26 618 l 2
 21 618 17 621 17 626 c 2
 17 644 l 1
 19 646 l 1
 68 646 96 645 145 645 c 0
 209 645 245 646 309 646 c 0
 501 646 654 494 654 308 c 0
 654 62 468 -2 327 -2 c 0
 253 -2 228 -1 194 -0 c 1
 173 -51 l 1
 181 -49 190 -48 199 -48 c 0
 239 -48 270 -72 270 -110 c 0
 270 -153 224 -181 163 -181 c 0
 131 -181 114 -175 89 -164 c 1
 99 -142 l 1
 126 -152 137 -156 157 -156 c 0
 187 -156 217 -142 217 -115 c 0
 217 -94 198 -80 175 -80 c 0
187 72 m 2
 187 40 198 32 296 32 c 0
 437 32 562 82 562 284 c 0
 562 438 487 612 271 612 c 0
 222 612 187 609 187 574 c 2
 187 72 l 2
EndSplineSet
LCarets2: 1 0 
EndChar

StartChar: uni1E11
Encoding: 7697 7697 146
Width: 503
VWidth: 999
Flags: HW
HStem: -177 25<177 257> -76 31<220 260> -12 42<178 279> 27 27<436 484> 407 35<188 302> 642 30<267 302> 688 10<377 409>
VStem: 34 78<112 321> 263 53<-143 -80> 334 75<89 348 420 645>
LayerCount: 2
Fore
SplineSet
221 -76 m 0
 202 -76 192 -77 176 -82 c 1
 170 -76 l 1
 200 -10 l 1
 96 -6 39 83 39 203 c 0
 39 277 63 336 106 379 c 0
 146 417 190 439 256 439 c 0
 276 439 320 430 343 417 c 1
 343 563 l 2
 343 628 333 641 313 641 c 1
 281 643 l 2
 278 643 275 645 275 648 c 2
 273 672 l 1
 314 675 383 688 408 698 c 1
 417 698 421 695 421 688 c 2
 421 688 418 648 418 583 c 2
 418 116 l 2
 418 66 422 60 443 58 c 2
 491 53 l 1
 494 30 l 1
 432 19 388 6 366 -12 c 1
 343 -12 l 1
 345 59 l 1
 343 59 l 1
 308 31 270 5 236 -5 c 1
 219 -47 l 1
 227 -45 236 -44 245 -44 c 0
 285 -44 316 -68 316 -106 c 0
 316 -149 270 -177 209 -177 c 0
 177 -177 160 -171 135 -160 c 1
 145 -138 l 1
 172 -148 183 -152 203 -152 c 0
 233 -152 263 -138 263 -111 c 0
 263 -90 244 -76 221 -76 c 0
343 94 m 1
 343 345 l 1
 319 383 292 404 245 404 c 0
 225 404 183 401 152 354 c 0
 137 333 124 293 124 221 c 0
 124 96 179 37 233 37 c 0
 259 37 298 58 343 94 c 1
EndSplineSet
LCarets2: 1 0 
EndChar

StartChar: uni1E12
Encoding: 7698 7698 147
Width: 697
VWidth: 999
Flags: HW
HStem: -2 29<19 24 24 101 205 431> 618 29<19 26 26 104 206 387>
VStem: 106 81<39 605> 140 253<-186 -186> 562 92<179 419>
LayerCount: 2
Fore
SplineSet
292 -57 m 1
 321 -104 357 -146 393 -186 c 1
 372 -200 l 1
 333 -171 300 -146 266 -110 c 1
 229 -148 197 -173 159 -200 c 1
 139 -186 l 1
 175 -146 213 -103 242 -57 c 1
 292 -57 l 1
17 18 m 2
 17 23 20 27 24 27 c 2
 54 29 l 2
 89 31 106 42 106 74 c 2
 106 572 l 2
 106 608 95 613 54 616 c 2
 26 618 l 2
 21 618 17 621 17 626 c 2
 17 644 l 1
 19 646 l 1
 68 646 96 645 145 645 c 0
 209 645 245 646 309 646 c 0
 501 646 654 494 654 308 c 0
 654 62 468 -2 327 -2 c 0
 224 -2 216 0 145 0 c 0
 96 0 63 0 19 -2 c 1
 17 0 l 1
 17 18 l 2
187 72 m 2
 187 40 198 32 296 32 c 0
 437 32 562 82 562 284 c 0
 562 438 487 612 271 612 c 0
 222 612 187 609 187 574 c 2
 187 72 l 2
EndSplineSet
LCarets2: 1 0 
EndChar

StartChar: uni1E13
Encoding: 7699 7699 148
Width: 503
VWidth: 999
Flags: HW
HStem: -12 42<178 279> 27 27<436 484> 407 35<188 302> 642 30<267 302> 688 10<377 409>
VStem: 34 78<112 321> 89 253<-186 -186> 334 75<89 348 420 645>
LayerCount: 2
Fore
SplineSet
241 -57 m 1
 270 -104 306 -146 342 -186 c 1
 321 -200 l 1
 282 -171 249 -146 215 -110 c 1
 178 -148 146 -173 108 -200 c 1
 88 -186 l 1
 124 -146 162 -103 191 -57 c 1
 241 -57 l 1
343 94 m 1
 343 345 l 1
 319 383 292 404 245 404 c 0
 225 404 183 401 152 354 c 0
 137 333 124 293 124 221 c 0
 124 96 179 37 233 37 c 0
 259 37 298 58 343 94 c 1
418 583 m 2
 418 116 l 2
 418 66 422 60 443 58 c 2
 491 53 l 1
 494 30 l 1
 432 19 388 6 366 -12 c 1
 343 -12 l 1
 345 59 l 1
 343 59 l 1
 297 22 247 -10 207 -10 c 0
 99 -10 39 80 39 203 c 0
 39 277 63 336 106 379 c 0
 146 417 190 439 256 439 c 0
 276 439 320 430 343 417 c 1
 343 563 l 2
 343 628 333 641 313 641 c 1
 281 643 l 2
 278 643 275 645 275 648 c 2
 273 672 l 1
 314 675 383 688 408 698 c 1
 417 698 421 695 421 688 c 2
 421 688 418 648 418 583 c 2
EndSplineSet
LCarets2: 1 0 
EndChar

StartChar: uni1E14
Encoding: 7700 7700 149
Width: 549
VWidth: 999
Flags: HW
HStem: -2 29<14 97> 0 39<183 449> 327 34<182 361> 605 39<183 418> 618 29<14 98> 733 44<164 175 175 442>
VStem: 102 81<40 327 361 604> 163 280 375 34<248 283 405 442>
LayerCount: 2
Fore
SplineSet
420 733 m 2
 176 733 l 2
 167 733 163 741 163 748 c 0
 163 760 174 777 185 777 c 2
 430 777 l 2
 440 777 444 769 444 763 c 0
 444 751 433 733 420 733 c 2
445 646 m 0
 447 638 462 542 467 501 c 1
 438 496 l 1
 416 565 398 605 323 605 c 2
 218 605 l 2
 194 605 182 597 182 573 c 2
 182 361 l 1
 309 361 l 2
 344 361 356 375 359 403 c 2
 362 428 l 2
 362 432 365 436 369 436 c 2
 391 436 l 2
 394 436 395 434 395 432 c 2
 395 432 391 379 391 346 c 0
 391 312 395 255 395 255 c 1
 392 252 l 1
 369 252 l 2
 364 252 361 256 361 259 c 2
 359 285 l 2
 357 314 343 323 309 323 c 2
 182 323 l 1
 182 72 l 2
 182 45 196 39 218 39 c 2
 354 39 l 2
 430 39 469 98 489 170 c 1
 520 165 l 1
 508 113 494 50 483 -2 c 1
 483 -2 403 0 355 0 c 2
 142 0 l 1
 14 -2 l 1
 12 0 l 1
 12 20 l 2
 12 23 14 27 20 27 c 2
 50 29 l 2
 89 32 101 44 101 72 c 2
 101 573 l 2
 101 604 88 613 50 616 c 2
 20 618 l 2
 13 618 12 622 12 625 c 2
 12 645 l 1
 14 646 l 1
 14 646 115 645 142 645 c 2
 394 645 l 2
 418 645 424 646 441 649 c 0
 444 649 445 648 445 646 c 0
21 831 m 1
 114 757 l 2
 123 750 126 745 126 739 c 0
 126 730 122 725 114 725 c 0
 108 725 97 728 81 736 c 2
 -38 791 l 1
 21 831 l 1
EndSplineSet
LCarets2: 1 0 
EndChar

StartChar: uni1E15
Encoding: 7701 7701 150
Width: 427
VWidth: 999
Flags: HW
HStem: -12 49<188 319> 238 39<114 309> 408 34<185 280> 539 44<92 103 103 370>
VStem: 34 76<126 275 277 312> 91 280 312 80<262 362>
LayerCount: 2
Fore
SplineSet
212 765 m 1
 268 652 l 2
 272 643 273 636 273 630 c 0
 273 626 267 620 261 620 c 0
 256 620 251 625 238 638 c 2
 147 736 l 1
 148 746 l 1
 155 752 173 767 200 767 c 0
 204 767 209 766 212 765 c 1
347 538 m 2
 103 538 l 2
 94 538 90 546 90 553 c 0
 90 565 101 582 112 582 c 2
 357 582 l 2
 367 582 371 574 371 568 c 0
 371 556 360 538 347 538 c 2
117 287 m 1
 301 287 l 2
 311 287 315 292 315 301 c 0
 315 385 268 405 232 405 c 0
 209 405 135 400 117 287 c 1
381 95 m 1
 401 79 l 1
 363 27 304 -10 232 -10 c 0
 95 -10 34 84 34 199 c 0
 34 351 137 439 232 439 c 0
 364 439 395 349 395 265 c 0
 395 254 388 248 377 248 c 2
 114 248 l 1
 114 99 200 39 256 39 c 0
 311 39 346 57 381 95 c 1
EndSplineSet
LCarets2: 1 0 
EndChar

StartChar: uni1E16
Encoding: 7702 7702 151
Width: 549
VWidth: 999
Flags: HW
HStem: -2 29<14 97> 0 39<183 449> 327 34<182 361> 605 39<183 418> 618 29<14 98> 725 107 733 44<108 119 119 386>
VStem: 102 81<40 327 361 604> 107 280 375 34<248 283 405 442> 428 155
LayerCount: 2
Fore
SplineSet
363 733 m 2
 119 733 l 2
 110 733 106 741 106 748 c 0
 106 760 117 777 128 777 c 2
 373 777 l 2
 383 777 387 769 387 763 c 0
 387 751 376 733 363 733 c 2
445 646 m 0
 447 638 462 542 467 501 c 1
 438 496 l 1
 416 565 398 605 323 605 c 2
 218 605 l 2
 194 605 182 597 182 573 c 2
 182 361 l 1
 309 361 l 2
 344 361 356 375 359 403 c 2
 362 428 l 2
 362 432 365 436 369 436 c 2
 391 436 l 2
 394 436 395 434 395 432 c 2
 395 432 391 379 391 346 c 0
 391 312 395 255 395 255 c 1
 392 252 l 1
 369 252 l 2
 364 252 361 256 361 259 c 2
 359 285 l 2
 357 314 343 323 309 323 c 2
 182 323 l 1
 182 72 l 2
 182 45 196 39 218 39 c 2
 354 39 l 2
 430 39 469 98 489 170 c 1
 520 165 l 1
 508 113 494 50 483 -2 c 1
 483 -2 403 0 355 0 c 2
 142 0 l 1
 14 -2 l 1
 12 0 l 1
 12 20 l 2
 12 23 14 27 20 27 c 2
 50 29 l 2
 89 32 101 44 101 72 c 2
 101 573 l 2
 101 604 88 613 50 616 c 2
 20 618 l 2
 13 618 12 622 12 625 c 2
 12 645 l 1
 14 646 l 1
 14 646 115 645 142 645 c 2
 394 645 l 2
 418 645 424 646 441 649 c 0
 444 649 445 648 445 646 c 0
535 832 m 1
 583 786 l 1
 472 735 l 2
 456 727 446 724 439 724 c 0
 432 724 428 729 428 738 c 0
 428 744 430 748 440 756 c 2
 535 832 l 1
EndSplineSet
LCarets2: 1 0 
EndChar

StartChar: uni1E17
Encoding: 7703 7703 152
Width: 427
VWidth: 999
Flags: HW
HStem: -12 49<188 319> 238 39<114 309> 408 34<185 280> 539 44<92 103 103 370> 746 15
VStem: 34 76<126 275 277 312> 91 280 312 80<262 362>
LayerCount: 2
Fore
SplineSet
264 759 m 1
 267 760 272 761 276 761 c 0
 298 761 308 751 315 744 c 1
 317 742 319 741 320 740 c 1
 322 730 l 1
 230 632 l 2
 218 619 212 614 207 614 c 0
 201 614 196 620 196 626 c 0
 196 630 196 637 200 646 c 2
 264 759 l 1
347 538 m 2
 103 538 l 2
 94 538 90 546 90 553 c 0
 90 565 101 582 112 582 c 2
 357 582 l 2
 367 582 371 574 371 568 c 0
 371 556 360 538 347 538 c 2
117 287 m 1
 301 287 l 2
 311 287 315 292 315 301 c 0
 315 385 268 405 232 405 c 0
 209 405 135 400 117 287 c 1
381 95 m 1
 401 79 l 1
 363 27 304 -10 232 -10 c 0
 95 -10 34 84 34 199 c 0
 34 351 137 439 232 439 c 0
 364 439 395 349 395 265 c 0
 395 254 388 248 377 248 c 2
 114 248 l 1
 114 99 200 39 256 39 c 0
 311 39 346 57 381 95 c 1
EndSplineSet
LCarets2: 1 0 
EndChar

StartChar: uni1E18
Encoding: 7704 7704 153
Width: 549
VWidth: 999
Flags: HW
HStem: -2 29<14 97> 0 39<183 449> 327 34<182 361> 605 39<183 418> 618 29<14 98>
VStem: 102 81<40 327 361 604> 147 253<-186 -186> 375 34<248 283 405 442>
LayerCount: 2
Fore
SplineSet
300 -57 m 1
 329 -104 365 -146 401 -186 c 1
 380 -200 l 1
 341 -171 308 -146 274 -110 c 1
 237 -148 205 -173 167 -200 c 1
 147 -186 l 1
 183 -146 221 -103 250 -57 c 1
 300 -57 l 1
445 646 m 0
 447 638 462 542 467 501 c 1
 438 496 l 1
 416 565 398 605 323 605 c 2
 218 605 l 2
 194 605 182 597 182 573 c 2
 182 361 l 1
 309 361 l 2
 344 361 356 375 359 403 c 2
 362 428 l 2
 362 432 365 436 369 436 c 2
 391 436 l 2
 394 436 395 434 395 432 c 2
 395 432 391 379 391 346 c 0
 391 312 395 255 395 255 c 1
 392 252 l 1
 369 252 l 2
 364 252 361 256 361 259 c 2
 359 285 l 2
 357 314 343 323 309 323 c 2
 182 323 l 1
 182 72 l 2
 182 45 196 39 218 39 c 2
 354 39 l 2
 430 39 469 98 489 170 c 1
 520 165 l 1
 508 113 494 50 483 -2 c 1
 483 -2 403 0 355 0 c 2
 142 0 l 1
 14 -2 l 1
 12 0 l 1
 12 20 l 2
 12 23 14 27 20 27 c 2
 50 29 l 2
 89 32 101 44 101 72 c 2
 101 573 l 2
 101 604 88 613 50 616 c 2
 20 618 l 2
 13 618 12 622 12 625 c 2
 12 645 l 1
 14 646 l 1
 14 646 115 645 142 645 c 2
 394 645 l 2
 418 645 424 646 441 649 c 0
 444 649 445 648 445 646 c 0
EndSplineSet
LCarets2: 1 0 
EndChar

StartChar: uni1E19
Encoding: 7705 7705 154
Width: 427
VWidth: 999
Flags: HW
HStem: -12 49<188 319> 238 39<114 312> 408 34<175 275>
VStem: 34 77<125 238 277 312> 95 253<-186 -186> 312 80<249 362>
LayerCount: 2
Fore
SplineSet
247 -57 m 1
 276 -104 312 -146 348 -186 c 1
 327 -200 l 1
 288 -171 255 -146 221 -110 c 1
 184 -148 152 -173 114 -200 c 1
 94 -186 l 1
 130 -146 168 -103 197 -57 c 1
 247 -57 l 1
117 287 m 1
 301 287 l 2
 311 287 315 292 315 301 c 0
 315 385 268 405 232 405 c 0
 209 405 135 400 117 287 c 1
381 95 m 1
 401 79 l 1
 363 27 304 -10 232 -10 c 0
 95 -10 34 84 34 199 c 0
 34 351 137 439 232 439 c 0
 364 439 395 349 395 265 c 0
 395 254 388 248 377 248 c 2
 114 248 l 1
 114 99 200 39 256 39 c 0
 311 39 346 57 381 95 c 1
EndSplineSet
LCarets2: 1 0 
EndChar

StartChar: uni1E1A
Encoding: 7706 7706 155
Width: 549
VWidth: 999
Flags: HW
HStem: -164 44<285 373> -116 46<167 259> -77 10 -2 29<14 97> 0 39<183 449> 327 34<182 361> 605 39<183 418> 618 29<14 98>
VStem: 102 81<40 327 361 604> 375 34<248 283 405 442>
LayerCount: 2
Fore
SplineSet
336 -120 m 0
 358 -120 372 -110 386 -68 c 1
 410 -74 l 1
 398 -134 369 -164 323 -164 c 0
 301 -164 280 -152 259 -138 c 0
 241 -127 222 -116 205 -116 c 0
 179 -116 166 -131 156 -164 c 1
 132 -159 l 1
 146 -100 169 -70 212 -70 c 0
 242 -70 264 -84 284 -98 c 0
 300 -110 317 -120 336 -120 c 0
445 646 m 0
 447 638 462 542 467 501 c 1
 438 496 l 1
 416 565 398 605 323 605 c 2
 218 605 l 2
 194 605 182 597 182 573 c 2
 182 361 l 1
 309 361 l 2
 344 361 356 375 359 403 c 2
 362 428 l 2
 362 432 365 436 369 436 c 2
 391 436 l 2
 394 436 395 434 395 432 c 2
 395 432 391 379 391 346 c 0
 391 312 395 255 395 255 c 1
 392 252 l 1
 369 252 l 2
 364 252 361 256 361 259 c 2
 359 285 l 2
 357 314 343 323 309 323 c 2
 182 323 l 1
 182 72 l 2
 182 45 196 39 218 39 c 2
 354 39 l 2
 430 39 469 98 489 170 c 1
 520 165 l 1
 508 113 494 50 483 -2 c 1
 483 -2 403 0 355 0 c 2
 142 0 l 1
 14 -2 l 1
 12 0 l 1
 12 20 l 2
 12 23 14 27 20 27 c 2
 50 29 l 2
 89 32 101 44 101 72 c 2
 101 573 l 2
 101 604 88 613 50 616 c 2
 20 618 l 2
 13 618 12 622 12 625 c 2
 12 645 l 1
 14 646 l 1
 14 646 115 645 142 645 c 2
 394 645 l 2
 418 645 424 646 441 649 c 0
 444 649 445 648 445 646 c 0
EndSplineSet
LCarets2: 1 0 
EndChar

StartChar: uni1E1B
Encoding: 7707 7707 156
Width: 427
VWidth: 999
Flags: HW
HStem: -163 44<236 324> -114 46<119 210> -76 10 -12 49<188 319> 238 39<114 312> 408 34<175 275>
VStem: 34 77<125 238 277 312> 312 80<249 362>
LayerCount: 2
Fore
SplineSet
288 -118 m 0
 310 -118 324 -108 338 -66 c 1
 362 -72 l 1
 350 -132 321 -162 275 -162 c 0
 253 -162 232 -150 211 -136 c 0
 193 -125 174 -114 157 -114 c 0
 131 -114 118 -129 108 -162 c 1
 84 -157 l 1
 98 -98 121 -68 164 -68 c 0
 194 -68 216 -82 236 -96 c 0
 252 -108 269 -118 288 -118 c 0
117 287 m 1
 301 287 l 2
 311 287 315 292 315 301 c 0
 315 385 268 405 232 405 c 0
 209 405 135 400 117 287 c 1
381 95 m 1
 401 79 l 1
 363 27 304 -10 232 -10 c 0
 95 -10 34 84 34 199 c 0
 34 351 137 439 232 439 c 0
 364 439 395 349 395 265 c 0
 395 254 388 248 377 248 c 2
 114 248 l 1
 114 99 200 39 256 39 c 0
 311 39 346 57 381 95 c 1
EndSplineSet
LCarets2: 1 0 
EndChar

StartChar: uni1E1C
Encoding: 7708 7708 157
Width: 549
VWidth: 999
Flags: HW
HStem: -182 25<221 302> -80 31<265 305> -2 29<14 97> 0 39<183 449> 327 34<182 361> 605 39<183 418> 618 29<14 98> 692 52<221 378>
VStem: 102 81<40 327 361 604> 165 28<765 803> 308 53<-148 -84> 375 34<248 283 405 442> 408 27<767 805>
LayerCount: 2
Fore
SplineSet
435 805 m 1
 429 734 366 692 300 692 c 0
 227 692 169 735 164 805 c 1
 192 805 l 1
 200 766 247 744 300 744 c 0
 349 744 401 766 408 805 c 1
 435 805 l 1
266 -80 m 0
 247 -80 237 -81 221 -86 c 1
 215 -80 l 1
 251 -0 l 1
 142 0 l 1
 14 -2 l 1
 12 0 l 1
 12 20 l 2
 12 23 14 27 20 27 c 2
 50 29 l 2
 89 32 101 44 101 72 c 2
 101 573 l 2
 101 604 88 613 50 616 c 2
 20 618 l 2
 13 618 12 622 12 625 c 2
 12 645 l 1
 14 646 l 1
 14 646 115 645 142 645 c 2
 394 645 l 2
 418 645 424 646 441 649 c 0
 444 649 445 648 445 646 c 0
 447 638 462 542 467 501 c 1
 438 496 l 1
 416 565 398 605 323 605 c 2
 218 605 l 2
 194 605 182 597 182 573 c 2
 182 361 l 1
 309 361 l 2
 344 361 356 375 359 403 c 2
 362 428 l 2
 362 432 365 436 369 436 c 2
 391 436 l 2
 394 436 395 434 395 432 c 2
 395 432 391 379 391 346 c 0
 391 312 395 255 395 255 c 1
 392 252 l 1
 369 252 l 2
 364 252 361 256 361 259 c 2
 359 285 l 2
 357 314 343 323 309 323 c 2
 182 323 l 1
 182 72 l 2
 182 45 196 39 218 39 c 2
 354 39 l 2
 430 39 469 98 489 170 c 1
 520 165 l 1
 508 113 494 50 483 -2 c 1
 483 -2 403 0 355 0 c 2
 285 -0 l 1
 264 -51 l 1
 272 -49 281 -48 290 -48 c 0
 330 -48 361 -72 361 -110 c 0
 361 -153 315 -181 254 -181 c 0
 222 -181 205 -175 180 -164 c 1
 190 -142 l 1
 217 -152 228 -156 248 -156 c 0
 278 -156 308 -142 308 -115 c 0
 308 -94 289 -80 266 -80 c 0
EndSplineSet
LCarets2: 1 0 
EndChar

StartChar: uni1E1D
Encoding: 7709 7709 158
Width: 427
VWidth: 999
Flags: HW
HStem: -187 25<176 256> -85 31<219 259> -12 49<188 319> 238 39<114 309> 408 34<185 280> 500 57<152 289>
VStem: 34 76<126 275 277 312> 85 27<598 636> 262 53<-153 -89> 312 80<262 362> 329 26<597 636>
LayerCount: 2
Fore
SplineSet
111 650 m 1
 113 598 160 558 220 558 c 0
 266 558 326 588 328 650 c 1
 355 636 l 1
 345 535 270 501 220 501 c 0
 143 501 92 558 85 636 c 1
 111 650 l 1
220 -85 m 0
 201 -85 191 -86 175 -91 c 1
 169 -85 l 1
 203 -9 l 1
 86 4 34 92 34 199 c 0
 34 351 137 439 232 439 c 0
 364 439 395 349 395 265 c 0
 395 254 388 248 377 248 c 2
 114 248 l 1
 114 99 200 39 256 39 c 0
 311 39 346 57 381 95 c 1
 401 79 l 1
 364 28 307 -8 237 -10 c 1
 218 -56 l 1
 226 -54 235 -53 244 -53 c 0
 284 -53 315 -77 315 -115 c 0
 315 -158 269 -186 208 -186 c 0
 176 -186 159 -180 134 -169 c 1
 144 -147 l 1
 171 -157 182 -161 202 -161 c 0
 232 -161 262 -147 262 -120 c 0
 262 -99 243 -85 220 -85 c 0
117 287 m 1
 301 287 l 2
 311 287 315 292 315 301 c 0
 315 385 268 405 232 405 c 0
 209 405 135 400 117 287 c 1
EndSplineSet
LCarets2: 1 0 
EndChar

StartChar: uni1E1E
Encoding: 7710 7710 159
Width: 477
VWidth: 999
Flags: HW
HStem: -2 29<15 95 186 270> 327 34<182 360> 605 39<183 409> 618 29<16 99> 705 96<245 325>
VStem: 102 81<33 327 361 604> 237 96<713 792> 374 34<248 283 405 442>
LayerCount: 2
Fore
SplineSet
237 752 m 0
 237 779 258 800 285 800 c 0
 311 800 333 779 333 752 c 0
 333 726 311 705 285 705 c 0
 258 705 237 726 237 752 c 0
101 573 m 2
 101 604 88 613 50 616 c 2
 20 618 l 2
 13 618 12 622 12 625 c 2
 12 645 l 1
 14 646 l 1
 14 646 115 645 142 645 c 2
 394 645 l 2
 418 645 424 646 441 649 c 0
 444 649 445 648 445 646 c 0
 447 638 462 542 467 501 c 1
 438 496 l 1
 416 565 398 605 323 605 c 2
 218 605 l 2
 194 605 182 597 182 573 c 2
 182 361 l 1
 309 361 l 2
 344 361 356 375 359 403 c 2
 362 428 l 2
 362 432 365 436 369 436 c 2
 391 436 l 2
 394 436 395 434 395 432 c 2
 395 432 391 377 391 344 c 0
 391 310 395 255 395 255 c 1
 392 252 l 1
 369 252 l 2
 364 252 361 256 361 259 c 2
 359 285 l 2
 357 314 343 323 309 323 c 2
 182 323 l 1
 182 72 l 2
 182 41 197 27 237 27 c 2
 263 27 l 2
 268 27 271 24 271 19 c 2
 271 0 l 1
 270 -2 l 1
 270 -2 193 0 144 0 c 0
 94 0 15 -2 15 -2 c 1
 13 0 l 1
 13 19 l 2
 13 24 16 27 21 27 c 2
 47 27 l 2
 88 27 101 44 101 72 c 2
 101 573 l 2
EndSplineSet
LCarets2: 1 0 
EndChar

StartChar: uni1E1F
Encoding: 7711 7711 160
Width: 308
VWidth: 999
Flags: HW
HStem: -2 29<24 88 172 249> 390 39<18 23 23 92 167 278> 664 34<198 285> 736 96<214 294>
VStem: 92 75<30 390 429 591> 206 96<745 824>
LayerCount: 2
Fore
SplineSet
206 784 m 0
 206 811 227 832 254 832 c 0
 280 832 302 811 302 784 c 0
 302 758 280 737 254 737 c 0
 227 737 206 758 206 784 c 0
96 72 m 2
 96 390 l 1
 27 390 l 2
 23 390 22 391 22 396 c 2
 22 409 l 2
 22 417 27 429 45 429 c 2
 96 429 l 1
 96 469 l 2
 96 625 187 698 271 698 c 0
 309 698 335 691 360 674 c 1
 380 659 389 642 389 626 c 0
 389 605 374 590 355 590 c 0
 335 590 322 601 314 618 c 0
 301 651 282 664 252 664 c 0
 219 664 171 640 171 486 c 2
 171 429 l 1
 281 429 l 2
 286 429 289 427 289 423 c 2
 289 403 l 2
 289 394 275 390 266 390 c 2
 171 390 l 1
 171 72 l 2
 171 43 181 31 214 29 c 2
 247 27 l 2
 251 27 255 24 255 19 c 2
 255 0 l 1
 253 -2 l 1
 253 -2 179 0 132 0 c 0
 91 0 28 -2 28 -2 c 1
 26 0 l 1
 26 19 l 2
 26 24 29 27 34 27 c 2
 53 28 l 2
 87 30 96 43 96 72 c 2
EndSplineSet
LCarets2: 1 0 
EndChar

StartChar: uni1E20
Encoding: 7712 7712 161
Width: 693
VWidth: 999
Flags: HW
HStem: -12 37<292 497> 271 36<453 535 624 672> 621 37<269 472> 733 44<228 239 239 506>
VStem: 32 87<215 431> 227 280 540 81<97 266>
LayerCount: 2
Fore
SplineSet
483 733 m 2
 239 733 l 2
 230 733 226 741 226 748 c 0
 226 760 237 777 248 777 c 2
 493 777 l 2
 503 777 507 769 507 763 c 0
 507 751 496 733 483 733 c 2
375 658 m 0
 497 658 533 613 593 613 c 1
 600 541 606 501 615 459 c 1
 585 453 l 1
 559 539 506 621 361 621 c 0
 226 621 119 502 119 327 c 0
 119 195 215 26 393 26 c 0
 447 26 506 42 540 74 c 1
 540 227 l 2
 540 258 525 266 485 269 c 2
 459 271 l 2
 455 271 451 274 451 279 c 2
 451 305 l 1
 453 307 l 1
 453 307 540 305 579 305 c 0
 614 305 672 307 672 307 c 1
 674 305 l 1
 674 279 l 2
 674 274 671 272 666 271 c 0
 637 268 621 262 621 227 c 2
 621 111 l 2
 621 100 626 92 637 83 c 1
 569 25 488 -10 370 -10 c 0
 169 -10 32 134 32 307 c 0
 32 527 203 658 375 658 c 0
EndSplineSet
LCarets2: 1 0 
EndChar

StartChar: uni1E21
Encoding: 7713 7713 162
Width: 479
VWidth: 999
Flags: HW
HStem: -235 37<138 323> -9 61<216 331> 136 30<171 286> 414 28<166 276> 539 44<103 114 114 381>
VStem: 33 59<-155 -54> 60 71<211 366> 102 280 316 73<209 369> 410 48<-138 -53>
LayerCount: 2
Fore
SplineSet
358 538 m 2
 114 538 l 2
 105 538 101 546 101 553 c 0
 101 565 112 582 123 582 c 2
 368 582 l 2
 378 582 382 574 382 568 c 0
 382 556 371 538 358 538 c 2
308 279 m 0
 308 362 274 408 214 408 c 0
 162 408 137 372 137 302 c 0
 137 238 147 167 227 167 c 0
 262 167 308 186 308 279 c 0
128 -10 m 1
 100 -45 98 -70 98 -104 c 0
 98 -172 178 -201 212 -201 c 0
 298 -201 401 -163 401 -91 c 0
 401 -65 389 -51 352 -29 c 0
 324 -13 283 -12 235 -12 c 0
 221 -12 196 -15 166 -15 c 0
 154 -15 139 -13 128 -10 c 1
428 388 m 0
 412 388 402 397 398 405 c 0
 392 414 388 417 381 417 c 0
 369 417 350 403 343 393 c 1
 371 363 384 336 384 289 c 0
 384 191 306 136 222 136 c 0
 185 136 157 143 134 157 c 1
 123 140 117 119 117 99 c 0
 117 56 150 42 178 42 c 0
 183 42 193 43 207 44 c 0
 230 47 253 49 270 49 c 0
 305 49 373 48 411 16 c 0
 439 -8 453 -33 453 -65 c 0
 453 -173 313 -238 184 -238 c 0
 111 -238 32 -211 32 -124 c 0
 32 -81 59 -35 110 -3 c 1
 85 10 67 38 67 74 c 0
 67 108 82 151 109 175 c 1
 82 202 59 233 59 287 c 0
 59 379 138 439 223 439 c 0
 279 439 312 419 323 411 c 1
 348 445 393 462 418 462 c 0
 444 462 462 445 462 424 c 0
 462 402 448 388 428 388 c 0
EndSplineSet
LCarets2: 1 0 
EndChar

StartChar: uni1E22
Encoding: 7714 7714 163
Width: 700
VWidth: 999
Flags: HW
HStem: -2 29<20 100 192 274 427 507 600 682> 324 39<187 514> 618 29<19 101 193 274 426 508 601 681> 698 96<314 394>
VStem: 106 81<33 324 363 612> 306 96<706 785> 514 81<33 324 363 612>
LayerCount: 2
Fore
SplineSet
513 72 m 2
 513 321 l 1
 187 321 l 1
 187 72 l 2
 187 41 202 32 242 29 c 2
 268 27 l 2
 272 27 276 24 276 19 c 2
 276 0 l 1
 274 -2 l 1
 274 -2 188 0 148 0 c 0
 113 0 20 -2 20 -2 c 1
 18 0 l 1
 18 19 l 2
 18 24 21 27 25 27 c 2
 52 29 l 2
 93 32 106 44 106 72 c 2
 106 574 l 2
 106 604 90 613 52 616 c 2
 25 618 l 2
 21 618 17 621 17 626 c 2
 17 645 l 1
 19 646 l 1
 19 646 106 645 145 645 c 0
 181 645 274 646 274 646 c 1
 276 645 l 1
 276 626 l 2
 276 621 273 618 268 618 c 2
 242 616 l 2
 202 613 187 602 187 574 c 2
 187 363 l 1
 513 363 l 1
 513 574 l 2
 513 604 498 613 459 616 c 2
 433 618 l 2
 428 618 424 621 424 626 c 2
 424 645 l 1
 426 646 l 1
 426 646 513 645 552 645 c 0
 588 645 681 646 681 646 c 1
 683 645 l 1
 683 626 l 2
 683 621 680 618 675 618 c 2
 649 616 l 2
 609 613 594 602 594 574 c 2
 594 72 l 2
 594 41 609 27 649 27 c 2
 675 27 l 2
 680 27 684 24 684 19 c 2
 684 0 l 1
 682 -2 l 1
 682 -2 595 0 556 0 c 0
 520 0 427 -2 427 -2 c 1
 425 0 l 1
 425 19 l 2
 425 24 428 27 433 27 c 2
 459 27 l 2
 500 27 513 44 513 72 c 2
306 745 m 0
 306 772 327 793 354 793 c 0
 380 793 402 772 402 745 c 0
 402 719 380 698 354 698 c 0
 327 698 306 719 306 745 c 0
EndSplineSet
LCarets2: 1 0 
EndChar

StartChar: uni1E23
Encoding: 7715 7715 164
Width: 520
VWidth: 999
Flags: HW
HStem: -2 29<21 84 168 231 293 357 441 504> 395 47<245 344> 523 96<248 328> 642 30<21 56> 688 10<131 163>
VStem: 88 75<30 322 359 645> 240 96<531 610> 361 75<30 379>
LayerCount: 2
Fore
SplineSet
240 571 m 0
 240 598 261 619 288 619 c 0
 314 619 336 598 336 571 c 0
 336 545 314 524 288 524 c 0
 261 524 240 545 240 571 c 0
163 583 m 2
 163 356 l 1
 230 423 289 439 328 439 c 0
 400 439 436 387 436 284 c 2
 436 72 l 2
 436 43 446 32 479 29 c 2
 498 27 l 2
 502 27 506 24 506 19 c 2
 506 0 l 1
 504 -2 l 1
 504 -2 436 0 396 0 c 0
 361 0 293 -2 293 -2 c 1
 291 0 l 1
 291 19 l 2
 291 24 294 26 299 27 c 2
 318 29 l 2
 352 33 361 43 361 72 c 2
 361 295 l 2
 361 376 339 392 283 392 c 0
 254 392 211 366 163 319 c 1
 163 72 l 2
 163 43 173 32 206 29 c 2
 225 27 l 2
 229 27 233 24 233 19 c 2
 233 0 l 1
 231 -2 l 1
 231 -2 163 0 124 0 c 0
 88 0 21 -2 21 -2 c 1
 19 0 l 1
 19 19 l 2
 19 24 21 26 26 27 c 2
 45 29 l 2
 79 33 88 43 88 72 c 2
 88 563 l 2
 88 628 78 641 58 641 c 1
 26 643 l 2
 23 643 20 645 20 648 c 2
 18 672 l 1
 58 675 128 688 153 698 c 1
 162 698 166 695 166 688 c 2
 166 688 163 648 163 583 c 2
EndSplineSet
LCarets2: 1 0 
EndChar

StartChar: uni1E24
Encoding: 7716 7716 165
Width: 700
VWidth: 999
Flags: HW
HStem: -163 96<314 393> -2 29<20 100 192 274 427 507 600 682> 324 39<187 514> 618 29<19 101 193 274 426 508 601 681>
VStem: 106 81<33 324 363 612> 306 96<-155 -76> 514 81<33 324 363 612>
LayerCount: 2
Fore
SplineSet
513 72 m 2
 513 321 l 1
 187 321 l 1
 187 72 l 2
 187 41 202 32 242 29 c 2
 268 27 l 2
 272 27 276 24 276 19 c 2
 276 0 l 1
 274 -2 l 1
 274 -2 188 0 148 0 c 0
 113 0 20 -2 20 -2 c 1
 18 0 l 1
 18 19 l 2
 18 24 21 27 25 27 c 2
 52 29 l 2
 93 32 106 44 106 72 c 2
 106 574 l 2
 106 604 90 613 52 616 c 2
 25 618 l 2
 21 618 17 621 17 626 c 2
 17 645 l 1
 19 646 l 1
 19 646 106 645 145 645 c 0
 181 645 274 646 274 646 c 1
 276 645 l 1
 276 626 l 2
 276 621 273 618 268 618 c 2
 242 616 l 2
 202 613 187 602 187 574 c 2
 187 363 l 1
 513 363 l 1
 513 574 l 2
 513 604 498 613 459 616 c 2
 433 618 l 2
 428 618 424 621 424 626 c 2
 424 645 l 1
 426 646 l 1
 426 646 513 645 552 645 c 0
 588 645 681 646 681 646 c 1
 683 645 l 1
 683 626 l 2
 683 621 680 618 675 618 c 2
 649 616 l 2
 609 613 594 602 594 574 c 2
 594 72 l 2
 594 41 609 27 649 27 c 2
 675 27 l 2
 680 27 684 24 684 19 c 2
 684 0 l 1
 682 -2 l 1
 682 -2 595 0 556 0 c 0
 520 0 427 -2 427 -2 c 1
 425 0 l 1
 425 19 l 2
 425 24 428 27 433 27 c 2
 459 27 l 2
 500 27 513 44 513 72 c 2
306 -115 m 0
 306 -88 327 -67 354 -67 c 0
 380 -67 402 -88 402 -115 c 0
 402 -141 380 -162 354 -162 c 0
 327 -162 306 -141 306 -115 c 0
EndSplineSet
LCarets2: 1 0 
EndChar

StartChar: uni1E25
Encoding: 7717 7717 166
Width: 520
VWidth: 999
Flags: HW
HStem: -164 96<221 300> -2 29<21 84 168 231 293 357 441 504> 395 47<245 344> 642 30<21 56> 688 10<131 163>
VStem: 88 75<30 322 359 645> 212 96<-155 -76> 361 75<30 379>
LayerCount: 2
Fore
SplineSet
212 -116 m 0
 212 -89 233 -68 260 -68 c 0
 286 -68 308 -89 308 -116 c 0
 308 -142 286 -163 260 -163 c 0
 233 -163 212 -142 212 -116 c 0
163 583 m 2
 163 356 l 1
 230 423 289 439 328 439 c 0
 400 439 436 387 436 284 c 2
 436 72 l 2
 436 43 446 32 479 29 c 2
 498 27 l 2
 502 27 506 24 506 19 c 2
 506 0 l 1
 504 -2 l 1
 504 -2 436 0 396 0 c 0
 361 0 293 -2 293 -2 c 1
 291 0 l 1
 291 19 l 2
 291 24 294 26 299 27 c 2
 318 29 l 2
 352 33 361 43 361 72 c 2
 361 295 l 2
 361 376 339 392 283 392 c 0
 254 392 211 366 163 319 c 1
 163 72 l 2
 163 43 173 32 206 29 c 2
 225 27 l 2
 229 27 233 24 233 19 c 2
 233 0 l 1
 231 -2 l 1
 231 -2 163 0 124 0 c 0
 88 0 21 -2 21 -2 c 1
 19 0 l 1
 19 19 l 2
 19 24 21 26 26 27 c 2
 45 29 l 2
 79 33 88 43 88 72 c 2
 88 563 l 2
 88 628 78 641 58 641 c 1
 26 643 l 2
 23 643 20 645 20 648 c 2
 18 672 l 1
 58 675 128 688 153 698 c 1
 162 698 166 695 166 688 c 2
 166 688 163 648 163 583 c 2
EndSplineSet
LCarets2: 1 0 
EndChar

StartChar: uni1E26
Encoding: 7718 7718 167
Width: 700
VWidth: 999
Flags: HW
HStem: -2 29<20 100 192 274 427 507 600 682> 324 39<187 514> 618 29<19 101 193 274 426 508 601 681> 704 91<217 294 407 483>
VStem: 106 81<33 324 363 612> 210 91<710 788> 399 91<711 788> 514 81<33 324 363 612>
LayerCount: 2
Fore
SplineSet
513 72 m 2
 513 321 l 1
 187 321 l 1
 187 72 l 2
 187 41 202 32 242 29 c 2
 268 27 l 2
 272 27 276 24 276 19 c 2
 276 0 l 1
 274 -2 l 1
 274 -2 188 0 148 0 c 0
 113 0 20 -2 20 -2 c 1
 18 0 l 1
 18 19 l 2
 18 24 21 27 25 27 c 2
 52 29 l 2
 93 32 106 44 106 72 c 2
 106 574 l 2
 106 604 90 613 52 616 c 2
 25 618 l 2
 21 618 17 621 17 626 c 2
 17 645 l 1
 19 646 l 1
 19 646 106 645 145 645 c 0
 181 645 274 646 274 646 c 1
 276 645 l 1
 276 626 l 2
 276 621 273 618 268 618 c 2
 242 616 l 2
 202 613 187 602 187 574 c 2
 187 363 l 1
 513 363 l 1
 513 574 l 2
 513 604 498 613 459 616 c 2
 433 618 l 2
 428 618 424 621 424 626 c 2
 424 645 l 1
 426 646 l 1
 426 646 513 645 552 645 c 0
 588 645 681 646 681 646 c 1
 683 645 l 1
 683 626 l 2
 683 621 680 618 675 618 c 2
 649 616 l 2
 609 613 594 602 594 574 c 2
 594 72 l 2
 594 41 609 27 649 27 c 2
 675 27 l 2
 680 27 684 24 684 19 c 2
 684 0 l 1
 682 -2 l 1
 682 -2 595 0 556 0 c 0
 520 0 427 -2 427 -2 c 1
 425 0 l 1
 425 19 l 2
 425 24 428 27 433 27 c 2
 459 27 l 2
 500 27 513 44 513 72 c 2
399 750 m 0
 399 774 420 795 444 795 c 0
 469 795 490 774 490 750 c 0
 490 725 469 704 444 704 c 0
 420 704 399 725 399 750 c 0
210 749 m 0
 210 774 230 794 255 794 c 0
 280 794 300 774 300 749 c 0
 300 724 280 704 255 704 c 0
 230 704 210 724 210 749 c 0
EndSplineSet
LCarets2: 1 0 
EndChar

StartChar: uni1E27
Encoding: 7719 7719 168
Width: 520
VWidth: 999
Flags: HW
HStem: -2 29<21 84 168 231 293 357 441 504> 395 47<245 344> 527 91<214 292 351 429> 642 30<21 56> 688 10<131 163>
VStem: 88 75<30 322 359 645> 208 91<533 611> 345 91<533 611> 361 75<30 379>
LayerCount: 2
Fore
SplineSet
345 572 m 0
 345 597 365 618 390 618 c 0
 415 618 436 597 436 572 c 0
 436 547 415 527 390 527 c 0
 365 527 345 547 345 572 c 0
208 572 m 0
 208 597 228 618 253 618 c 0
 278 618 298 597 298 572 c 0
 298 547 278 527 253 527 c 0
 228 527 208 547 208 572 c 0
163 583 m 2
 163 356 l 1
 230 423 289 439 328 439 c 0
 400 439 436 387 436 284 c 2
 436 72 l 2
 436 43 446 32 479 29 c 2
 498 27 l 2
 502 27 506 24 506 19 c 2
 506 0 l 1
 504 -2 l 1
 504 -2 436 0 396 0 c 0
 361 0 293 -2 293 -2 c 1
 291 0 l 1
 291 19 l 2
 291 24 294 26 299 27 c 2
 318 29 l 2
 352 33 361 43 361 72 c 2
 361 295 l 2
 361 376 339 392 283 392 c 0
 254 392 211 366 163 319 c 1
 163 72 l 2
 163 43 173 32 206 29 c 2
 225 27 l 2
 229 27 233 24 233 19 c 2
 233 0 l 1
 231 -2 l 1
 231 -2 163 0 124 0 c 0
 88 0 21 -2 21 -2 c 1
 19 0 l 1
 19 19 l 2
 19 24 21 26 26 27 c 2
 45 29 l 2
 79 33 88 43 88 72 c 2
 88 563 l 2
 88 628 78 641 58 641 c 1
 26 643 l 2
 23 643 20 645 20 648 c 2
 18 672 l 1
 58 675 128 688 153 698 c 1
 162 698 166 695 166 688 c 2
 166 688 163 648 163 583 c 2
EndSplineSet
LCarets2: 1 0 
EndChar

StartChar: uni1E28
Encoding: 7720 7720 169
Width: 700
VWidth: 999
Flags: HW
HStem: -177 25<111 191> -76 31<154 194> -2 29<20 100 192 274 427 507 600 682> 324 39<187 514> 618 29<19 101 193 274 426 508 601 681>
VStem: 106 81<33 324 363 612> 197 53<-143 -80> 514 81<33 324 363 612>
LayerCount: 2
Fore
SplineSet
513 72 m 2
 513 321 l 1
 187 321 l 1
 187 72 l 2
 187 41 202 32 242 29 c 2
 268 27 l 2
 272 27 276 24 276 19 c 2
 276 0 l 1
 274 -2 l 1
 274 -2 215 -1 172 -0 c 1
 153 -47 l 1
 161 -45 170 -44 179 -44 c 0
 219 -44 250 -68 250 -106 c 0
 250 -149 204 -177 143 -177 c 0
 111 -177 94 -171 69 -160 c 1
 79 -138 l 1
 106 -148 117 -152 137 -152 c 0
 167 -152 197 -138 197 -111 c 0
 197 -90 178 -76 155 -76 c 0
 136 -76 126 -77 110 -82 c 1
 104 -76 l 1
 138 -0 l 1
 98 -0 20 -2 20 -2 c 1
 18 0 l 1
 18 19 l 2
 18 24 21 27 25 27 c 2
 52 29 l 2
 93 32 106 44 106 72 c 2
 106 574 l 2
 106 604 90 613 52 616 c 2
 25 618 l 2
 21 618 17 621 17 626 c 2
 17 645 l 1
 19 646 l 1
 19 646 106 645 145 645 c 0
 181 645 274 646 274 646 c 1
 276 645 l 1
 276 626 l 2
 276 621 273 618 268 618 c 2
 242 616 l 2
 202 613 187 602 187 574 c 2
 187 363 l 1
 513 363 l 1
 513 574 l 2
 513 604 498 613 459 616 c 2
 433 618 l 2
 428 618 424 621 424 626 c 2
 424 645 l 1
 426 646 l 1
 426 646 513 645 552 645 c 0
 588 645 681 646 681 646 c 1
 683 645 l 1
 683 626 l 2
 683 621 680 618 675 618 c 2
 649 616 l 2
 609 613 594 602 594 574 c 2
 594 72 l 2
 594 41 609 27 649 27 c 2
 675 27 l 2
 680 27 684 24 684 19 c 2
 684 0 l 1
 682 -2 l 1
 682 -2 595 0 556 0 c 0
 520 0 427 -2 427 -2 c 1
 425 0 l 1
 425 19 l 2
 425 24 428 27 433 27 c 2
 459 27 l 2
 500 27 513 44 513 72 c 2
EndSplineSet
LCarets2: 1 0 
EndChar

StartChar: uni1E29
Encoding: 7721 7721 170
Width: 520
VWidth: 999
Flags: HW
HStem: -175 25<82 162> -73 31<125 165> -2 29<21 84 168 231 293 357 441 504> 395 47<245 344> 642 30<21 56> 688 10<131 163>
VStem: 88 75<30 322 359 645> 168 53<-141 -78> 361 75<30 379>
LayerCount: 2
Fore
SplineSet
126 -74 m 0
 107 -74 97 -75 81 -80 c 1
 75 -74 l 1
 108 -0 l 1
 71 -0 21 -2 21 -2 c 1
 19 0 l 1
 19 19 l 2
 19 24 21 26 26 27 c 2
 45 29 l 2
 79 33 88 43 88 72 c 2
 88 563 l 2
 88 628 78 641 58 641 c 1
 26 643 l 2
 23 643 20 645 20 648 c 2
 18 672 l 1
 58 675 128 688 153 698 c 1
 162 698 166 695 166 688 c 2
 166 688 163 648 163 583 c 2
 163 356 l 1
 230 423 289 439 328 439 c 0
 400 439 436 387 436 284 c 2
 436 72 l 2
 436 43 446 32 479 29 c 2
 498 27 l 2
 502 27 506 24 506 19 c 2
 506 0 l 1
 504 -2 l 1
 504 -2 436 0 396 0 c 0
 361 0 293 -2 293 -2 c 1
 291 0 l 1
 291 19 l 2
 291 24 294 26 299 27 c 2
 318 29 l 2
 352 33 361 43 361 72 c 2
 361 295 l 2
 361 376 339 392 283 392 c 0
 254 392 211 366 163 319 c 1
 163 72 l 2
 163 43 173 32 206 29 c 2
 225 27 l 2
 229 27 233 24 233 19 c 2
 233 0 l 1
 231 -2 l 1
 231 -2 181 -1 143 -0 c 1
 124 -45 l 1
 132 -43 141 -42 150 -42 c 0
 190 -42 221 -66 221 -104 c 0
 221 -147 175 -175 114 -175 c 0
 82 -175 65 -169 40 -158 c 1
 50 -136 l 1
 77 -146 88 -150 108 -150 c 0
 138 -150 168 -136 168 -109 c 0
 168 -88 149 -74 126 -74 c 0
EndSplineSet
LCarets2: 1 0 
EndChar

StartChar: uni1E2A
Encoding: 7722 7722 171
Width: 700
VWidth: 999
Flags: HW
HStem: -199 57<275 412> -2 29<20 100 192 274 427 507 600 682> 324 39<187 514> 618 29<19 101 193 274 426 508 601 681>
VStem: 106 81<33 324 363 612> 208 27<-102 -64> 452 26<-103 -64> 514 81<33 324 363 612>
LayerCount: 2
Fore
SplineSet
513 72 m 2
 513 321 l 1
 187 321 l 1
 187 72 l 2
 187 41 202 32 242 29 c 2
 268 27 l 2
 272 27 276 24 276 19 c 2
 276 0 l 1
 274 -2 l 1
 274 -2 188 0 148 0 c 0
 113 0 20 -2 20 -2 c 1
 18 0 l 1
 18 19 l 2
 18 24 21 27 25 27 c 2
 52 29 l 2
 93 32 106 44 106 72 c 2
 106 574 l 2
 106 604 90 613 52 616 c 2
 25 618 l 2
 21 618 17 621 17 626 c 2
 17 645 l 1
 19 646 l 1
 19 646 106 645 145 645 c 0
 181 645 274 646 274 646 c 1
 276 645 l 1
 276 626 l 2
 276 621 273 618 268 618 c 2
 242 616 l 2
 202 613 187 602 187 574 c 2
 187 363 l 1
 513 363 l 1
 513 574 l 2
 513 604 498 613 459 616 c 2
 433 618 l 2
 428 618 424 621 424 626 c 2
 424 645 l 1
 426 646 l 1
 426 646 513 645 552 645 c 0
 588 645 681 646 681 646 c 1
 683 645 l 1
 683 626 l 2
 683 621 680 618 675 618 c 2
 649 616 l 2
 609 613 594 602 594 574 c 2
 594 72 l 2
 594 41 609 27 649 27 c 2
 675 27 l 2
 680 27 684 24 684 19 c 2
 684 0 l 1
 682 -2 l 1
 682 -2 595 0 556 0 c 0
 520 0 427 -2 427 -2 c 1
 425 0 l 1
 425 19 l 2
 425 24 428 27 433 27 c 2
 459 27 l 2
 500 27 513 44 513 72 c 2
235 -50 m 1
 237 -102 284 -142 344 -142 c 0
 390 -142 450 -112 452 -50 c 1
 479 -64 l 1
 469 -165 394 -199 344 -199 c 0
 267 -199 216 -142 209 -64 c 1
 235 -50 l 1
EndSplineSet
LCarets2: 1 0 
EndChar

StartChar: uni1E2B
Encoding: 7723 7723 172
Width: 520
VWidth: 999
Flags: HW
HStem: -209 57<210 347> -2 29<21 84 168 231 293 357 441 504> 395 47<245 344> 642 30<21 56> 688 10<131 163>
VStem: 88 75<30 322 359 645> 144 27<-112 -74> 361 75<30 379> 387 26<-112 -74>
LayerCount: 2
Fore
SplineSet
170 -60 m 1
 172 -112 219 -152 279 -152 c 0
 325 -152 385 -122 387 -60 c 1
 414 -74 l 1
 404 -175 329 -209 279 -209 c 0
 202 -209 151 -152 144 -74 c 1
 170 -60 l 1
163 583 m 2
 163 356 l 1
 230 423 289 439 328 439 c 0
 400 439 436 387 436 284 c 2
 436 72 l 2
 436 43 446 32 479 29 c 2
 498 27 l 2
 502 27 506 24 506 19 c 2
 506 0 l 1
 504 -2 l 1
 504 -2 436 0 396 0 c 0
 361 0 293 -2 293 -2 c 1
 291 0 l 1
 291 19 l 2
 291 24 294 26 299 27 c 2
 318 29 l 2
 352 33 361 43 361 72 c 2
 361 295 l 2
 361 376 339 392 283 392 c 0
 254 392 211 366 163 319 c 1
 163 72 l 2
 163 43 173 32 206 29 c 2
 225 27 l 2
 229 27 233 24 233 19 c 2
 233 0 l 1
 231 -2 l 1
 231 -2 163 0 124 0 c 0
 88 0 21 -2 21 -2 c 1
 19 0 l 1
 19 19 l 2
 19 24 21 26 26 27 c 2
 45 29 l 2
 79 33 88 43 88 72 c 2
 88 563 l 2
 88 628 78 641 58 641 c 1
 26 643 l 2
 23 643 20 645 20 648 c 2
 18 672 l 1
 58 675 128 688 153 698 c 1
 162 698 166 695 166 688 c 2
 166 688 163 648 163 583 c 2
EndSplineSet
EndChar

StartChar: uni1E2C
Encoding: 7724 7724 173
Width: 293
VWidth: 999
Flags: HW
HStem: -164 44<164 252> -116 46<47 138> -77 10 -2 29<20 100 192 274> 618 29<19 101 193 274>
VStem: 106 81<33 612>
LayerCount: 2
Fore
SplineSet
216 -120 m 0
 238 -120 252 -110 266 -68 c 1
 290 -74 l 1
 278 -134 249 -164 203 -164 c 0
 181 -164 160 -152 139 -138 c 0
 121 -127 102 -116 85 -116 c 0
 59 -116 46 -131 36 -164 c 1
 12 -159 l 1
 26 -100 49 -70 92 -70 c 0
 122 -70 144 -84 164 -98 c 0
 180 -110 197 -120 216 -120 c 0
187 574 m 2
 187 71 l 2
 187 41 202 32 242 29 c 2
 268 27 l 2
 272 27 276 24 276 19 c 2
 276 0 l 1
 274 -2 l 1
 226 0 197 0 147 0 c 0
 97 0 69 0 20 -2 c 1
 18 0 l 1
 18 19 l 2
 18 24 21 27 25 27 c 2
 52 29 l 2
 94 32 106 43 106 71 c 2
 106 574 l 2
 106 604 91 613 52 616 c 2
 25 618 l 2
 21 618 17 621 17 626 c 2
 17 645 l 1
 19 646 l 1
 69 645 96 645 146 645 c 0
 196 645 225 645 274 646 c 1
 276 645 l 1
 276 626 l 2
 276 621 273 618 268 618 c 2
 242 616 l 2
 202 613 187 602 187 574 c 2
EndSplineSet
LCarets2: 1 0 
EndChar

StartChar: uni1E2D
Encoding: 7725 7725 174
Width: 267
VWidth: 999
Flags: HW
HStem: -164 44<150 238> -116 46<33 124> -77 10 -2 29<31 94 179 242> 377 27<30 71> 432 10<155 173> 523 96<86 165>
VStem: 78 96<531 610> 99 75<30 382>
LayerCount: 2
Fore
SplineSet
202 -120 m 0
 224 -120 238 -110 252 -68 c 1
 276 -74 l 1
 264 -134 235 -164 189 -164 c 0
 167 -164 146 -152 125 -138 c 0
 107 -127 88 -116 71 -116 c 0
 45 -116 32 -131 22 -164 c 1
 -2 -159 l 1
 12 -100 35 -70 78 -70 c 0
 108 -70 130 -84 150 -98 c 0
 166 -110 183 -120 202 -120 c 0
86 570 m 0
 86 597 107 618 134 618 c 0
 160 618 182 597 182 570 c 0
 182 544 160 523 134 523 c 0
 107 523 86 544 86 570 c 0
180 439 m 2
 180 439 177 371 177 321 c 2
 177 72 l 2
 177 43 188 32 219 29 c 2
 238 27 l 2
 243 26 247 24 247 19 c 2
 247 0 l 1
 245 -2 l 1
 245 -2 180 0 139 0 c 0
 98 0 34 -2 34 -2 c 1
 32 0 l 1
 32 19 l 2
 32 24 35 26 40 27 c 2
 59 29 l 2
 93 33 102 43 102 72 c 2
 102 321 l 2
 102 371 94 381 80 383 c 2
 37 387 l 1
 35 411 l 1
 106 422 148 431 176 442 c 1
 178 442 180 441 180 439 c 2
EndSplineSet
LCarets2: 1 0 
EndChar

StartChar: uni1E2E
Encoding: 7726 7726 175
Width: 293
VWidth: 999
Flags: HW
HStem: -2 29<20 100 192 274> 618 29<19 101 193 274> 703 91<13 91 203 279> 783 107
VStem: 6 91<710 787> 106 81<33 612> 117 155 196 91<710 788>
LayerCount: 2
Fore
SplineSet
225 890 m 1
 273 844 l 1
 162 793 l 2
 146 785 136 782 129 782 c 0
 122 782 118 787 118 796 c 0
 118 802 120 806 130 814 c 2
 225 890 l 1
196 750 m 0
 196 774 217 795 241 795 c 0
 266 795 287 774 287 750 c 0
 287 725 266 704 241 704 c 0
 217 704 196 725 196 750 c 0
7 749 m 0
 7 774 27 794 52 794 c 0
 77 794 97 774 97 749 c 0
 97 724 77 704 52 704 c 0
 27 704 7 724 7 749 c 0
187 574 m 2
 187 71 l 2
 187 41 202 32 242 29 c 2
 268 27 l 2
 272 27 276 24 276 19 c 2
 276 0 l 1
 274 -2 l 1
 226 0 197 0 147 0 c 0
 97 0 69 0 20 -2 c 1
 18 0 l 1
 18 19 l 2
 18 24 21 27 25 27 c 2
 52 29 l 2
 94 32 106 43 106 71 c 2
 106 574 l 2
 106 604 91 613 52 616 c 2
 25 618 l 2
 21 618 17 621 17 626 c 2
 17 645 l 1
 19 646 l 1
 69 645 96 645 146 645 c 0
 196 645 225 645 274 646 c 1
 276 645 l 1
 276 626 l 2
 276 621 273 618 268 618 c 2
 242 616 l 2
 202 613 187 602 187 574 c 2
EndSplineSet
LCarets2: 1 0 
EndChar

StartChar: uni1E2F
Encoding: 7727 7727 176
Width: 267
VWidth: 999
Flags: HW
HStem: -2 29<31 94 179 242> 377 27<30 71> 432 10<155 173> 527 91<7 85 168 245> 727 15
VStem: 0 91<533 611> 99 75<30 382> 161 91<533 611>
LayerCount: 2
Fore
SplineSet
177 740 m 1
 179 741 184 742 188 742 c 0
 209 742 219 732 225 725 c 1
 228 723 229 722 230 722 c 1
 232 712 l 1
 144 616 l 2
 132 603 127 598 122 598 c 0
 116 598 111 604 111 610 c 0
 111 614 111 620 115 629 c 2
 177 740 l 1
161 573 m 0
 161 598 182 618 207 618 c 0
 232 618 252 598 252 573 c 0
 252 548 232 527 207 527 c 0
 182 527 161 548 161 573 c 0
1 573 m 0
 1 598 21 618 46 618 c 0
 71 618 92 598 92 573 c 0
 92 548 71 527 46 527 c 0
 21 527 1 548 1 573 c 0
180 439 m 2
 180 439 177 371 177 321 c 2
 177 72 l 2
 177 43 188 32 219 29 c 2
 238 27 l 2
 243 26 247 24 247 19 c 2
 247 0 l 1
 245 -2 l 1
 245 -2 180 0 139 0 c 0
 98 0 34 -2 34 -2 c 1
 32 0 l 1
 32 19 l 2
 32 24 35 26 40 27 c 2
 59 29 l 2
 93 33 102 43 102 72 c 2
 102 321 l 2
 102 371 94 381 80 383 c 2
 37 387 l 1
 35 411 l 1
 106 422 148 431 176 442 c 1
 178 442 180 441 180 439 c 2
EndSplineSet
LCarets2: 1 0 
EndChar

StartChar: uni1E30
Encoding: 7728 7728 177
Width: 637
VWidth: 999
Flags: HW
HStem: -2 29<20 100 192 274 562 596 596 630> 309 39<187 248> 618 29<19 101 193 274 404 456 532 616> 698 122
VStem: 106 81<33 612> 270 202
DStem2: 267 386 345 407 0.688802 0.724949<68.6972 243.147> 320 333 271 271 0.644136 -0.764911<15.9226 271.98>
LayerCount: 2
Fore
SplineSet
409 819 m 1
 471 767 l 1
 327 709 l 2
 306 700 293 697 284 697 c 0
 275 697 270 702 270 712 c 0
 270 719 272 724 285 733 c 2
 409 819 l 1
187 309 m 1
 187 71 l 2
 187 41 202 32 242 29 c 2
 268 27 l 2
 272 27 276 24 276 19 c 2
 276 0 l 1
 274 -2 l 1
 226 0 197 0 147 0 c 0
 97 0 69 0 20 -2 c 1
 18 0 l 1
 18 19 l 2
 18 24 21 27 25 27 c 2
 52 29 l 2
 94 32 106 43 106 71 c 2
 106 574 l 2
 106 604 91 613 52 616 c 2
 25 618 l 2
 21 618 17 621 17 626 c 2
 17 645 l 1
 19 646 l 1
 69 645 96 645 146 645 c 0
 196 645 225 645 274 646 c 1
 276 645 l 1
 276 626 l 2
 276 621 273 618 268 618 c 2
 242 616 l 2
 202 613 187 602 187 574 c 2
 187 347 l 1
 224 349 246 364 267 386 c 2
 435 562 l 2
 463 593 469 612 431 616 c 2
 410 618 l 2
 406 618 402 621 402 626 c 2
 402 645 l 1
 404 646 l 1
 404 646 480 645 520 645 c 0
 555 645 616 646 616 646 c 1
 621 645 l 1
 621 626 l 2
 621 621 616 618 610 618 c 0
 570 613 531 607 485 558 c 2
 345 407 l 2
 312 372 308 365 308 358 c 0
 308 350 311 343 320 333 c 2
 539 73 l 2
 564 42 588 32 617 28 c 2
 624 27 l 2
 628 26 633 24 633 19 c 2
 633 0 l 1
 630 -2 l 1
 630 -2 555 0 516 0 c 0
 480 0 456 -2 456 -2 c 1
 454 0 l 1
 454 6 l 2
 454 24 454 48 434 73 c 2
 271 271 l 2
 250 298 223 309 187 309 c 1
EndSplineSet
LCarets2: 1 0 
EndChar

StartChar: uni1E31
Encoding: 7729 7729 178
Width: 479
VWidth: 999
Flags: HW
HStem: -2 29<21 84 168 214 407 473 473 473> 402 29<276 276 276 314 376 452 452 452> 642 30<21 56> 656 17 688 10<131 163>
VStem: 88 75<30 212 237 645>
DStem2: 267 246 222 176 0.561672 -0.82736<33.2166 159.595>
LayerCount: 2
Fore
SplineSet
347 671 m 1
 350 672 356 673 361 673 c 0
 389 673 402 662 410 654 c 0
 413 652 415 651 416 650 c 1
 419 639 l 1
 304 530 l 2
 289 515 282 510 275 510 c 0
 268 510 261 516 261 523 c 0
 261 528 261 535 267 545 c 2
 347 671 l 1
88 563 m 2
 88 628 78 641 58 641 c 1
 26 643 l 2
 23 643 20 645 20 648 c 2
 18 672 l 1
 58 675 128 688 153 698 c 1
 162 698 166 695 166 688 c 2
 166 688 163 648 163 583 c 2
 163 237 l 1
 189 243 240 288 294 347 c 0
 305 358 341 399 281 402 c 0
 276 402 273 406 273 410 c 2
 273 429 l 1
 276 431 l 1
 276 431 324 429 359 429 c 0
 398 429 452 431 452 431 c 1
 456 429 l 1
 456 410 l 2
 456 405 450 403 445 402 c 2
 438 401 l 2
 411 397 367 380 342 354 c 2
 266 270 l 2
 263 267 262 264 262 260 c 0
 262 255 264 250 267 246 c 2
 384 73 l 2
 402 46 434 32 459 28 c 2
 466 27 l 2
 473 26 475 24 475 19 c 2
 475 0 l 1
 473 -2 l 1
 473 -2 422 0 383 0 c 0
 348 0 321 -2 321 -2 c 1
 318 0 l 1
 318 19 l 2
 318 32 315 44 295 73 c 2
 222 176 l 2
 202 205 188 212 163 212 c 1
 163 72 l 2
 163 34 183 30 208 27 c 0
 212 27 216 24 216 19 c 2
 216 0 l 1
 214 -2 l 1
 214 -2 163 0 124 0 c 0
 88 0 21 -2 21 -2 c 1
 19 0 l 1
 19 19 l 2
 19 24 21 26 26 27 c 2
 45 29 l 2
 78 32 88 43 88 72 c 2
 88 563 l 2
EndSplineSet
LCarets2: 1 0 
EndChar

StartChar: uni1E32
Encoding: 7730 7730 179
Width: 637
VWidth: 999
Flags: HW
HStem: -163 96<286 365> -2 29<20 100 192 274 562 596 596 630> 309 39<187 248> 618 29<19 101 193 274 404 456 532 616>
VStem: 106 81<33 612> 278 96<-155 -76>
DStem2: 267 386 345 407 0.688802 0.724949<8.15268 283.518> 320 333 271 271 0.644136 -0.764911<-22.2615 324.594>
LayerCount: 2
Fore
SplineSet
278 -115 m 0
 278 -88 299 -67 326 -67 c 0
 352 -67 374 -88 374 -115 c 0
 374 -141 352 -162 326 -162 c 0
 299 -162 278 -141 278 -115 c 0
187 309 m 1
 187 71 l 2
 187 41 202 32 242 29 c 2
 268 27 l 2
 272 27 276 24 276 19 c 2
 276 0 l 1
 274 -2 l 1
 226 0 197 0 147 0 c 0
 97 0 69 0 20 -2 c 1
 18 0 l 1
 18 19 l 2
 18 24 21 27 25 27 c 2
 52 29 l 2
 94 32 106 43 106 71 c 2
 106 574 l 2
 106 604 91 613 52 616 c 2
 25 618 l 2
 21 618 17 621 17 626 c 2
 17 645 l 1
 19 646 l 1
 69 645 96 645 146 645 c 0
 196 645 225 645 274 646 c 1
 276 645 l 1
 276 626 l 2
 276 621 273 618 268 618 c 2
 242 616 l 2
 202 613 187 602 187 574 c 2
 187 347 l 1
 224 349 246 364 267 386 c 2
 435 562 l 2
 463 593 469 612 431 616 c 2
 410 618 l 2
 406 618 402 621 402 626 c 2
 402 645 l 1
 404 646 l 1
 404 646 480 645 520 645 c 0
 555 645 616 646 616 646 c 1
 621 645 l 1
 621 626 l 2
 621 621 616 618 610 618 c 0
 570 613 531 607 485 558 c 2
 345 407 l 2
 312 372 308 365 308 358 c 0
 308 350 311 343 320 333 c 2
 539 73 l 2
 564 42 588 32 617 28 c 2
 624 27 l 2
 628 26 633 24 633 19 c 2
 633 0 l 1
 630 -2 l 1
 630 -2 555 0 516 0 c 0
 480 0 456 -2 456 -2 c 1
 454 0 l 1
 454 6 l 2
 454 24 454 48 434 73 c 2
 271 271 l 2
 250 298 223 309 187 309 c 1
EndSplineSet
LCarets2: 1 0 
EndChar

StartChar: uni1E33
Encoding: 7731 7731 180
Width: 479
VWidth: 999
Flags: HW
HStem: -163 96<213 292> -2 29<21 84 168 214 407 473 473 473> 402 29<276 276 276 314 376 452 452 452> 642 30<21 56> 688 10<131 163>
VStem: 88 75<30 212 237 645> 205 96<-155 -76>
DStem2: 267 246 222 176 0.561672 -0.82736<-5.32808 213.391>
LayerCount: 2
Fore
SplineSet
204 -115 m 0
 204 -88 225 -67 252 -67 c 0
 278 -67 300 -88 300 -115 c 0
 300 -141 278 -162 252 -162 c 0
 225 -162 204 -141 204 -115 c 0
88 563 m 2
 88 628 78 641 58 641 c 1
 26 643 l 2
 23 643 20 645 20 648 c 2
 18 672 l 1
 58 675 128 688 153 698 c 1
 162 698 166 695 166 688 c 2
 166 688 163 648 163 583 c 2
 163 237 l 1
 189 243 240 288 294 347 c 0
 305 358 341 399 281 402 c 0
 276 402 273 406 273 410 c 2
 273 429 l 1
 276 431 l 1
 276 431 324 429 359 429 c 0
 398 429 452 431 452 431 c 1
 456 429 l 1
 456 410 l 2
 456 405 450 403 445 402 c 2
 438 401 l 2
 411 397 367 380 342 354 c 2
 266 270 l 2
 263 267 262 264 262 260 c 0
 262 255 264 250 267 246 c 2
 384 73 l 2
 402 46 434 32 459 28 c 2
 466 27 l 2
 473 26 475 24 475 19 c 2
 475 0 l 1
 473 -2 l 1
 473 -2 422 0 383 0 c 0
 348 0 321 -2 321 -2 c 1
 318 0 l 1
 318 19 l 2
 318 32 315 44 295 73 c 2
 222 176 l 2
 202 205 188 212 163 212 c 1
 163 72 l 2
 163 34 183 30 208 27 c 0
 212 27 216 24 216 19 c 2
 216 0 l 1
 214 -2 l 1
 214 -2 163 0 124 0 c 0
 88 0 21 -2 21 -2 c 1
 19 0 l 1
 19 19 l 2
 19 24 21 26 26 27 c 2
 45 29 l 2
 78 32 88 43 88 72 c 2
 88 563 l 2
EndSplineSet
LCarets2: 1 0 
EndChar

